<?xml version="1.0" encoding="UTF-8" standalone="no"?>
<svg
   xmlns:dc="http://purl.org/dc/elements/1.1/"
   xmlns:cc="http://creativecommons.org/ns#"
   xmlns:rdf="http://www.w3.org/1999/02/22-rdf-syntax-ns#"
   xmlns:svg="http://www.w3.org/2000/svg"
   xmlns="http://www.w3.org/2000/svg"
   xmlns:sodipodi="http://sodipodi.sourceforge.net/DTD/sodipodi-0.dtd"
   xmlns:inkscape="http://www.inkscape.org/namespaces/inkscape"
   inkscape:version="1.0 (1.0+r73+1)"
   sodipodi:docname="bat.svg"
   id="svg1337"
   preserveAspectRatio="xMidYMid meet"
   viewBox="0 0 238.000000 250.000000"
   height="250.000000pt"
   width="238.000000pt"
   version="1.0">
  <metadata
     id="metadata1343">
    <rdf:RDF>
      <cc:Work
         rdf:about="">
        <dc:format>image/svg+xml</dc:format>
        <dc:type
           rdf:resource="http://purl.org/dc/dcmitype/StillImage" />
        <dc:title></dc:title>
      </cc:Work>
    </rdf:RDF>
  </metadata>
  <defs
     id="defs1341" />
  <sodipodi:namedview
     inkscape:current-layer="svg1337"
     inkscape:window-maximized="1"
     inkscape:window-y="27"
     inkscape:window-x="67"
     inkscape:cy="197.03872"
     inkscape:cx="158.66667"
     inkscape:zoom="2.634"
     showgrid="false"
     id="namedview1339"
     inkscape:window-height="1025"
     inkscape:window-width="1853"
     inkscape:pageshadow="2"
     inkscape:pageopacity="0"
     guidetolerance="10"
     gridtolerance="10"
     objecttolerance="10"
     borderopacity="1"
     bordercolor="#666666"
     pagecolor="#ffffff" />
  <g
     style="opacity:0.7;fill:#050914;fill-opacity:1"
     id="g1335"
     stroke="none"
     fill="#000000"
     transform="matrix(0.1,0,0,-0.1,0,250)">
    <path
       style="fill:#050914;fill-opacity:1"
       id="path1221"
       d="m 105,2460 c 3,-5 15,-10 26,-10 21,0 86,-57 76,-66 -3,-3 -16,0 -29,7 -23,12 -23,12 -5,-9 11,-11 24,-19 30,-16 8,3 12,-16 13,-60 1,-66 -2,-70 -43,-48 -12,7 -30,12 -40,12 -16,-1 -16,-2 2,-12 11,-6 32,-24 47,-39 20,-21 28,-24 32,-13 3,8 9,13 13,12 4,-1 18,3 31,10 19,11 23,10 28,-3 3,-8 10,-13 14,-10 17,11 60,-16 76,-47 9,-18 18,-35 20,-37 2,-2 22,13 44,33 22,20 48,36 59,36 10,0 24,7 31,15 7,8 17,15 22,15 15,0 59,38 56,47 -2,4 8,10 22,11 14,2 33,11 42,19 11,10 24,13 35,8 10,-5 25,-7 35,-6 10,1 20,-9 25,-26 l 10,-28 15,30 c 9,17 26,39 37,50 19,16 26,17 54,7 26,-10 33,-9 40,3 4,8 21,15 37,15 16,0 32,5 35,11 4,6 13,8 21,5 25,-10 15,4 -18,24 -18,11 -48,20 -65,20 -38,0 -42,10 -12,28 18,11 24,11 38,-2 10,-9 25,-16 35,-16 9,0 30,-14 46,-31 l 28,-31 17,26 c 10,14 28,29 41,32 13,3 24,10 24,15 0,5 10,14 23,19 19,8 18,9 -13,9 -20,1 -40,-3 -45,-8 -16,-15 -48,-16 -82,-2 -21,8 -48,11 -75,7 -24,-4 -56,-7 -72,-8 -28,-1 -29,-1 -10,-15 19,-14 19,-14 0,-29 -23,-16 -36,-18 -36,-4 0,18 -27,10 -43,-12 -13,-21 -18,-22 -45,-12 -25,10 -36,9 -61,-5 -108,-60 -130,-70 -136,-61 -4,6 -11,8 -16,5 -5,-3 -28,5 -52,19 -24,15 -54,26 -66,26 h -23 l 23,-19 23,-19 -44,-7 c -38,-6 -46,-5 -62,15 -32,40 -21,92 27,118 15,9 -14,11 -123,12 -93,0 -141,-4 -137,-10 z m 230,-146 c 14,-9 25,-23 25,-32 0,-13 4,-12 23,5 36,33 65,35 110,6 l 41,-26 -45,-22 c -24,-13 -46,-19 -47,-14 -3,6 -8,6 -16,0 -8,-6 -28,1 -65,24 -30,19 -59,36 -64,38 -10,3 -3,37 8,37 3,0 17,-7 30,-16 z" />
    <path
       style="fill:#050914;fill-opacity:1"
       id="path1223"
       d="m 6,2431 c -3,-5 5,-8 19,-8 14,0 22,3 19,8 -3,5 -11,9 -19,9 -8,0 -16,-4 -19,-9 z" />
    <path
       style="fill:#050914;fill-opacity:1"
       id="path1225"
       d="m 95,2389 c -25,-23 -42,-30 -60,-26 -38,7 -40,-10 -3,-18 18,-4 39,-12 46,-17 8,-8 12,-6 12,4 0,8 11,27 25,42 23,25 32,46 20,46 -2,0 -20,-14 -40,-31 z" />
    <path
       style="fill:#050914;fill-opacity:1"
       id="path1227"
       d="m 2,2264 3,-37 68,-3 c 73,-4 85,11 17,22 -22,4 -51,17 -66,30 l -25,24 z" />
    <path
       style="fill:#050914;fill-opacity:1"
       id="path1229"
       d="m 1294,2241 c 20,-22 26,-25 26,-13 0,4 -10,13 -22,21 -23,14 -23,14 -4,-8 z" />
    <path
       style="fill:#050914;fill-opacity:1"
       id="path1231"
       d="m 975,2240 c -3,-5 3,-14 14,-20 13,-7 22,-7 26,0 3,5 11,10 17,10 7,0 7,-5 -1,-14 -9,-11 -7,-15 11,-21 13,-4 30,-9 39,-10 9,-1 22,-6 30,-11 8,-4 28,-7 46,-5 28,2 36,-2 55,-35 21,-36 22,-36 32,-15 6,15 16,21 28,18 10,-3 20,-1 23,3 3,5 21,7 40,6 41,-4 43,3 13,31 -35,32 -62,43 -79,32 -22,-13 -49,-11 -49,5 0,21 -21,31 -30,15 -7,-10 -13,-11 -32,-1 -27,15 -176,24 -183,12 z" />
    <path
       style="fill:#050914;fill-opacity:1"
       id="path1233"
       d="m 780,2215 c -50,-29 -65,-33 -83,-23 -10,5 -26,8 -35,6 -11,-3 2,-13 35,-29 49,-24 53,-25 58,-8 3,10 14,21 25,24 16,5 35,33 27,41 -1,2 -14,-3 -27,-11 z" />
    <path
       style="fill:#050914;fill-opacity:1"
       id="path1235"
       d="m 474,2065 c 13,-25 35,-54 50,-66 19,-15 26,-30 26,-54 0,-29 -4,-35 -33,-44 -38,-13 -58,-8 -103,26 -38,28 -65,32 -41,5 10,-10 17,-24 17,-30 0,-6 9,-13 19,-17 10,-3 24,-19 31,-35 15,-36 15,-35 40,-10 11,11 31,20 45,20 31,0 100,40 70,40 -19,1 -19,1 -2,14 12,10 45,14 103,12 46,0 84,3 84,7 0,15 -69,37 -115,37 -26,0 -45,5 -45,11 0,6 -6,9 -14,6 -9,-4 -24,9 -41,33 -23,34 -90,90 -107,90 -4,0 4,-20 16,-45 z" />
    <path
       style="fill:#050914;fill-opacity:1"
       id="path1237"
       d="m 860,2073 c -14,-10 -35,-29 -46,-42 -18,-21 -30,-25 -70,-23 -27,1 -58,-1 -69,-5 -17,-6 -14,-8 15,-16 19,-5 50,-11 68,-14 18,-3 35,-9 38,-14 11,-19 34,-8 34,15 0,14 9,31 21,40 18,12 49,58 49,72 0,9 -17,3 -40,-13 z" />
    <path
       style="fill:#050914;fill-opacity:1"
       id="path1239"
       d="m 208,2013 c -23,-52 -40,-73 -60,-73 -22,-1 -98,-38 -98,-50 0,-14 77,-13 86,1 4,7 22,9 46,6 40,-5 40,-5 35,23 -4,16 0,35 7,46 8,10 12,23 9,29 -2,7 1,24 6,38 18,48 -9,30 -31,-20 z" />
    <path
       style="fill:#050914;fill-opacity:1"
       id="path1241"
       d="m 693,2043 c 18,-21 51,-21 63,-1 4,6 -2,8 -14,4 -12,-4 -32,-2 -44,5 -23,12 -23,12 -5,-8 z" />
    <path
       style="fill:#050914;fill-opacity:1"
       id="path1243"
       d="m 1417,1996 c 15,-20 21,-22 43,-12 l 24,11 -24,3 c -14,2 -29,8 -34,13 -20,19 -26,8 -9,-15 z" />
    <path
       style="fill:#050914;fill-opacity:1"
       id="path1245"
       d="m 910,1985 c 0,-21 19,-39 45,-42 17,-3 24,0 20,7 -3,5 -13,10 -22,10 -9,0 -22,8 -29,18 -7,9 -13,13 -14,7 z" />
    <path
       style="fill:#050914;fill-opacity:1"
       id="path1247"
       d="m 740,1859 c 0,-4 6,-20 13,-35 11,-26 15,-28 47,-23 21,4 26,7 13,8 -12,0 -34,13 -48,28 -14,15 -25,25 -25,22 z" />
    <path
       style="fill:#050914;fill-opacity:1"
       id="path1249"
       d="m 656,1752 c -10,-20 -26,-33 -46,-37 -45,-10 -38,-29 8,-20 20,4 37,8 38,8 7,12 23,71 20,75 -3,2 -12,-10 -20,-26 z" />
    <path
       style="fill:#050914;fill-opacity:1"
       id="path1251"
       d="m 29,1681 c 12,-22 21,-48 21,-57 0,-9 9,-27 20,-41 11,-15 20,-41 20,-60 0,-30 3,-34 18,-28 67,28 70,29 94,13 16,-11 30,-13 47,-6 35,12 38,2 7,-23 -15,-12 -39,-43 -55,-70 -21,-38 -30,-46 -40,-36 -9,9 -13,7 -17,-11 -6,-20 -12,-22 -75,-22 H 0 v -55 c 0,-30 5,-55 10,-55 6,0 10,-9 10,-19 0,-16 6,-19 35,-17 46,4 53,12 17,19 -33,7 -57,48 -39,66 18,18 92,13 119,-8 41,-33 49,-30 54,19 3,34 11,52 33,72 16,14 27,28 24,31 -7,8 27,67 43,74 7,3 14,11 14,19 0,7 8,18 18,23 16,10 16,10 -1,11 -10,0 -28,7 -42,16 -13,8 -52,19 -87,24 -34,5 -64,14 -66,20 -2,5 -9,10 -17,10 -7,0 -18,14 -25,30 -16,39 -46,77 -71,91 -20,10 -20,10 0,-30 z" />
    <path
       style="fill:#050914;fill-opacity:1"
       id="path1253"
       d="m 748,1694 c 6,-3 12,-12 12,-20 0,-8 5,-14 10,-14 6,0 14,-8 17,-17 4,-10 13,-23 21,-29 12,-8 12,-15 3,-32 -13,-25 -7,-27 37,-11 36,12 67,0 77,-31 3,-11 15,-20 25,-20 10,0 21,-4 25,-9 3,-6 19,-17 36,-25 l 31,-15 -7,27 c -12,49 -46,93 -76,99 -20,4 -28,11 -27,22 2,12 -5,16 -26,16 -22,0 -32,7 -40,25 -6,14 -18,27 -26,29 -24,7 -106,11 -92,5 z" />
    <path
       style="fill:#050914;fill-opacity:1"
       id="path1255"
       d="m 0,1570 c 0,-5 7,-10 16,-10 8,0 12,5 9,10 -3,6 -10,10 -16,10 -5,0 -9,-4 -9,-10 z" />
    <path
       style="fill:#050914;fill-opacity:1"
       id="path1257"
       d="m 809,1459 c -8,-15 -8,-19 0,-15 6,4 11,3 11,-2 0,-5 -15,-13 -32,-18 -23,-7 -34,-17 -36,-32 -3,-22 -3,-22 22,3 14,14 32,25 41,25 8,0 15,8 15,18 0,10 5,23 12,30 9,9 8,12 -5,12 -9,0 -21,-10 -28,-21 z" />
    <path
       style="fill:#050914;fill-opacity:1"
       id="path1259"
       d="m 749,1443 -24,-28 28,24 c 25,23 32,31 24,31 -2,0 -14,-12 -28,-27 z" />
    <path
       style="fill:#050914;fill-opacity:1"
       id="path1261"
       d="m 55,1440 c -16,-11 -36,-18 -42,-15 -19,7 -16,-10 5,-26 15,-13 21,-11 54,23 40,41 32,50 -17,18 z" />
    <path
       style="fill:#050914;fill-opacity:1"
       id="path1263"
       d="m 670,1384 c 0,-8 5,-12 10,-9 6,4 8,11 5,16 -9,14 -15,11 -15,-7 z" />
    <path
       style="fill:#050914;fill-opacity:1"
       id="path1265"
       d="m 525,1379 c 4,-6 14,-8 22,-5 8,3 11,1 8,-4 -3,-6 -2,-10 3,-10 6,0 12,7 16,15 4,11 -2,15 -25,15 -19,0 -28,-4 -24,-11 z" />
    <path
       style="fill:#050914;fill-opacity:1"
       id="path1267"
       d="m 584,1358 c -6,-9 -8,-9 31,-13 17,-2 22,-1 12,2 -9,2 -15,8 -13,12 3,4 -2,8 -10,8 -8,0 -17,-4 -20,-9 z" />
    <path
       style="fill:#050914;fill-opacity:1"
       id="path1269"
       d="m 700,1345 c 0,-8 0,-18 -1,-22 0,-4 5,-9 13,-11 9,-2 8,0 -2,7 -13,9 -13,11 2,11 9,0 19,-6 22,-12 3,-7 3,-2 0,11 -4,16 -3,21 5,17 6,-4 11,-2 11,3 0,6 -11,11 -25,11 -16,0 -25,-6 -25,-15 z" />
    <path
       style="fill:#050914;fill-opacity:1"
       id="path1271"
       d="m 350,1331 c 0,-15 24,-27 48,-25 22,1 22,1 5,-19 -10,-11 -12,-17 -6,-13 10,5 11,-1 7,-24 -4,-18 -2,-30 4,-30 5,0 8,8 5,18 -3,14 1,18 14,17 32,-2 44,-14 33,-35 -7,-13 -5,-21 7,-31 10,-8 14,-9 10,-2 -4,6 -3,14 3,18 5,3 10,1 10,-5 0,-7 6,-10 14,-7 8,3 16,3 19,0 9,-8 -14,-63 -24,-57 -12,7 -3,-46 9,-58 5,-5 15,-1 23,8 8,10 9,15 2,11 -6,-4 -14,-3 -18,3 -3,5 -2,10 3,10 6,0 8,9 5,20 -3,12 0,20 6,20 7,0 10,-4 7,-9 -11,-17 27,-4 40,14 16,22 10,35 -14,28 -13,-3 -26,7 -45,36 -19,28 -32,39 -43,34 -11,-4 -15,-1 -12,13 2,12 -2,18 -10,16 -8,-1 -11,2 -8,7 4,5 -9,19 -28,30 -35,22 -66,27 -66,12 z" />
    <path
       style="fill:#050914;fill-opacity:1"
       id="path1273"
       d="m 322,1308 c -7,-7 -12,-22 -12,-35 0,-14 -6,-23 -16,-23 -8,0 -12,-5 -9,-10 4,-6 11,-7 17,-4 7,4 8,2 4,-5 -4,-6 -12,-9 -17,-6 -12,8 -22,-17 -17,-45 l 3,-21 13,22 c 11,17 11,20 0,14 -7,-4 3,9 22,27 24,24 35,44 36,66 2,34 -5,39 -24,20 z" />
    <path
       style="fill:#050914;fill-opacity:1"
       id="path1275"
       d="m 655,1175 c -5,-2 -22,-6 -37,-9 -15,-3 -37,-21 -49,-39 -12,-17 -16,-26 -9,-19 8,6 31,12 52,12 21,0 38,4 38,9 0,4 10,6 23,4 19,-4 23,0 23,21 0,25 -12,31 -41,21 z m -22,-31 c -5,-13 -7,-13 -14,-2 -5,7 -9,8 -9,2 0,-6 -7,-11 -16,-11 -14,0 -14,2 2,14 25,18 45,17 37,-3 z" />
    <path
       style="fill:#050914;fill-opacity:1"
       id="path1277"
       d="m 745,1171 c -2,-4 0,-13 5,-20 6,-11 12,-11 29,1 l 22,16 -26,4 c -14,3 -27,2 -30,-1 z" />
    <path
       style="fill:#050914;fill-opacity:1"
       id="path1279"
       d="m 340,1123 c 0,-6 5,-15 10,-18 6,-3 10,-14 10,-23 0,-13 9,-17 38,-18 36,-1 36,-1 11,10 -15,6 -36,22 -48,36 -11,14 -20,20 -21,13 z" />
    <path
       style="fill:#050914;fill-opacity:1"
       id="path1281"
       d="m 761,1055 c -1,-21 14,-34 29,-25 13,8 13,10 -2,10 -9,0 -19,6 -21,13 -3,6 -6,8 -6,2 z" />
    <path
       style="fill:#050914;fill-opacity:1"
       id="path1283"
       d="m 183,985 c 20,-14 37,-34 37,-44 0,-14 5,-18 20,-14 16,4 24,-3 37,-33 9,-22 16,-47 15,-57 0,-9 13,-27 29,-39 19,-14 29,-30 27,-42 -2,-16 4,-22 27,-26 23,-4 31,-11 33,-31 3,-21 -3,-28 -30,-39 -18,-7 -45,-25 -60,-38 -24,-22 -38,-26 -108,-28 -53,-2 -93,2 -115,12 -33,14 -35,13 -35,-6 0,-14 -4,-19 -12,-14 -10,6 -10,4 -1,-7 16,-16 17,-29 2,-29 -5,0 -8,4 -5,9 3,4 -6,6 -19,3 -32,-6 -32,-18 -1,-24 15,-3 31,2 41,11 10,10 18,12 23,6 4,-5 16,-15 27,-21 11,-6 24,-23 30,-38 8,-24 5,-30 -20,-51 -22,-17 -34,-20 -42,-13 -9,7 -17,7 -26,0 -8,-7 -18,-7 -27,-2 -24,16 -30,12 -30,-20 0,-22 5,-30 18,-30 10,0 33,-16 52,-35 19,-19 37,-35 41,-35 4,0 13,16 19,35 13,41 53,75 86,75 13,0 24,5 24,10 0,17 56,70 73,70 9,0 19,5 22,10 3,6 -3,10 -14,10 -28,0 -29,45 -1,62 11,7 20,18 20,25 0,7 9,17 20,23 16,9 22,6 35,-19 8,-17 15,-35 15,-41 0,-5 9,-19 20,-30 11,-11 20,-33 20,-50 0,-29 1,-30 23,-19 30,17 75,21 82,8 5,-6 11,-7 18,0 7,5 26,11 42,13 l 30,4 -37,17 c -21,9 -49,17 -63,17 -20,0 -25,5 -26,28 -1,21 -3,22 -6,6 -6,-31 -49,-21 -56,13 -3,19 1,27 19,35 18,9 21,14 13,25 -15,17 -33,17 -26,-1 10,-25 -14,-36 -44,-21 -36,19 -50,40 -21,33 12,-4 20,-2 17,2 -3,5 -2,16 1,25 5,12 9,14 14,4 6,-9 12,-9 24,3 13,14 13,18 1,28 -8,6 -18,9 -23,6 -17,-10 -34,23 -30,58 4,37 -18,61 -47,50 -8,-3 -15,-2 -15,4 0,6 5,12 12,14 7,3 5,7 -6,11 -11,4 -15,3 -10,-4 4,-7 1,-10 -6,-7 -40,13 1,68 50,68 17,0 38,4 48,9 9,5 28,13 42,19 24,9 24,10 -13,17 -21,4 -57,2 -83,-4 -32,-8 -50,-9 -58,-1 -7,5 -16,7 -20,3 -3,-4 -16,4 -27,16 -25,26 -60,41 -97,41 -26,0 -26,-1 11,-25 z M 388,792 c 2,-7 -3,-10 -12,-6 -12,5 -15,2 -10,-12 5,-16 4,-16 -5,-4 -6,8 -11,20 -11,27 0,14 33,10 38,-5 z M 185,570 c 3,-5 18,-7 33,-4 20,4 33,0 46,-15 24,-26 19,-32 -32,-34 -40,-1 -65,12 -82,43 -6,12 -4,16 11,17 10,1 21,-2 24,-7 z" />
    <path
       style="fill:#050914;fill-opacity:1"
       id="path1285"
       d="m 143,946 c -25,-12 -43,-28 -43,-38 0,-22 16,-23 27,-3 5,8 26,24 46,34 21,11 31,21 24,24 -6,2 -31,-5 -54,-17 z" />
    <path
       style="fill:#050914;fill-opacity:1"
       id="path1287"
       d="m 0,934 c 0,-14 3,-14 15,-4 19,16 19,20 0,20 -8,0 -15,-7 -15,-16 z" />
    <path
       style="fill:#050914;fill-opacity:1"
       id="path1289"
       d="m 554,925 c -4,-8 -14,-15 -24,-15 -11,0 -22,-4 -25,-10 -3,-6 4,-10 18,-10 16,0 28,8 35,25 6,14 9,25 6,25 -2,0 -7,-7 -10,-15 z" />
    <path
       style="fill:#050914;fill-opacity:1"
       id="path1291"
       d="m 144,868 c -4,-6 -2,-14 4,-16 13,-4 17,-43 5,-40 -14,3 -63,-14 -63,-22 0,-11 83,-19 95,-9 5,6 4,14 -3,21 -14,14 -16,62 -3,53 5,-3 13,0 17,6 4,8 3,9 -4,5 -7,-4 -12,-2 -12,3 0,15 -27,14 -36,-1 z m 30,-73 c 2,-7 -6,-10 -26,-7 -17,3 -25,8 -19,12 18,10 40,8 45,-5 z" />
    <path
       style="fill:#050914;fill-opacity:1"
       id="path1293"
       d="m 0,836 c 0,-24 5,-36 14,-36 7,0 19,-7 26,-15 25,-30 31,-14 8,26 -34,62 -48,69 -48,25 z" />
    <path
       style="fill:#050914;fill-opacity:1"
       id="path1295"
       d="m 427,857 c 28,-47 82,-97 106,-97 30,0 75,-49 84,-91 3,-16 9,-29 13,-29 4,0 26,18 48,40 31,31 47,40 75,40 22,0 37,6 41,15 3,8 31,27 63,42 l 58,28 -50,3 c -37,2 -66,-4 -106,-22 -41,-18 -59,-22 -67,-14 -8,8 -15,8 -24,0 -10,-8 -24,-2 -58,24 -66,51 -115,74 -155,74 -27,0 -34,-3 -28,-13 z" />
    <path
       style="fill:#050914;fill-opacity:1"
       id="path1297"
       d="m 1061,844 c -13,-10 -32,-14 -47,-10 -14,4 -24,2 -24,-4 0,-5 9,-10 19,-10 11,0 22,-4 26,-9 3,-5 17,1 32,15 31,28 27,41 -6,18 z" />
    <path
       style="fill:#050914;fill-opacity:1"
       id="path1299"
       d="m 305,708 -20,-21 23,6 c 12,3 20,1 16,-4 -3,-5 5,-9 17,-9 19,0 20,2 8,17 -8,9 -13,19 -11,22 9,15 -15,7 -33,-11 z" />
    <path
       style="fill:#050914;fill-opacity:1"
       id="path1301"
       d="m 820,660 c 18,-12 50,-13 50,-2 0,4 -15,9 -32,10 -25,2 -29,0 -18,-8 z" />
    <path
       style="fill:#050914;fill-opacity:1"
       id="path1303"
       d="m 1546,410 c -20,-23 -46,-60 -58,-84 -13,-27 -26,-42 -34,-39 -7,2 -17,-5 -24,-16 -9,-18 -20,-21 -68,-21 -64,0 -113,-12 -150,-36 -19,-13 -22,-18 -11,-25 8,-5 27,-9 42,-9 16,0 37,-5 48,-11 16,-8 25,-7 38,5 24,22 79,20 117,-3 33,-20 48,-17 50,12 0,9 1,30 2,46 1,15 13,40 27,55 14,15 25,36 25,47 0,12 7,35 16,52 32,61 34,67 25,67 -5,0 -25,-18 -45,-40 z" />
    <path
       style="fill:#050914;fill-opacity:1"
       id="path1305"
       d="m 327,411 c -16,-10 -39,-16 -55,-14 -24,4 -24,2 7,-12 19,-8 34,-14 35,-13 1,2 12,15 25,31 29,32 26,34 -12,8 z" />
    <path
       style="fill:#050914;fill-opacity:1"
       id="path1307"
       d="m 500,351 c 0,-16 -32,-22 -48,-9 -12,10 -16,10 -19,1 -3,-7 -18,-13 -34,-13 -31,0 -107,-58 -79,-60 64,-5 83,-3 92,8 15,18 36,15 66,-9 27,-21 27,-21 30,-1 3,19 66,59 85,54 14,-4 7,7 -12,17 -27,15 -81,23 -81,12 z" />
    <path
       style="fill:#050914;fill-opacity:1"
       id="path1309"
       d="m 1124,350 c -12,-5 -25,-14 -29,-20 -6,-9 -2,-9 14,-1 12,7 25,9 30,7 5,-3 11,1 15,9 6,17 1,18 -30,5 z" />
    <path
       style="fill:#050914;fill-opacity:1"
       id="path1311"
       d="m 710,321 c 0,-6 8,-12 18,-13 9,0 22,-2 28,-2 6,-1 18,-6 25,-12 8,-6 27,-8 43,-5 26,5 27,8 13,19 -21,18 -127,29 -127,13 z" />
    <path
       style="fill:#050914;fill-opacity:1"
       id="path1313"
       d="m 180,294 c 0,-6 9,-23 20,-37 11,-14 20,-31 20,-39 0,-10 13,-12 51,-9 51,3 52,20 2,21 -12,0 -38,17 -57,38 -20,20 -36,32 -36,26 z" />
    <path
       style="fill:#050914;fill-opacity:1"
       id="path1315"
       d="m 71,266 c -13,-7 -33,-11 -45,-9 -12,2 -9,-2 9,-10 17,-8 30,-14 30,-13 0,1 9,11 19,24 22,25 20,26 -13,8 z" />
    <path
       style="fill:#050914;fill-opacity:1"
       id="path1317"
       d="m 1054,269 c -3,-5 -9,-7 -13,-5 -11,7 -84,-14 -77,-22 10,-9 46,-10 52,0 3,5 12,4 19,-2 10,-9 20,-7 39,5 14,10 26,19 26,20 0,8 -41,12 -46,4 z" />
    <path
       style="fill:#050914;fill-opacity:1"
       id="path1319"
       d="M 13,173 C 5,170 0,150 0,123 0,84 2,79 15,90 c 8,6 19,9 24,6 5,-4 12,-2 16,4 3,5 15,10 26,10 10,0 19,5 19,10 0,7 -15,9 -39,5 l -40,-6 9,31 c 9,30 6,33 -17,23 z" />
    <path
       style="fill:#050914;fill-opacity:1"
       id="path1321"
       d="m 1043,136 c 7,-14 20,-29 29,-32 9,-3 23,-21 30,-40 12,-34 13,-34 72,-34 h 60 l -34,35 c -39,40 -103,80 -143,90 -25,7 -26,6 -14,-19 z" />
    <path
       style="fill:#050914;fill-opacity:1"
       id="path1323"
       d="m 1530,143 c 0,-4 11,-21 25,-37 14,-16 25,-36 25,-45 0,-12 3,-12 12,-3 7,7 29,12 50,12 21,0 38,5 38,10 0,6 -18,10 -40,10 -28,0 -45,6 -58,21 -20,24 -52,43 -52,32 z" />
    <path
       style="fill:#050914;fill-opacity:1"
       id="path1325"
       d="m 536,123 c 22,-16 26,-16 47,0 15,10 11,12 -24,13 -36,0 -39,-2 -23,-13 z" />
    <path
       style="fill:#050914;fill-opacity:1"
       id="path1327"
       d="m 853,113 c -26,-5 -28,-13 -10,-33 10,-12 9,-12 -5,-1 -15,11 -21,10 -40,-6 -39,-31 -33,-43 21,-43 48,0 70,17 55,41 -3,5 -1,9 3,9 5,0 14,9 21,20 13,21 7,23 -45,13 z" />
    <path
       style="fill:#050914;fill-opacity:1"
       id="path1329"
       d="m 260,102 c 0,-6 9,-14 20,-17 27,-9 25,-19 -7,-35 -24,-12 -25,-14 -9,-18 10,-2 30,2 43,9 19,10 28,10 43,1 23,-14 136,-16 144,-3 3,5 22,12 43,16 27,5 33,9 22,16 -21,13 -66,11 -97,-5 -35,-18 -60,-15 -107,13 -45,26 -95,38 -95,23 z" />
    <path
       style="fill:#050914;fill-opacity:1"
       id="path1331"
       d="M 0,51 C 0,39 6,30 15,30 c 8,0 15,3 15,6 0,3 -7,12 -15,20 C 2,70 0,69 0,51 Z" />
    <path
       style="fill:#050914;fill-opacity:1"
       id="path1333"
       d="m 108,33 c 6,-2 18,-2 25,0 6,3 1,5 -13,5 -14,0 -19,-2 -12,-5 z" />
  </g>
</svg>
