<?xml version="1.0" encoding="UTF-8" standalone="no"?>
<svg
   xmlns:dc="http://purl.org/dc/elements/1.1/"
   xmlns:cc="http://creativecommons.org/ns#"
   xmlns:rdf="http://www.w3.org/1999/02/22-rdf-syntax-ns#"
   xmlns:svg="http://www.w3.org/2000/svg"
   xmlns="http://www.w3.org/2000/svg"
   xmlns:sodipodi="http://sodipodi.sourceforge.net/DTD/sodipodi-0.dtd"
   xmlns:inkscape="http://www.inkscape.org/namespaces/inkscape"
   inkscape:version="1.0 (1.0+r73+1)"
   sodipodi:docname="batGeo.svg"
   id="svg2112"
   preserveAspectRatio="xMidYMid meet"
   viewBox="0 0 1000.000000 1080.000000"
   height="1080.000000pt"
   width="1000.000000pt"
   version="1.0">
  <metadata
     id="metadata2118">
    <rdf:RDF>
      <cc:Work
         rdf:about="">
        <dc:format>image/svg+xml</dc:format>
        <dc:type
           rdf:resource="http://purl.org/dc/dcmitype/StillImage" />
        <dc:title></dc:title>
      </cc:Work>
    </rdf:RDF>
  </metadata>
  <defs
     id="defs2116" />
  <sodipodi:namedview
     inkscape:current-layer="svg2112"
     inkscape:window-maximized="1"
     inkscape:window-y="27"
     inkscape:window-x="67"
     inkscape:cy="810.93299"
     inkscape:cx="666.66667"
     inkscape:zoom="0.60972222"
     showgrid="false"
     id="namedview2114"
     inkscape:window-height="1025"
     inkscape:window-width="1853"
     inkscape:pageshadow="2"
     inkscape:pageopacity="0"
     guidetolerance="10"
     gridtolerance="10"
     objecttolerance="10"
     borderopacity="1"
     bordercolor="#666666"
     pagecolor="#ffffff" />
  <path
     d="m 309.8157,171.12727 c -5.21669,1.04333 -22.11874,3.75601 -37.56014,6.26002 -15.44138,2.50401 -29.63077,5.00801 -31.30011,5.21669 -1.66934,0.41732 -8.9727,1.25199 -16.0674,2.08666 -11.47671,1.25201 -18.78006,4.79936 -65.73024,31.09146 l -52.79287,29.63077 -24.62275,39.22948 c -13.563388,21.70142 -24.205425,40.69015 -23.579426,42.15082 0.83467,2.29534 10.433367,-1.66934 39.229482,-16.06738 l 38.186144,-19.19741 33.3868,3.54734 c 18.36273,1.87801 36.09946,3.96469 39.43814,4.59069 l 5.84268,1.252 -1.25199,15.02406 c -0.62602,8.13803 -1.87801,20.65807 -2.50401,27.75277 -1.25201,11.89405 -1.04334,13.14605 2.71266,13.14605 2.08668,0 22.53609,-4.17335 45.48952,-9.18137 22.95341,-5.00802 42.35949,-8.76403 42.98549,-8.3467 0.83467,0.41734 2.08666,7.30336 2.92133,15.4414 0.83467,8.13803 2.08669,15.02406 2.92135,15.44138 0.83467,0.626 15.02406,1.66934 31.50879,2.29534 16.69339,0.62601 30.46544,1.66934 30.88278,2.08668 0.41733,0.41733 1.252,4.59068 1.87801,9.18137 0.626,4.79935 1.878,9.18137 2.71267,9.5987 1.04334,0.626 10.22471,-3.33868 20.86675,-8.55537 10.43337,-5.21668 19.61474,-8.9727 20.44941,-8.3467 0.626,0.83467 7.09469,17.52807 13.98072,37.14282 7.09469,19.8234 13.77205,36.09946 14.81539,36.5168 1.25199,0.41733 13.98071,-12.93739 28.58743,-29.63079 l 26.2921,-30.25677 15.02406,16.6934 c 8.3467,9.18136 15.85873,16.69339 16.6934,16.69339 0.83467,0 3.75601,-4.17335 6.26001,-9.18137 l 4.59069,-9.18136 15.85872,5.84269 c 8.76404,3.13 21.07542,7.72068 27.33545,10.22469 6.26001,2.50401 12.93737,4.38202 14.60671,4.38202 1.66934,0 6.46869,-6.05136 10.22471,-13.56337 3.96468,-7.51203 7.72069,-13.56339 8.3467,-13.56339 0.626,0 18.36273,11.47671 39.22947,25.45742 21.07541,13.77206 38.81215,24.62277 39.43815,23.99676 0.83467,-0.626 4.79935,-12.72871 9.18137,-26.9181 5.63402,-18.5714 8.55537,-25.66609 10.85071,-25.45743 1.66934,0.20867 18.57139,4.17335 37.35147,9.18137 39.02081,10.01603 31.71745,5.00801 73.6596,50.70618 11.26805,12.52005 21.49275,21.70142 22.32742,20.86675 1.04334,-1.04334 -2.08667,-22.32741 -6.88602,-47.57618 l -8.76404,-45.90683 -37.56014,-46.11551 -37.7688,-46.32417 -50.70619,-29.63077 c -27.96144,-16.27607 -51.9582,-29.21345 -53.2102,-28.58745 -1.46067,0.626 -10.22471,15.02406 -19.82341,32.13479 l -17.31939,31.30012 -32.34345,14.18939 -32.55213,14.18938 -22.11875,-0.41734 c -12.31138,-0.20867 -22.74475,-0.83467 -23.16209,-1.46067 -0.41733,-0.41734 1.25201,-3.13 3.96468,-5.84268 4.17335,-4.59069 4.59069,-6.46869 3.33868,-16.48473 -1.46067,-10.22471 -0.626,-13.56339 7.92937,-35.05613 5.21669,-12.93739 9.5987,-24.4141 9.5987,-25.45743 0,-2.92135 -7.30336,-0.83467 -30.88278,9.18136 l -21.49275,8.97271 -18.15407,-18.15407 c -10.01604,-10.01603 -19.40606,-18.15407 -20.86675,-18.15407 -1.87799,0 -2.504,6.88602 -2.504,26.08343 0,23.99676 -0.41733,27.12676 -5.42535,36.93413 -5.00802,10.01604 -5.42536,12.72872 -1.87801,20.86675 1.04334,2.92135 -2.29534,2.29535 -20.03208,-3.54734 l -21.28407,-6.88603 -25.87477,-25.87476 c -22.74475,-22.74476 -26.08343,-26.91811 -26.9181,-34.22147 -2.50401,-20.65807 -7.30336,-56.54888 -8.13803,-60.93088 -1.252,-5.00802 -3.75601,-5.42536 -19.82341,-2.50401 z m 17.73674,35.26479 c 2.08667,16.27607 3.33868,30.04811 2.50401,30.67411 -0.62601,0.83467 -5.42536,-0.41733 -10.22471,-2.71267 -5.00802,-2.29535 -27.96143,-12.31138 -51.12352,-22.53608 -23.37075,-10.22471 -42.35949,-19.19741 -42.35949,-19.82341 0,-1.04334 16.06739,-3.75602 43.82016,-7.7207 3.96468,-0.41734 17.11073,-2.504 29.21345,-4.59069 12.1027,-1.87799 22.53608,-3.33867 23.16208,-3.13 0.626,0.41734 2.92134,13.77205 5.00802,29.83944 z m -79.5023,3.54735 c 47.78485,20.86674 78.45896,34.84746 77.83296,35.47346 -1.25201,1.46067 -104.33373,46.74151 -104.75106,46.32417 -1.04334,-1.04333 -6.26003,-95.56969 -5.42536,-95.56969 0.41734,0 15.02406,6.26003 32.34346,13.77206 z m -34.6388,83.25831 c -0.83467,0.626 -69.27758,-7.51203 -70.32092,-8.55537 -0.41734,-0.41734 0.20867,-1.87801 1.252,-3.33868 1.04334,-1.46067 16.0674,-20.4494 33.17812,-42.35949 l 31.09146,-39.64681 2.71268,46.7415 c 1.46067,25.66611 2.50401,46.74151 2.08666,47.15885 z m -18.78006,-87.22299 c -1.66934,2.08667 -15.02406,19.19741 -29.83944,38.18614 -14.60673,18.98874 -27.33544,35.26479 -28.37878,36.30813 -1.46067,1.66934 -19.61474,-23.78808 -21.07541,-29.63077 -0.41733,-1.87801 77.83296,-48.20218 81.58897,-48.41085 0.41733,0 -0.626,1.66934 -2.29534,3.54735 z m 277.94503,53.2102 c 0,0.83467 -3.96468,2.50401 -8.55537,3.75601 -4.79935,1.25201 -10.8507,3.33868 -13.56338,4.17335 l -5.00801,2.08668 v -17.94541 -17.73673 l 13.56338,12.10271 c 7.51202,6.67736 13.56338,12.72872 13.56338,13.56339 z m 230.16019,5.84269 41.31615,23.99675 -16.27606,1.252 c -8.97269,0.83467 -35.47346,2.08668 -58.84421,2.92135 l -42.56816,1.66934 5.21668,-9.18137 c 2.92134,-5.00802 9.80737,-17.52806 15.44139,-27.5441 5.42536,-10.01604 11.05938,-17.94541 12.31138,-17.73674 1.25201,0.41734 20.86674,11.47671 43.40283,24.62277 z m -180.08,-16.0674 c 0,1.87801 -11.05938,27.75278 -12.31138,29.21344 -0.83467,0.83467 -6.46869,-2.29533 -12.52005,-7.0947 l -11.05937,-8.76402 16.27606,-6.88603 c 15.85872,-6.67736 19.61474,-7.92936 19.61474,-6.46869 z m -196.98207,16.48473 c -2.71268,7.30335 -8.76403,24.62275 -13.56339,38.60348 l -8.97269,25.45742 -9.80737,-3.96468 c -32.96945,-13.14604 -62.39157,-26.2921 -62.8089,-27.96144 -0.41734,-1.878 92.02234,-44.44616 97.44769,-44.8635 1.66934,-0.20866 1.04334,4.17335 -2.29534,12.72872 z m 44.44617,17.73673 c 13.14605,12.72871 13.14605,12.93738 8.34669,15.23272 -2.71267,1.04334 -18.5714,8.13804 -35.26479,15.4414 -16.6934,7.30335 -30.46545,12.93737 -30.88279,12.72871 -0.626,-0.62601 17.73674,-54.87953 23.78809,-70.5296 1.46068,-4.17335 1.87801,-3.96468 34.0128,27.12677 z M 118.67633,269.20097 c 5.21668,7.92935 9.5987,15.44138 9.5987,16.69338 0,1.04334 -13.35471,8.76404 -29.630785,16.90207 -24.205425,12.10272 -29.004774,13.98071 -26.500764,9.80737 1.87801,-2.50401 10.642037,-16.6934 19.614746,-31.50879 8.972703,-14.60671 16.484723,-26.50076 16.693393,-26.50076 0.20867,0 4.79936,6.46869 10.22471,14.60673 z m 357.02999,0.41733 c -0.41733,1.46066 -3.33868,16.27605 -6.46869,32.55212 l -5.63402,30.04811 -10.22471,-10.22471 c -5.63402,-5.42534 -12.1027,-13.56338 -14.39804,-17.73673 l -3.96469,-7.92936 5.21669,-10.43338 c 4.79934,-9.5987 6.05135,-10.64204 18.15406,-14.39804 15.65006,-5.00802 18.57141,-5.21669 17.3194,-1.87801 z m 23.37075,11.4767 c 7.7207,6.88603 9.18137,9.39004 10.22471,18.57141 l 1.252,10.64204 -9.80737,7.51203 c -9.39002,7.30335 -27.33543,15.65005 -29.21344,13.56338 -0.83467,-0.83467 8.3467,-53.41887 10.43338,-59.67888 1.252,-3.54735 5.42535,-1.04334 17.11072,9.39002 z m 251.02694,17.11074 c 0,1.46067 -37.35147,83.67564 -39.02081,85.55365 -0.41733,0.626 -18.98874,-17.73674 -41.10748,-40.69015 -22.32743,-22.74476 -40.27283,-41.73349 -40.27283,-41.73349 0.41735,-0.20867 83.67565,-3.75602 109.55041,-4.59069 5.84269,-0.20866 10.85071,0.41734 10.85071,1.46068 z m -490.9945,20.24073 c 18.78008,7.7207 33.59547,14.39806 33.3868,14.60673 -0.41734,0.626 -66.77359,15.23272 -72.40761,16.06739 -1.66934,0.20867 -2.92133,-1.04333 -2.71268,-2.71267 0.20867,-1.66934 0.83467,-12.31139 1.66934,-23.57943 1.04334,-14.18938 2.29535,-20.24074 3.75602,-19.61473 1.46067,0.626 17.73673,7.30336 36.30813,15.23271 z m 117.89711,18.57141 -5.84269,29.00477 -29.00477,-0.62599 c -16.06739,-0.20867 -29.42211,-0.83467 -29.63078,-1.04334 -0.20867,-0.20868 -0.83467,-6.88603 -1.04334,-14.81539 l -0.626,-14.18939 34.0128,-15.02406 c 18.5714,-8.34669 34.63879,-15.85872 35.47346,-16.69339 3.13001,-3.13001 2.29534,5.42536 -3.33868,33.38679 z m 38.81215,-27.5441 c 10.64204,3.96468 19.40607,7.92937 19.40607,8.97269 0,1.04334 -4.59068,12.31138 -10.01604,25.24877 l -9.80737,23.16208 -16.90207,8.55537 c -9.18136,4.79935 -17.31939,8.55536 -17.94539,8.55536 -3.54735,0 -3.54735,-14.60672 0.20867,-32.96945 9.80737,-49.45418 9.5987,-48.41085 12.93738,-48.41085 1.46066,0 11.4767,3.13002 22.11875,6.88603 z m 200.52941,13.35471 c -0.20867,10.22471 -0.83467,27.96144 -1.66934,39.85549 l -1.252,21.28407 -27.12678,-26.91809 c -14.81538,-15.02406 -26.50076,-27.54411 -26.08342,-28.17011 1.46067,-1.25201 52.79286,-23.78809 54.87954,-23.99675 0.83467,-0.20867 1.252,7.92936 1.252,17.94539 z m 156.29191,34.0128 c 8.13803,26.9181 14.60672,49.03685 14.39806,49.45419 -0.62601,0.41733 -68.44292,-17.52807 -69.27759,-18.57141 -0.41733,-0.41734 7.92937,-19.19741 18.36273,-41.94216 10.43337,-22.53607 19.61474,-40.48148 20.44941,-39.64681 0.83467,1.04334 8.13804,23.78808 16.06739,50.70619 z m -108.08973,-9.39004 c 21.07541,21.07541 37.97747,38.81215 37.56014,39.43815 -0.626,0.41733 -19.19741,1.252 -41.52482,1.66934 l -40.48148,0.83467 1.46067,-26.29209 c 0.626,-14.39806 1.252,-32.34347 1.252,-40.27283 0,-7.72069 0.62601,-13.98071 1.66934,-13.98071 0.83467,0 18.78007,17.31939 40.06415,38.60347 z m 129.37381,-4.17335 c 13.98073,17.11074 27.33544,33.17812 29.42211,35.68213 3.96468,4.17335 3.75601,4.38202 -11.89405,15.23273 -8.55535,6.05136 -16.27605,10.64204 -16.69339,10.01604 -1.46067,-1.252 -27.96143,-88.68366 -27.96143,-91.81367 0,-1.25201 0.41734,-1.66934 0.83466,-1.25201 0.41735,0.41734 12.31138,14.81538 26.2921,32.13478 z m -333.03324,4.17335 c -0.626,4.59069 -1.46067,8.55537 -1.878,8.97271 -0.62601,0.626 -21.07541,5.84269 -29.42211,7.30336 l -6.46869,1.25199 9.39003,-21.70141 9.39004,-21.49275 10.2247,8.55537 c 9.80737,8.3467 10.01604,9.18137 8.76403,17.11073 z m 84.92765,-15.65006 c 3.54735,2.29534 -7.09468,66.35625 -12.52004,75.32896 l -3.75601,6.26001 -13.98073,-15.23272 -13.77205,-15.23272 v -26.70943 -26.70944 l 20.65808,0.41733 c 11.26805,0.20867 21.91008,1.04334 23.37075,1.87801 z m -51.12351,2.71268 c 0.41732,1.46067 0.62599,11.89405 0.41732,22.95342 l -0.626,20.24074 -14.39805,-9.59869 -14.18939,-9.59871 1.25201,-8.55537 c 0.83467,-4.79935 1.66934,-8.76403 1.878,-8.76403 3.33868,-1.87801 21.70141,-9.18137 22.95343,-9.39004 0.83466,0 2.08666,1.25201 2.71268,2.71268 z m 90.35299,31.09146 27.75277,28.58743 -6.88602,12.10272 c -3.75602,6.67736 -6.88603,12.31137 -7.0947,12.52003 0,0.20867 -12.31138,-4.17333 -27.12676,-9.80736 -17.3194,-6.46869 -26.91811,-11.05937 -26.70944,-12.93738 3.13001,-22.74476 10.01604,-60.09623 10.85071,-59.67889 0.626,0.41733 13.77205,13.56338 29.21344,29.21345 z M 454.63091,379.7947 c -1.46067,7.92937 -4.17335,23.1621 -6.26003,33.59546 -1.87799,10.43337 -4.17335,18.15407 -5.00802,17.11073 -1.87799,-2.29534 -21.0754,-57.38354 -20.24073,-58.21821 1.252,-1.25201 25.24875,-6.67735 29.83944,-6.88602 4.38202,-0.20867 4.38202,0 1.66934,14.39804 z m 25.6661,-3.75601 c 7.09469,5.00802 12.72872,9.5987 12.52004,10.43337 -0.83466,2.71268 -39.85548,47.36751 -40.69015,46.74151 -0.626,-0.83467 9.18137,-54.87954 11.26804,-62.39157 0.626,-1.87799 1.66934,-3.54733 2.50401,-3.54733 0.83467,0 7.30336,3.96467 14.39806,8.76402 z m 355.56932,47.99351 c 3.33868,17.52807 6.05136,33.17812 6.05136,34.63881 0,1.46067 -9.80738,-8.3467 -21.91009,-21.70142 -12.1027,-13.35472 -21.28407,-25.04009 -20.4494,-25.87476 5.63402,-5.00802 28.58743,-20.65808 29.4221,-19.82341 0.41734,0.41733 3.54735,15.23272 6.88603,32.76078 z M 706.28385,395.8621 c 0,3.33868 -10.85071,39.22948 -12.52005,40.89882 -0.83467,1.04334 -15.65006,-7.7207 -32.96945,-19.19741 -24.4141,-16.06739 -30.46546,-21.07541 -26.91811,-21.49274 9.80737,-1.66934 72.40761,-1.87801 72.40761,-0.20867 z"
     id="path2080"
     style="fill:#5e918c;stroke:none;stroke-width:0.208667;fill-opacity:1;opacity:0.5" />
</svg>
