<?xml version="1.0" encoding="UTF-8" standalone="no"?>
<svg
   xmlns:dc="http://purl.org/dc/elements/1.1/"
   xmlns:cc="http://creativecommons.org/ns#"
   xmlns:rdf="http://www.w3.org/1999/02/22-rdf-syntax-ns#"
   xmlns:svg="http://www.w3.org/2000/svg"
   xmlns="http://www.w3.org/2000/svg"
   xmlns:sodipodi="http://sodipodi.sourceforge.net/DTD/sodipodi-0.dtd"
   xmlns:inkscape="http://www.inkscape.org/namespaces/inkscape"
   sodipodi:docname="coliber.svg"
   inkscape:version="1.0 (1.0+r73+1)"
   id="svg1142"
   version="1.1"
   viewBox="0 0 210 297"
   height="297mm"
   width="210mm">
  <defs
     id="defs1136" />
  <sodipodi:namedview
     inkscape:window-maximized="1"
     inkscape:window-y="27"
     inkscape:window-x="67"
     inkscape:window-height="1025"
     inkscape:window-width="1853"
     showgrid="false"
     inkscape:document-rotation="0"
     inkscape:current-layer="layer1"
     inkscape:document-units="mm"
     inkscape:cy="560"
     inkscape:cx="400"
     inkscape:zoom="0.35"
     inkscape:pageshadow="2"
     inkscape:pageopacity="0.0"
     borderopacity="1.0"
     bordercolor="#666666"
     pagecolor="#ffffff"
     id="base" />
  <metadata
     id="metadata1139">
    <rdf:RDF>
      <cc:Work
         rdf:about="">
        <dc:format>image/svg+xml</dc:format>
        <dc:type
           rdf:resource="http://purl.org/dc/dcmitype/StillImage" />
        <dc:title></dc:title>
      </cc:Work>
    </rdf:RDF>
  </metadata>
  <g
     id="layer1"
     inkscape:groupmode="layer"
     inkscape:label="Warstwa 1">
    <path
       style="fill:#5e9189;stroke:none;stroke-width:0.0352778;fill-opacity:1"
       id="path1276"
       d="m 49.285575,62.618055 -3.457222,2.504723 -1.164167,4.303888 c -1.128889,4.198056 -1.164167,4.480278 -1.27,12.417778 l -0.07056,8.113889 2.928055,9.136945 c 3.280833,10.265832 6.491111,19.085282 9.419167,25.823332 1.058333,2.46944 1.940278,4.79778 1.940278,5.11528 0,0.35277 0.141111,0.67027 0.282222,0.74083 0.176389,0.0353 2.822222,5.08 5.926666,11.1125 l 5.573889,11.04194 -2.786944,9.77195 -2.822222,9.80722 0.564444,13.93472 0.599722,13.93473 5.362223,17.88583 c 2.963333,9.87778 5.503333,17.92111 5.609166,17.92111 0.105834,0 2.116667,-3.03389 4.480278,-6.70278 l 4.268611,-6.70278 0.987778,-6.20888 0.987778,-6.17362 2.575277,-1.94027 c 2.151945,-1.5875 2.610556,-2.08139 2.610556,-2.89278 0,-0.52917 -0.3175,-6.10306 -0.705556,-12.41778 -0.529166,-8.89 -0.564444,-11.50055 -0.246944,-11.71222 0.529167,-0.3175 17.145,-9.06639 21.73111,-11.46528 l 3.35139,-1.69333 5.57389,-9.63084 5.60917,-9.63083 3.175,-9.17222 c 1.72861,-5.04472 3.45722,-9.98361 3.80999,-10.93611 0.88194,-2.32834 3.66888,-6.0325 8.00805,-10.72444 l 3.59834,-3.91584 10.54806,-1.34055 c 5.78556,-0.70556 11.14778,-1.41111 11.92389,-1.55223 0.91722,-0.14111 -2.82222,-0.52916 -10.61861,-1.12888 l -12.02972,-0.91723 -3.66889,-2.18722 c -2.01084,-1.19944 -5.64445,-3.66889 -8.04334,-5.46805 l -4.37444,-3.280838 -8.92528,1.622778 c -4.93889,0.91722 -9.03111,1.69333 -9.10167,1.79917 -0.0705,0.0706 -1.41111,2.15194 -2.99861,4.58611 l -2.85749,4.445 v 4.58611 4.62139 l -3.88056,1.62278 c -2.116664,0.88194 -4.021664,1.62277 -4.233331,1.62277 -0.176388,0 -6.103055,-7.19666 -13.123333,-15.98083 L 71.545853,91.369444 62.161964,75.776666 52.778075,60.148611 Z m 5.362222,7.655278 c 1.27,4.056945 2.434167,7.478889 2.54,7.690556 0.423334,0.846666 -0.776111,-0.670278 -4.691944,-5.820834 -2.293056,-2.998611 -4.303889,-5.644444 -4.480278,-5.891389 -0.211667,-0.282222 0.3175,-0.846666 1.693333,-1.834444 1.128889,-0.811389 2.151945,-1.446389 2.293056,-1.446389 0.176389,0 1.340555,3.280833 2.645833,7.3025 z m -2.892778,3.598333 c 2.434167,3.210278 4.374445,5.856112 4.303889,5.926667 -0.282222,0.282222 -10.830277,-5.997222 -10.689166,-6.35 0.07055,-0.246944 0.423333,-1.658055 0.776111,-3.175 0.388055,-1.481667 0.776111,-2.610555 0.917222,-2.469444 0.141111,0.176389 2.257778,2.892777 4.691944,6.067777 z m 6.596945,-1.305277 c 2.257778,3.704166 2.434167,4.374444 1.658055,6.279444 -0.458611,1.093611 -0.493888,0.987778 -2.293055,-4.374444 -0.987778,-3.033889 -1.763889,-5.503334 -1.693333,-5.503334 0.07055,0 1.128888,1.622778 2.328333,3.598334 z m -6.914445,6.702777 c 3.210278,1.799167 5.715,3.351389 5.538612,3.4925 -0.141112,0.105834 -2.681112,0.881945 -5.679723,1.728612 -2.998611,0.811388 -5.679722,1.552222 -5.926666,1.658055 -0.352778,0.141111 -0.458611,-0.881944 -0.458611,-4.974167 0,-3.386666 0.141111,-5.150555 0.388055,-5.150555 0.176389,0 2.963333,1.446389 6.138333,3.245555 z M 65.866131,85.09 l 3.386666,5.679722 v 2.928056 2.928055 l -4.268611,-6.808611 c -3.880555,-6.244167 -4.233333,-6.949722 -4.021667,-8.043333 0.352778,-1.905 0.881945,-3.069167 1.199445,-2.716389 0.141111,0.176389 1.799167,2.892778 3.704167,6.0325 z m -7.373056,1.234722 c -0.141111,1.234722 -0.3175,2.293056 -0.388056,2.363611 -0.07055,0.07056 -2.398888,-0.246944 -5.150555,-0.670278 -2.751667,-0.458611 -4.868333,-0.881944 -4.656667,-0.9525 1.093611,-0.352777 9.877778,-2.892777 10.124722,-2.892777 0.176389,-0.03528 0.211667,0.9525 0.07056,2.151944 z m 4.268611,2.998611 c 1.305278,2.116667 2.610556,4.198056 2.928056,4.691945 0.529166,0.846666 0.529166,0.881944 -0.141111,0.352777 -0.388056,-0.282222 -1.799167,-1.446389 -3.175,-2.610555 -1.340556,-1.164167 -2.504723,-2.151945 -2.54,-2.151945 -0.105834,-0.03528 0.3175,-4.056944 0.458611,-4.056944 0.03528,0 1.164166,1.693333 2.469444,3.774722 z m -11.500555,0.105833 c 2.398888,0.423334 4.445,0.811389 4.550833,0.881945 0.141111,0.176389 -8.396111,4.409722 -8.854722,4.409722 -0.246945,0 -2.046111,-5.468055 -2.046111,-6.138333 0,-0.141111 0.423333,-0.176389 0.987777,-0.07056 0.529167,0.105834 2.928056,0.529167 5.362223,0.917222 z m 7.196666,2.716389 c 0.776111,3.951111 0.987778,5.432778 0.811389,5.609167 -0.176389,0.176389 -8.431389,-1.375833 -9.771944,-1.869722 -0.3175,-0.105834 1.27,-1.093611 3.880555,-2.398889 2.434167,-1.234722 4.515556,-2.257778 4.656667,-2.257778 0.105833,-0.03528 0.3175,0.388056 0.423333,0.917222 z m 6.138334,3.668889 c 2.257777,1.975556 4.162777,3.633611 4.198055,3.668889 0.07056,0.03528 -0.917222,1.446387 -2.187222,3.174997 -2.151945,2.96334 -2.293056,3.06917 -2.610556,2.25778 -0.176389,-0.45861 -0.811389,-1.97555 -1.446389,-3.31611 -0.9525,-2.081389 -2.681111,-9.348611 -2.257777,-9.348611 0.105833,0 2.010833,1.622777 4.303889,3.563055 z m 12.206111,4.727226 c 3.033889,3.81 5.609166,7.12611 5.715,7.37305 0.105833,0.28222 -0.07056,1.02306 -0.388056,1.62278 l -0.599722,1.16417 -0.811389,-0.84667 c -0.423333,-0.45861 -2.786944,-3.03389 -5.256389,-5.67972 l -4.445,-4.868336 v -2.822222 c 0,-1.552222 0.07056,-2.822222 0.141111,-2.822222 0.07056,0 2.610556,3.104444 5.644445,6.87917 z M 52.495853,98.283889 c 2.151944,0.423333 4.021666,0.881944 4.162778,1.023055 0.176388,0.141111 -1.375834,0.846666 -3.421945,1.552226 -3.386667,1.16416 -4.445,1.44639 -4.445,1.16416 0,-0.0353 -0.3175,-1.16416 -0.670278,-2.469441 -0.635,-2.2225 -0.670277,-2.398889 -0.105833,-2.2225 0.3175,0.07055 2.363611,0.493889 4.480278,0.9525 z m 8.925278,4.797781 c 0.635,1.44639 1.093611,2.75166 1.023055,2.82222 -0.07055,0.0706 -2.54,-0.45861 -5.468055,-1.19945 -2.928056,-0.70555 -5.256389,-1.41111 -5.150556,-1.48166 0.282222,-0.28222 7.3025,-2.78695 7.902222,-2.82222 0.3175,-0.0353 0.9525,0.98777 1.693334,2.68111 z m 64.276109,-2.2225 c 0,0.35277 -4.55084,3.73944 -5.04473,3.73944 -0.59972,0 -4.48027,-1.37583 -4.93888,-1.76389 -0.14112,-0.10583 1.94027,-0.635 4.58611,-1.12889 5.75027,-1.09361 5.3975,-1.02305 5.3975,-0.84666 z m 2.82222,3.52777 v 3.31612 l -2.71639,-1.05834 c -1.51694,-0.56444 -2.78694,-1.09361 -2.8575,-1.16416 -0.10583,-0.10584 5.25639,-4.40973 5.50333,-4.40973 0.0353,0 0.0706,1.48167 0.0706,3.31611 z m 7.54944,0.9525 c 0.17639,0.14112 -0.84666,0.59973 -2.25777,1.02306 -1.41112,0.42333 -2.78695,0.84667 -3.03389,0.9525 -0.38806,0.14111 -0.49389,-0.45861 -0.49389,-3.03389 v -3.21028 l 2.75166,1.97556 c 1.48167,1.12889 2.8575,2.11667 3.03389,2.29305 z m -66.674992,2.57528 c 0.246945,6.38528 0.3175,6.27945 -2.434166,2.61056 -0.881945,-1.16417 -1.5875,-2.43417 -1.5875,-2.78695 0,-0.56444 3.527777,-5.78555 3.739444,-5.50333 0.03528,0.0353 0.141111,2.57528 0.282222,5.67972 z m 8.607778,9.56028 c -0.07055,0.0353 -1.516944,-0.3175 -3.245555,-0.84667 -2.257778,-0.67027 -3.210278,-1.12889 -3.421945,-1.62277 -0.141111,-0.38806 -0.282222,-3.175 -0.282222,-6.17362 v -5.46805 l 3.527778,7.02028 c 1.940277,3.84527 3.4925,7.02027 3.421944,7.09083 z m 36.371384,-10.68917 1.44639,2.68111 -0.9525,0.21167 c -0.56445,0.10583 -2.32833,0.28222 -3.95111,0.42333 -2.43417,0.17639 -2.89278,0.14112 -2.64584,-0.24694 1.97556,-3.35139 4.1275,-6.35 4.33917,-6.10306 0.17639,0.17639 0.9525,1.51695 1.76389,3.03389 z M 60.891964,107.315 c 0.529167,0.10583 0.9525,0.3175 0.9525,0.49389 0,0.14111 -1.975556,1.79917 -4.409722,3.63361 -4.233334,3.21028 -4.445,3.35139 -4.727223,2.57528 -0.176388,-0.42334 -0.493888,-1.27 -0.740833,-1.83445 -0.564444,-1.37583 -2.116667,-6.59694 -2.116667,-7.09083 0,-0.24694 1.799167,0.0353 5.044723,0.81139 2.751666,0.67028 5.432777,1.30528 5.997222,1.41111 z m 56.514996,-1.97556 c 1.05833,0.38806 1.94028,0.81139 1.94028,0.9525 0,0.14112 -0.45861,0.77612 -0.98778,1.44639 l -0.98778,1.16417 -1.16417,-2.15194 c -0.635,-1.19945 -1.05833,-2.15195 -0.9525,-2.15195 0.10584,0 1.05834,0.3175 2.15195,0.74083 z m -37.359163,6.27945 c 0.282222,0.42333 0.3175,1.27 0.03528,3.03389 l -0.352778,2.43416 -2.928055,-5.78555 c -1.622778,-3.21028 -2.928056,-5.96195 -2.928056,-6.17361 -0.03528,-0.3175 5.362222,5.32694 6.173611,6.49111 z m 45.966943,-2.96333 c 0.0705,0.10583 -0.3175,0.17638 -0.88195,0.17638 -0.56444,0 -2.11666,0.10584 -3.45722,0.24695 l -2.43417,0.21167 0.98778,-1.27 1.02306,-1.23473 2.29305,0.84667 c 1.27,0.49389 2.36361,0.9525 2.46945,1.02306 z m 14.99305,-0.14112 c 1.65806,0.9525 3.03389,1.905 3.03389,2.04612 0,0.21166 -10.26583,-1.44639 -11.46528,-1.86973 -0.17639,-0.0706 0.91723,-0.52916 2.46945,-1.02305 1.55222,-0.49389 2.8575,-0.88195 2.89278,-0.91722 0,-0.0353 1.41111,0.77611 3.06916,1.76388 z m -76.799715,0.91723 c 0.141111,0.35277 1.164167,1.79916 2.328333,3.21027 1.164167,1.41112 2.046111,2.64584 1.975556,2.71639 -0.07056,0.0706 -3.033889,0 -6.561667,-0.10583 l -6.455833,-0.24694 3.986389,-3.06917 c 2.151944,-1.69333 4.092222,-3.06917 4.233333,-3.06917 0.141111,-0.0353 0.388056,0.24695 0.493889,0.56445 z m 22.330833,3.28083 c 1.940278,2.43417 2.046111,2.64583 1.375834,2.89278 -0.564445,0.21166 -1.199445,-0.14111 -2.963334,-1.69334 l -2.257777,-2.01083 0.529166,-1.02305 c 0.282222,-0.56445 0.705556,-0.98778 0.881945,-0.91723 0.176389,0.0706 1.27,1.30528 2.434166,2.75167 z m 37.147492,2.25778 c -2.11666,2.61055 -3.91583,4.7625 -4.02166,4.7625 -0.21167,0.0353 -1.48167,-8.43139 -1.30528,-8.60778 0.0705,-0.0706 1.69333,-0.24694 3.63361,-0.45861 6.20889,-0.56445 5.99722,-1.05833 1.69333,4.30389 z m 14.81667,-3.45722 c 4.02167,0.70555 5.53861,1.12888 5.53861,1.48166 0,0.45861 -4.51555,5.715 -4.90361,5.715 -0.28222,0 -7.44361,-8.00805 -7.44361,-8.29028 0,-0.14111 0.28222,-0.14111 0.635,-0.0353 0.3175,0.0706 3.10444,0.59973 6.17361,1.12889 z m -21.80167,0.91722 c 0.74084,4.48028 1.09361,7.33778 0.84667,7.26722 -0.14111,-0.0706 -2.25778,-1.79917 -4.69194,-3.88056 l -4.48028,-3.77472 1.51694,-0.17639 c 2.11667,-0.28222 3.77472,-0.45861 5.29167,-0.49389 1.19944,-0.0705 1.30528,0 1.51694,1.05834 z m 14.21695,6.35 c 0.98778,3.84528 1.65805,6.985 1.55222,6.94972 -0.14111,0 -2.89278,-0.91722 -6.13833,-2.01084 l -5.89139,-2.01083 4.1275,-5.18583 c 2.25778,-2.8575 4.23333,-5.08 4.33916,-4.93889 0.10584,0.14111 1.02306,3.38667 2.01084,7.19667 z m 3.73944,-2.36361 3.38667,3.73944 -1.83445,2.43417 c -1.02305,1.34055 -1.905,2.39888 -1.97555,2.29305 -0.17639,-0.17639 -3.175,-12.17083 -3.03389,-12.17083 0.0706,0 1.62278,1.65806 3.45722,3.70417 z m -22.89528,0.67027 c 2.25778,1.905 4.02167,3.52778 3.95112,3.63362 -0.17639,0.14111 -7.97278,-0.81139 -8.18445,-1.02306 -0.21167,-0.24694 -0.35278,-6.27944 -0.10583,-6.20889 0.10583,0.0706 2.08139,1.65806 4.33916,3.59833 z m -27.904713,-1.94027 1.375834,1.41111 -1.234723,0.49389 c -2.716389,1.12889 -2.716389,1.12889 -2.54,-0.35278 0.3175,-2.2225 0.493889,-2.92806 0.776111,-2.92806 0.141112,0 0.881945,0.635 1.622778,1.37584 z m -16.051389,2.75166 c -0.493889,0.56445 -2.716389,3.03389 -4.903611,5.57389 -2.187222,2.50472 -4.092222,4.62139 -4.198055,4.69194 -0.211667,0.0706 -4.621389,-10.40694 -4.621389,-10.97138 0,-0.14111 3.280833,-0.24695 7.3025,-0.24695 h 7.3025 z m 23.036389,0.17639 0.811389,1.16417 -1.340555,-1.02306 c -1.446389,-1.09361 -1.552223,-1.27 -0.811389,-1.27 0.282222,0 0.881944,0.52917 1.340555,1.12889 z m -17.568333,3.10445 c 1.446389,1.83444 2.575278,3.38666 2.504722,3.45722 -0.07055,0.0705 -3.457222,0.98777 -7.549444,2.01083 l -7.408334,1.86972 0.9525,-1.16416 c 3.563056,-4.26861 8.396111,-9.66611 8.607778,-9.59556 0.105833,0.0353 1.411111,1.5875 2.892778,3.42195 z m 2.998611,-2.43417 c 1.481667,0.42333 2.822222,0.88194 2.998611,1.05833 0.3175,0.28223 3.704167,11.35945 3.739445,12.13556 0,0.17639 -1.305278,-1.62278 -2.8575,-4.02167 -1.552223,-2.43417 -3.774723,-5.53861 -4.938889,-6.94972 -1.128889,-1.41111 -2.081389,-2.64583 -2.081389,-2.75167 0,-0.3175 0.282222,-0.28222 3.139722,0.52917 z m 13.864167,1.41111 c 1.622777,1.19945 2.645833,2.08139 2.257777,1.94028 -0.352777,-0.10583 -2.54,-0.81139 -4.833055,-1.51695 -2.293056,-0.70555 -4.092222,-1.37583 -3.986389,-1.48166 0.3175,-0.3175 2.363611,-1.02306 3.033889,-1.05834 0.352778,-0.0353 1.940278,0.9525 3.527778,2.11667 z m -0.352778,2.8575 c 3.069167,1.02305 5.573889,1.94028 5.573889,2.04611 0,0.10583 -0.705556,0.9525 -1.552222,1.94028 l -1.516945,1.72861 -4.303889,-3.77472 c -2.363611,-2.08139 -4.162778,-3.77472 -4.021666,-3.77472 0.141111,0 2.751666,0.84666 5.820833,1.83444 z m 22.507216,-0.91722 c 2.43417,0.3175 4.48028,0.635 4.58611,0.70555 0.17639,0.21167 -8.89,9.31334 -9.24278,9.31334 -0.17638,0 -0.28222,-2.39889 -0.28222,-5.29167 0,-2.92806 0.10584,-5.29167 0.24695,-5.29167 0.14111,0 2.25777,0.24695 4.69194,0.56445 z m -21.378327,7.58472 c 0.176389,0.17639 -0.846667,1.5875 -2.257778,3.13972 -1.799167,2.01083 -2.681111,2.71639 -2.8575,2.39889 -0.105833,-0.24694 -0.987778,-3.06917 -1.869722,-6.27944 -0.917222,-3.21028 -1.763889,-6.13834 -1.869722,-6.49111 -0.105834,-0.38806 1.763888,1.02305 4.162777,3.13972 2.398889,2.11666 4.515556,3.95111 4.691945,4.09222 z m 14.675557,-6.45583 c 0,0.77611 0.10583,3.06916 0.24694,5.18583 0.14111,2.57528 0.10584,3.73944 -0.14111,3.66889 -0.21167,-0.0706 -1.905,-1.72861 -3.73944,-3.70417 l -3.386669,-3.56305 3.245559,-1.44639 c 1.79916,-0.77611 3.35138,-1.44639 3.52777,-1.44639 0.14111,-0.0353 0.24695,0.56444 0.24695,1.30528 z m 21.27249,2.39888 c 3.66889,1.23473 5.89139,2.11667 5.78556,2.39889 -0.0706,0.21167 -1.37583,3.98639 -2.92806,8.39611 -1.51694,4.445 -2.8575,7.83167 -2.99861,7.58473 -0.17639,-0.3175 -4.93889,-15.48695 -6.17361,-19.75556 -0.10583,-0.3175 -0.0705,-0.59972 0.10583,-0.59972 0.14112,0 2.96334,0.88194 6.20889,1.97555 z m -4.86833,8.99584 c 1.79917,5.715 3.21028,10.44222 3.13972,10.51278 -0.0705,0.10583 -16.54528,-10.30112 -17.07444,-10.75973 -0.24695,-0.24694 10.01889,-10.37166 10.37166,-10.26583 0.17639,0.0706 1.79917,4.79778 3.56306,10.51278 z m -16.75694,-0.21167 c 0,0.21167 -2.2225,2.57528 -4.93889,5.29167 -3.527776,3.52778 -4.938887,4.72722 -4.938887,4.23333 0,-0.38805 0.493889,-4.48028 1.128889,-9.10167 l 1.128889,-8.36083 3.809999,3.77472 c 2.08139,2.08139 3.81,3.95111 3.81,4.16278 z m -30.762222,-6.94972 c -0.246944,0.35278 -2.610555,3.28083 -5.221111,6.49111 l -4.727222,5.85611 -0.846667,-1.44639 c -1.5875,-2.78694 -4.021666,-7.69055 -3.915833,-7.79639 0.176389,-0.14111 14.146389,-3.66889 14.710833,-3.70416 0.388056,-0.0353 0.388056,0.0705 0,0.59972 z m 6.314723,4.40972 c 1.763888,2.75167 3.175,5.04472 3.139722,5.11528 -0.07056,0.0353 -3.739445,0.70555 -8.184445,1.48167 -4.445,0.77611 -8.360833,1.48166 -8.678333,1.55222 -0.529167,0.10583 -0.564444,0.0353 -0.176389,-0.45861 1.27,-1.76389 10.301111,-12.73528 10.4775,-12.73528 0.105833,0 1.622778,2.29305 3.421945,5.04472 z m 13.828888,4.445 c -0.635,4.69195 -1.27,8.50195 -1.411111,8.50195 -0.3175,0 -6.314722,-6.87917 -6.314722,-7.23195 0,-0.35278 8.5725,-10.05417 8.748889,-9.91305 0.07056,0.10583 -0.388056,3.98638 -1.023056,8.64305 z m 15.204721,9.31333 c 1.79916,5.00945 3.21027,9.17223 3.10444,9.24278 -0.10583,0.10584 -3.56305,-1.41111 -7.72583,-3.38666 -4.16278,-1.97556 -8.078608,-3.81 -8.748886,-4.09223 l -1.199445,-0.52916 5.432781,-5.43278 c 2.96333,-2.96333 5.50333,-5.29167 5.64444,-5.15056 0.10583,0.14111 1.69333,4.33917 3.4925,9.34861 z m 8.21972,-2.92805 c 3.81,2.43417 6.91444,4.48028 6.91444,4.58611 0,0.35278 -9.45444,7.9375 -9.73666,7.79639 -0.21167,-0.10583 -6.80861,-17.78 -6.80861,-18.30917 0,-0.17639 1.65805,0.84667 9.63083,5.92667 z m -41.204441,2.46944 c -3.316111,3.31611 -6.067777,5.99723 -6.173611,5.99723 -0.282222,0 -4.938889,-8.92528 -4.7625,-9.10167 0.246945,-0.24695 16.545278,-3.13972 16.756945,-2.99861 0.07055,0.0706 -2.54,2.82222 -5.820834,6.10305 z m 12.7,-1.76389 c 1.693334,1.97556 3.033889,3.59834 2.963334,3.66889 -0.9525,0.70556 -7.196667,4.40973 -7.3025,4.26861 -0.246945,-0.24694 0.881944,-11.46527 1.164166,-11.46527 0.07056,0 1.481667,1.5875 3.175,3.52777 z m -5.644444,2.46945 c -0.282222,2.96333 -0.529167,5.67972 -0.529167,5.99722 0,0.56445 -0.423333,0.59972 -4.303889,0.42333 -2.398888,-0.0705 -4.868333,-0.24694 -5.503333,-0.38805 l -1.199444,-0.21167 5.891389,-5.78555 c 3.210277,-3.13973 5.961944,-5.67973 6.0325,-5.57389 0.105833,0.0705 -0.07056,2.57528 -0.388056,5.53861 z m 10.583333,5.08 c 0.493889,1.34055 0.811389,2.50472 0.705556,2.61055 -0.141111,0.14112 -8.325556,-0.56444 -8.537222,-0.77611 -0.105834,-0.0705 6.738055,-4.37444 6.843889,-4.30389 0.03528,0.0353 0.493888,1.16417 0.987777,2.46945 z m 8.360832,1.27 c 3.45722,1.62278 6.20889,2.99861 6.13833,3.06917 -0.10583,0.14111 -8.14916,-0.74084 -10.618606,-1.12889 -0.9525,-0.14111 -1.164167,-0.42334 -1.869722,-2.39889 -0.423334,-1.19945 -0.776111,-2.32834 -0.776111,-2.50472 0,-0.35278 -0.246945,-0.45862 7.126109,2.96333 z m 17.78,4.65667 c -2.18723,3.73944 -4.16278,7.12611 -4.37445,7.51416 -0.3175,0.56445 -0.38805,-0.0705 -0.42333,-3.24555 v -3.95111 l 4.16278,-3.52778 c 2.25777,-1.94028 4.23333,-3.52778 4.37444,-3.52778 0.14111,-0.0353 -1.55222,3.03389 -3.73944,6.73806 z m -38.029443,-2.71639 c 0.03528,0.0353 -1.093611,2.50472 -2.54,5.50333 l -2.575278,5.43278 -2.892777,-5.75028 -2.892778,-5.78556 5.3975,0.28223 c 2.963333,0.10583 5.432778,0.28222 5.503333,0.3175 z m 9.172222,0.91722 c 3.351389,0.35278 3.986389,0.52917 3.845278,0.98778 -2.928055,11.00666 -5.750278,20.77861 -5.926666,20.56694 -0.105834,-0.14111 -1.128889,-4.86833 -2.2225,-10.4775 -1.128889,-5.64444 -2.116667,-10.61861 -2.2225,-11.07722 -0.211667,-0.81139 -0.141112,-0.84667 1.164166,-0.635 0.740834,0.10583 3.175,0.42333 5.362222,0.635 z m -18.168055,5.82083 c 1.516944,3.03389 2.716389,5.57389 2.645833,5.60917 -0.282222,0.28222 -9.948333,4.37444 -10.089444,4.26861 -0.176389,-0.21167 4.233333,-15.38111 4.480278,-15.38111 0.141111,0 1.446388,2.46944 2.963333,5.50333 z m 34.466386,-3.91583 c 2.82222,0.3175 5.32694,0.635 5.57389,0.70555 0.28222,0.10584 0.42333,1.12889 0.42333,3.52778 0,1.83445 -0.0706,3.35139 -0.17639,3.35139 -0.21167,0 -11.46527,-7.12611 -12.69999,-8.00805 -0.67028,-0.49389 -0.635,-0.52917 0.52916,-0.3175 0.67028,0.10583 3.52778,0.42333 6.35,0.74083 z m -1.83445,4.79778 c 4.02167,2.54 7.51417,4.83305 7.79639,5.08 0.38806,0.38805 -0.38805,0.91722 -4.90361,3.175 -2.96333,1.48166 -5.43277,2.61055 -5.50333,2.54 -0.14111,-0.14111 -5.079997,-14.95778 -5.079997,-15.24 0,-0.38806 0.670278,0 7.690547,4.445 z m -24.094714,8.92527 c -0.423333,6.985 -0.917222,12.73528 -1.093611,12.80584 -0.176389,0.0705 -1.199444,0.67028 -2.257778,1.34055 -1.058333,0.635 -1.975555,1.16417 -2.010833,1.09361 -0.03528,-0.0353 0.282222,-4.26861 0.740833,-9.41916 l 0.811389,-9.38389 2.2225,-4.62139 c 1.234722,-2.57528 2.257778,-4.62139 2.293056,-4.58611 0.03528,0.0705 -0.246945,5.82083 -0.705556,12.77055 z m 19.685004,2.96334 c -0.17639,0.0705 -2.575282,1.34055 -5.397504,2.89278 -2.822222,1.51694 -5.150555,2.64583 -5.221111,2.50472 -0.03528,-0.17639 1.164167,-4.93889 2.751667,-10.61861 1.552222,-5.67973 2.822222,-10.40695 2.8575,-10.54806 0.03528,-0.10583 1.199444,3.35139 2.645833,7.72583 1.446385,4.37445 2.504725,7.97278 2.363615,8.04334 z m -13.264448,6.94972 c -0.246945,0.17639 -5.362223,1.905 -5.3975,1.83444 -0.07056,-0.0705 1.128889,-19.72027 1.305277,-21.76638 0,-0.28223 0.9525,4.05694 2.116667,9.66611 1.128889,5.60916 2.046111,10.23055 1.975556,10.26583 z M 76.449464,169.58028 c -0.246945,2.08138 -0.846667,11.46527 -0.846667,13.86416 0,1.27 -0.141111,2.25778 -0.3175,2.15195 -0.529166,-0.3175 -9.313333,-12.59417 -9.136944,-12.77056 0.282222,-0.28222 9.595555,-4.30389 10.054166,-4.33917 0.282223,-0.0353 0.352778,0.35278 0.246945,1.09362 z m -6.420556,11.81805 c 2.2225,3.06917 4.162778,5.78556 4.303889,5.99722 0.141111,0.28223 -1.27,2.32834 -3.739444,5.3975 l -3.986389,4.93889 -0.211667,-3.59833 c -0.388055,-6.17361 -0.776111,-18.27389 -0.564444,-18.27389 0.105833,0 2.010833,2.50472 4.198055,5.53861 z m 17.568334,1.69333 c 0,0.74084 -1.799167,18.69723 -1.905,18.76778 -0.03528,0.0706 -0.599723,-3.59833 -1.234723,-8.07861 -0.635,-4.51555 -1.234722,-8.46667 -1.305277,-8.81944 -0.141111,-0.42334 0.282222,-0.74084 1.693333,-1.30528 1.869722,-0.70556 2.751667,-0.88195 2.751667,-0.56445 z m -5.997223,2.36362 c 0,0.0705 0.564445,4.05694 1.234723,8.85472 0.670277,4.83305 1.234722,8.96055 1.234722,9.17222 0,0.52917 -7.020278,-14.605 -7.055556,-15.16944 0,-0.21167 0.917223,-0.9525 2.046111,-1.65806 1.799167,-1.12889 2.54,-1.44639 2.54,-1.19944 z m 8.113889,11.53583 0.423334,8.64305 -0.987778,0.81139 c -0.564445,0.45861 -1.340556,1.02306 -1.693333,1.23473 -0.599723,0.3175 -0.635,0.24694 -0.458612,-0.98778 0.105834,-0.77611 0.564445,-5.3975 0.987778,-10.26584 0.458611,-4.90361 0.917222,-8.71361 1.058334,-8.46666 0.105833,0.21166 0.423333,4.30389 0.670277,9.03111 z m -14.569722,-2.18722 c -0.141111,2.50472 -0.246944,10.68916 -0.246944,18.27389 0,7.58472 -0.141111,13.51138 -0.3175,13.22916 -0.176389,-0.28222 -2.010834,-6.27944 -4.092223,-13.26444 l -3.81,-12.77056 4.021667,-4.97416 c 2.187222,-2.75167 4.1275,-4.97417 4.339167,-4.97417 0.176389,0 0.246944,1.72861 0.105833,4.48028 z m 6.526389,7.90222 3.351389,7.26722 -0.635,3.84528 c -0.352778,2.11667 -0.670278,3.91583 -0.670278,4.02167 -0.07055,0.21166 -5.609167,-21.87223 -5.644444,-22.36612 0,-0.59972 0.246944,-0.0705 3.598333,7.23195 z m -0.493889,22.36611 c -0.987778,1.55222 -2.363611,3.73944 -3.069167,4.83306 -0.705555,1.12888 -1.411111,2.04611 -1.5875,2.04611 -0.176388,0 -0.246944,-2.89278 -0.105833,-7.16139 0.141111,-3.91584 0.246945,-11.7475 0.282222,-17.35667 v -10.23055 l 3.139723,12.52361 3.139722,12.52361 z" />
  </g>
</svg>
