<?xml version="1.0" encoding="UTF-8" standalone="no"?>
<svg
   xmlns:dc="http://purl.org/dc/elements/1.1/"
   xmlns:cc="http://creativecommons.org/ns#"
   xmlns:rdf="http://www.w3.org/1999/02/22-rdf-syntax-ns#"
   xmlns:svg="http://www.w3.org/2000/svg"
   xmlns="http://www.w3.org/2000/svg"
   xmlns:sodipodi="http://sodipodi.sourceforge.net/DTD/sodipodi-0.dtd"
   xmlns:inkscape="http://www.inkscape.org/namespaces/inkscape"
   inkscape:version="1.0 (1.0+r73+1)"
   sodipodi:docname="fly.svg"
   id="svg162"
   preserveAspectRatio="xMidYMid meet"
   viewBox="0 0 750.000000 750.000000"
   height="750.000000pt"
   width="750.000000pt"
   version="1.0">
  <metadata
     id="metadata168">
    <rdf:RDF>
      <cc:Work
         rdf:about="">
        <dc:format>image/svg+xml</dc:format>
        <dc:type
           rdf:resource="http://purl.org/dc/dcmitype/StillImage" />
        <dc:title></dc:title>
      </cc:Work>
    </rdf:RDF>
  </metadata>
  <defs
     id="defs166" />
  <sodipodi:namedview
     inkscape:current-layer="svg162"
     inkscape:window-maximized="1"
     inkscape:window-y="27"
     inkscape:window-x="67"
     inkscape:cy="421.06566"
     inkscape:cx="500"
     inkscape:zoom="0.85"
     showgrid="false"
     id="namedview164"
     inkscape:window-height="1025"
     inkscape:window-width="1853"
     inkscape:pageshadow="2"
     inkscape:pageopacity="0"
     guidetolerance="10"
     gridtolerance="10"
     objecttolerance="10"
     borderopacity="1"
     bordercolor="#666666"
     pagecolor="#ffffff" />
  <path
     d="m 130.51277,74.155505 c 0,0.689626 -4.13775,16.55101 -9.19501,35.170895 l -9.195,33.79166 15.63151,17.01076 c 8.50538,9.42488 17.01076,19.53939 19.07964,22.06801 2.06887,2.7585 8.2755,22.98751 13.79251,44.59577 5.28712,21.83815 10.34437,40.68791 11.26387,42.06716 1.14938,1.839 11.72364,1.60913 36.32028,-0.45975 19.30951,-1.839 34.94102,-2.75851 34.94102,-2.06887 0,0.45975 -1.37925,2.7585 -3.21825,4.5975 -4.36763,5.28712 -47.35429,66.66378 -47.35429,68.04303 0,1.37926 38.8489,84.36418 39.99829,85.74343 1.60912,1.37925 73.10029,21.14851 81.83554,22.52776 l 8.04563,1.14938 22.98752,-44.82565 c 12.64313,-24.82651 23.67714,-45.05552 24.36676,-45.05552 0.68963,0 3.21825,2.06887 5.74688,4.82737 l 4.36763,4.82738 4.82738,-6.20663 5.05725,-6.20663 23.44726,46.20491 c 15.63151,30.57339 25.0564,46.20489 27.35515,46.20489 2.06887,0 22.29788,-5.28712 45.05552,-11.49375 l 41.60741,-11.72363 17.01075,-37.0099 c 9.42488,-20.22901 18.39001,-39.7684 19.99914,-43.21652 2.98838,-6.89626 5.05725,-2.98838 -31.03314,-54.25054 -9.19501,-12.87301 -16.55101,-23.90701 -16.55101,-24.36677 0,-0.45975 15.63151,0.45976 34.71114,2.06889 19.30951,1.839 35.1709,2.7585 35.40078,2.52862 0.22987,-0.45975 5.517,-19.76926 11.26387,-43.21653 l 10.80414,-42.29702 15.40163,-17.01076 c 24.36676,-26.66552 22.98751,-21.14852 13.33276,-58.61817 -4.82738,-17.930264 -9.42488,-33.331899 -10.34438,-34.251399 -0.9195,-1.149376 -24.82651,2.528626 -53.10116,8.045629 l -51.72191,9.884632 -57.92853,45.285418 c -31.72277,24.82651 -58.38829,45.2854 -59.07791,45.2854 -0.68963,0 -1.14938,-0.68963 -0.9195,-1.839 1.14937,-4.36763 -3.44813,-11.95351 -7.58589,-11.95351 -2.29875,0 -4.36762,-0.45975 -4.36762,-1.14938 0,-0.45975 4.13775,-10.34437 9.19501,-21.83814 5.05725,-11.49377 9.195,-22.29789 9.195,-23.90702 0,-3.44812 -7.356,-10.57426 -10.57425,-10.57426 -1.37925,0 -5.74689,12.18339 -10.11451,26.89541 -4.13775,14.94187 -8.04563,28.04476 -8.73525,28.96426 -1.839,3.678 -6.89626,-3.44812 -9.65476,-14.02239 -5.05725,-21.14852 -11.95351,-41.83728 -13.56264,-41.83728 -1.14937,0 -4.13775,2.06888 -6.89625,4.36763 -5.97675,5.28713 -5.74687,6.20663 5.74688,31.4929 8.73526,19.53939 9.19501,21.60827 4.36763,21.60827 -3.67801,0 -8.27551,8.96513 -6.43651,11.95351 3.678,6.4365 -10.1145,-3.44813 -61.37666,-43.67628 l -58.15841,-45.745164 -47.35428,-8.50538 c -25.97589,-4.827378 -49.65303,-9.195005 -52.41153,-9.884631 -2.98838,-0.689625 -5.28713,-0.689625 -5.28713,0 z m 50.11278,13.562634 c 22.98752,4.137752 41.83728,8.045629 41.83728,8.735254 0,0.919501 -83.44468,34.481267 -84.13431,33.561767 -1.14937,-1.14937 -2.29875,-49.653026 -1.14937,-49.653026 0.68962,-0.229875 20.22901,3.218251 43.4464,7.356005 z m 441.59015,9.195005 c 0,9.195006 -0.68963,20.458886 -1.60913,25.056396 l -1.60912,8.50537 -40.68791,-16.55101 c -22.52776,-8.96512 -40.91777,-16.780881 -40.91777,-17.470507 0,-1.149375 71.26129,-15.401634 79.99654,-15.861384 4.82739,-0.229875 5.05726,0.45975 4.82739,16.321135 z m 15.40163,33.331896 1.37925,7.58589 -7.35601,-2.52864 c -5.74687,-2.06888 -7.12612,-3.678 -5.97675,-7.58588 0.68963,-2.52862 1.37925,-11.03401 1.60913,-18.61988 l 0.22987,-13.792512 4.36763,13.792512 c 2.29875,7.58587 5.05726,17.24063 5.74688,21.14851 z M 132.81152,116.91228 c 0,14.48213 -0.45975,15.86138 -5.97675,18.39001 -3.44812,1.37925 -6.43651,2.29877 -6.66638,2.06887 -1.60913,-1.60912 9.19501,-38.159265 10.80413,-37.23976 0.9195,0.68962 1.839,8.2755 1.839,16.78088 z m 112.40894,-9.65475 c 25.74603,19.30951 101.37495,79.5368 100.9152,80.22643 -1.14938,0.9195 -134.93672,-11.9535 -135.85622,-13.10288 -1.14937,-1.14938 24.36677,-73.33018 25.74602,-73.33018 0.45975,0 4.5975,2.7585 9.195,6.20663 z m 291.25181,30.5734 c 7.12612,19.99914 11.49376,35.86052 10.34438,36.78003 -1.37925,0.68962 -28.50452,3.678 -60.45717,6.4365 -31.95263,2.98837 -62.29615,5.74687 -67.3534,6.4365 l -9.19502,1.14937 5.74688,-4.82737 c 3.21826,-2.7585 11.03401,-8.73525 17.24064,-13.79251 6.43651,-4.82738 28.50452,-22.29789 49.42315,-38.61904 20.91864,-16.55101 38.8489,-29.65389 39.99828,-29.42401 1.14937,0.22987 7.58588,16.32113 14.25226,35.86053 z M 213.03794,114.38365 c -46.2049,50.1128 -58.15841,62.52606 -59.30778,62.52606 -1.839,0 -14.71201,-39.07878 -13.33275,-40.45805 1.37925,-1.37925 78.15754,-32.64226 80.68617,-32.87213 1.14937,-0.22988 -2.52863,4.5975 -8.04564,10.80412 z m 377.45499,10.11451 29.19414,11.72363 -6.89626,20.22903 c -3.678,11.26388 -7.81575,20.45889 -8.73525,20.45889 -1.14937,0 -3.44812,-2.06888 -5.28713,-4.82739 -1.839,-2.52862 -16.551,-18.39001 -32.41239,-35.40078 -15.86139,-16.78088 -28.96427,-31.26301 -28.96427,-31.95264 0,-1.37925 4.5975,0.45975 53.10116,19.76926 z m -374.92635,16.55102 c -6.20664,17.47052 -11.72364,32.41239 -12.41326,32.87214 -1.60913,1.60914 -33.3319,5.74689 -37.9294,4.82739 -3.21825,-0.45975 3.90787,-9.42489 28.04476,-35.63065 17.70039,-19.30952 32.64227,-34.71116 33.10202,-34.48128 0.22988,0.45975 -4.5975,14.94188 -10.80412,32.4124 z m 358.37533,11.72363 c 8.27552,8.96514 17.24064,18.61989 19.76927,21.60827 l 4.5975,5.517 -16.09125,-1.60912 c -29.19415,-2.7585 -26.43565,-0.22988 -37.69954,-33.10203 -5.517,-16.09127 -10.57425,-30.80328 -11.26387,-32.64228 -0.9195,-3.44812 11.034,8.27551 40.68789,40.22816 z m -207.57724,2.7585 c -2.06888,2.06889 -13.10289,-29.6539 -11.72364,-33.10202 1.14938,-2.98839 3.21825,1.37925 6.89626,14.25225 2.98838,10.11452 5.28713,18.61989 4.82738,18.84977 z m 33.79164,-18.16015 c -3.21826,7.81577 -6.43651,13.79252 -7.12613,13.33277 -0.68963,-0.9195 0.9195,-7.356 7.81576,-28.73439 0.68962,-2.06888 1.839,-2.52864 3.21825,-1.14938 1.60912,1.60913 0.22987,7.356 -3.90788,16.551 z m -256.54065,31.95266 c -0.45975,0.22988 -5.74689,-5.05725 -11.72364,-12.18337 -6.20662,-6.89627 -10.57426,-13.10289 -10.1145,-13.56264 0.45975,-0.45975 3.44813,-1.839 6.4365,-2.98838 5.517,-2.06887 5.97675,-1.60912 10.80413,12.873 2.98838,8.27552 4.82738,15.40164 4.59751,15.86139 z m 492.62241,-22.52776 c -1.14937,2.06887 -6.66637,8.2755 -12.41325,14.02239 l -10.80413,10.34437 4.82737,-13.7925 c 2.52864,-7.58589 5.05726,-14.94189 5.74689,-16.55101 0.68962,-2.06888 2.52862,-2.06888 7.81575,0 5.28712,1.839 6.43651,3.44812 4.82737,5.97675 z m -242.74814,36.32027 c 3.678,8.04563 3.90787,8.96513 0,17.24064 -3.678,8.2755 -4.5975,8.73525 -13.7925,8.73525 -9.19501,0 -10.34439,-0.68963 -14.48214,-8.50538 -4.36762,-8.50538 -4.36762,-8.73526 0,-17.24063 4.13775,-8.04563 5.28713,-8.73525 14.25226,-8.73525 9.195,0 10.34438,0.68962 14.02238,8.50537 z M 188.4413,219.4366 c -7.356,20.91864 -13.56263,37.9294 -14.25226,37.9294 -1.37925,0 -18.84976,-69.42229 -17.70038,-70.57167 1.37925,-1.14937 26.66552,-4.5975 36.55014,-5.05725 l 8.27552,-0.22987 z m 95.85794,-32.18252 c 33.56177,3.21825 62.06629,6.20664 63.21567,6.43651 1.839,0.68963 -88.50194,59.76754 -95.16831,62.52604 -2.52864,0.9195 -8.27551,-8.2755 -22.52777,-36.78003 l -18.84976,-37.92939 h 6.20663 c 3.44813,0 33.56177,2.52862 67.12354,5.74687 z m 262.28754,-4.5975 c 0,1.60913 -33.56177,67.81317 -36.32027,72.1808 -1.839,2.29875 -9.19501,-1.37925 -35.1709,-18.16014 -67.5833,-43.67627 -65.97417,-42.29702 -59.53767,-43.4464 11.95351,-1.60913 111.9492,-11.26388 121.37408,-11.49376 5.28712,0 9.65476,0.22988 9.65476,0.9195 z m 49.65302,2.52863 7.12614,1.37925 -8.73526,33.56177 c -4.82738,18.61989 -8.96513,34.71115 -8.96513,36.0904 0,1.14937 -0.9195,0.68962 -2.06887,-1.14938 -2.06889,-3.44812 -25.51615,-70.57167 -25.51615,-72.87042 0,-1.14937 24.59665,0.68963 38.15927,2.98838 z m -370.7886,36.78002 c 9.88464,19.76926 17.47051,36.55015 16.78089,37.23977 -1.839,1.60913 -63.44554,6.66638 -63.44554,5.05725 -0.22987,-2.7585 26.43564,-78.15754 27.58502,-78.15754 0.68962,0 9.19501,16.09126 19.07963,35.86052 z m 342.97371,6.66637 c 6.89626,19.99915 12.41326,36.55015 11.95351,36.78003 -0.22988,0.22987 -14.48213,-0.9195 -31.49289,-2.52863 -17.01076,-1.60912 -31.72277,-2.98837 -32.87215,-2.98837 -0.9195,-0.22988 6.66638,-17.01076 17.01076,-37.46965 13.79251,-27.58501 19.07964,-36.32027 20.68876,-33.56177 0.9195,1.839 7.58588,19.76926 14.71201,39.76839 z m -211.715,-17.93026 c 2.29875,23.44728 6.66638,94.24882 5.74688,96.54757 -1.14937,2.7585 -105.74257,-43.21653 -104.82307,-45.97503 0.68963,-2.06888 93.32931,-63.21566 96.31769,-63.44554 0.68962,-0.22987 2.06887,5.74688 2.7585,12.873 z m 98.84631,19.5394 c 25.97589,16.78088 47.35428,31.03314 47.35428,31.72276 -0.22988,1.14938 -106.4322,48.27379 -107.12182,47.58416 -0.22988,-0.22987 0.9195,-19.07964 2.52863,-41.83727 1.839,-22.75765 3.21825,-48.04391 3.44813,-56.08954 0,-11.72363 0.68962,-14.25226 3.21825,-13.33276 1.839,0.68963 24.59664,15.17176 50.57253,31.95265 z m -60.91692,16.551 c -1.60912,21.14852 -3.678,37.23977 -4.36762,35.40077 -3.678,-6.66637 -7.356,-27.81488 -6.20663,-34.94102 1.839,-11.034 11.034,-41.14765 12.18338,-39.7684 0.45975,0.45975 -0.22988,18.16014 -1.60913,39.30865 z m -22.98751,-12.41325 c 4.82738,19.30951 4.82738,19.76926 0.68963,35.63065 l -4.36763,16.09126 -1.37925,-11.49376 c -0.68962,-6.4365 -2.06887,-23.90701 -2.7585,-39.07877 -1.60912,-31.4929 0.45975,-31.95265 7.81575,-1.14938 z m 14.02239,-17.93026 c 0,1.60912 -1.37925,8.04562 -3.21825,14.48214 l -2.98838,11.49375 -2.75851,-10.34438 c -1.60912,-5.74689 -3.21825,-11.49376 -3.678,-13.10289 -1.14937,-3.678 1.14938,-5.28712 7.35601,-5.28712 2.98838,0 5.28713,1.37925 5.28713,2.7585 z m -79.99655,73.78992 c 26.20576,11.72362 47.81403,21.60826 47.81403,22.29789 0,1.14937 -106.20232,16.55101 -107.12182,15.40163 -0.45975,-0.22987 0.45975,-14.25226 1.839,-31.03315 2.29876,-25.51613 3.21826,-30.34351 6.20663,-29.19413 1.839,0.68962 24.82652,10.80412 51.26216,22.52776 z m 202.06024,-22.06801 c 0,1.14937 1.37926,15.17175 2.98839,31.26301 l 2.7585,29.6539 -7.12614,-1.14938 c -3.678,-0.68962 -27.81489,-4.13775 -53.33102,-7.58588 -25.74602,-3.678 -46.66466,-7.12613 -46.66466,-8.04563 0,-1.14937 95.62806,-45.05552 99.53593,-45.51527 0.9195,-0.22988 1.60913,0.45975 1.839,1.37925 z m -264.81616,33.10201 c -1.37925,14.48214 -3.21825,26.8954 -4.13775,27.58502 -1.37925,1.60913 -35.17089,6.89625 -36.32027,5.74688 -0.45975,-0.22988 8.73525,-14.25226 20.45889,-30.80326 11.49376,-16.78089 21.37838,-29.88378 21.83813,-29.6539 0.22988,0.45975 -0.45975,12.64313 -1.839,27.12526 z m 295.38956,5.51701 c 10.57426,15.17176 19.07963,27.81489 19.07963,28.04476 -0.22987,0.22988 -8.96512,-0.9195 -19.30951,-2.29875 l -18.61988,-2.29875 -1.37925,-9.42488 c -3.44813,-24.36677 -4.13775,-46.2049 -1.60913,-43.90615 1.37925,1.37925 11.26389,14.94188 21.83814,29.88377 z m -162.7516,32.64226 c -5.517,14.25226 -8.2755,-27.81488 -3.21825,-49.42315 l 2.98837,-13.10288 0.68963,29.6539 c 0.22987,16.55101 0,31.26301 -0.45975,32.87213 z m 11.26388,-48.27377 c 2.52863,8.96512 3.44813,17.47051 2.52863,25.97589 -0.68963,6.89626 -1.14938,15.63151 -1.37925,19.30951 0,5.51701 -0.45975,6.20663 -3.44813,3.67801 -2.7585,-2.29876 -3.44812,-8.96514 -3.44812,-32.4124 0,-16.32114 0.45975,-29.6539 0.9195,-29.6539 0.68962,0 2.7585,5.97675 4.82737,13.10289 z m -40.45802,29.19414 c -1.839,2.06888 -103.90357,52.18165 -104.36332,51.49203 -0.9195,-0.9195 2.98838,-36.78002 3.90788,-37.46965 0.68962,-0.45975 91.95005,-14.02238 98.15669,-14.71201 1.839,0 2.7585,0.22988 2.29875,0.68963 z m 120.68444,67.58329 c -0.68962,1.14938 -64.59491,-32.4124 -70.80154,-37.0099 -3.678,-2.7585 -3.90788,-4.82737 -2.52863,-17.24063 l 1.60913,-14.25226 36.0904,33.79164 c 19.76926,18.84976 35.86052,34.48128 35.63064,34.71115 z m 0.22988,-60.22728 c 24.1369,3.44812 44.36591,6.66637 45.28541,7.58587 0.9195,0.68963 2.29875,9.42489 3.21825,19.30951 l 1.60912,17.93026 -45.74515,-22.75763 c -25.05639,-12.41326 -48.73353,-24.36676 -52.6414,-26.43564 -6.43652,-3.67801 -6.43652,-3.90788 -1.14938,-2.75851 3.21825,0.45975 25.51614,3.67801 49.42315,7.12614 z m -102.29443,4.13775 c 0,5.517 0.68962,11.72363 1.37925,13.56263 1.37925,3.678 -3.44813,6.66638 -48.50366,30.34351 l -29.88376,15.63152 25.28626,-23.90702 c 41.83727,-39.99827 48.27378,-45.74514 50.11278,-45.74514 0.9195,0 1.60913,4.5975 1.60913,10.1145 z m -38.38915,15.63151 c -12.41326,11.72363 -29.88377,28.50451 -39.07877,37.23977 l -16.55101,15.63151 -12.64314,-10.80413 c -7.12613,-5.97675 -12.87301,-11.26388 -12.87301,-11.72363 0,-1.14939 99.30607,-51.26216 101.83469,-51.26216 0.9195,-0.22987 -8.27551,9.42488 -20.68876,20.91864 z m 137.46533,4.36762 51.26216,25.51615 -12.64314,11.034 c -6.89625,6.20663 -13.10287,11.03401 -14.02239,10.80414 -0.9195,-0.22988 -13.10287,-11.26389 -27.12526,-24.59665 -14.02238,-13.33275 -31.49289,-29.42401 -38.61902,-36.0904 -7.12614,-6.66637 -12.41326,-12.18337 -11.49376,-12.18337 0.9195,0 24.59665,11.49375 52.64141,25.51613 z m -225.73739,-2.06887 c -0.22987,8.04562 -0.9195,15.86138 -1.60912,17.24063 -0.45975,1.839 -7.58589,-2.52862 -18.16014,-11.03401 -9.42488,-7.81575 -16.55101,-14.48212 -16.09126,-14.94187 0.9195,-0.9195 23.90701,-4.59751 32.18252,-5.28714 3.678,-0.22987 4.13775,1.60913 3.678,14.02239 z m 310.10157,-10.34439 c 3.90787,0.68964 7.356,1.83901 7.12612,2.75851 -0.22987,1.839 -31.95264,28.50451 -32.87214,27.58501 -0.45975,-0.45975 -1.37925,-8.50537 -2.06888,-17.93026 l -1.37925,-16.78088 10.80414,1.37925 c 5.97675,0.9195 14.25225,2.29875 18.39001,2.98837 z m -165.05035,8.96514 c 2.52862,2.7585 2.52862,4.13775 -0.45975,7.12612 -4.36764,4.13776 -8.73526,2.29875 -8.73526,-3.678 0,-7.58587 4.5975,-9.195 9.19501,-3.44812 z m -168.2686,11.03401 c 4.5975,4.13775 11.26387,10.1145 14.712,13.10287 6.20663,5.28714 6.20663,5.97677 4.59751,22.75765 l -1.839,17.24063 -8.73526,-18.39001 c -14.48214,-30.11364 -19.76926,-42.5269 -18.39001,-42.5269 0.45975,0 5.05725,3.44812 9.65476,7.81576 z m 328.26169,18.39001 c -17.70039,37.69952 -16.551,36.55015 -18.39001,17.24063 l -1.839,-17.01075 14.71201,-13.10289 c 7.81576,-7.35601 15.17176,-13.10289 16.09126,-13.33276 0.9195,0 -3.90788,11.72363 -10.57426,26.20577 z m -202.06025,22.06801 c -11.49375,22.75764 -21.60826,41.37752 -22.29789,41.37752 -2.06887,0 -41.37752,-34.48127 -41.37752,-36.32027 0,-1.60912 79.30692,-45.51527 83.21481,-46.2049 0.9195,0 -7.81576,18.39002 -19.5394,41.14765 z m 75.62893,-31.4929 c 10.1145,5.517 28.73439,15.63152 41.83727,22.29789 12.87301,6.89626 23.44726,13.33276 23.44726,14.02239 0,1.839 -39.53852,36.55014 -41.60739,36.55014 -0.68963,0 -10.80414,-18.61988 -22.52776,-41.37752 -11.72364,-22.75763 -20.68878,-41.37752 -20.22902,-41.37752 0.68963,0 9.195,4.36762 19.07964,9.88462 z m -164.13085,41.83728 c -15.17176,8.50538 -15.63151,8.27551 -13.10289,-14.02238 l 1.60913,-14.71201 12.41326,10.80413 12.41325,10.80413 z m 267.11491,-14.48213 c 2.7585,24.36676 3.44812,23.67714 -12.41326,15.17175 l -14.02238,-7.58587 11.034,-9.65476 c 5.97676,-5.517 11.72364,-9.88463 12.41326,-9.88463 0.68963,0 2.06888,5.517 2.98838,11.95351 z m -225.04776,32.64226 13.79251,12.64314 -31.95265,-8.96513 c -17.47051,-4.82738 -32.18252,-9.42488 -32.64227,-9.88463 -0.45975,-0.45975 4.82737,-4.13775 12.18338,-8.04563 15.17177,-8.04563 13.33277,-8.73526 38.61903,14.25225 z m 208.49675,-13.56262 c 8.04563,4.36762 14.02238,8.04562 13.33276,8.04562 -0.68963,0 -15.63151,4.13775 -33.3319,8.96513 l -32.18252,9.19501 18.39001,-17.01076 c 10.11451,-9.42488 18.61988,-17.01076 18.84976,-17.24064 0.45975,0 7.12614,3.678 14.94189,8.04564 z"
     id="path114"
     style="fill:#d3c4c4;stroke:none;stroke-width:0.229875;fill-opacity:1;opacity:0.05" />
</svg>
