<svg xmlns="http://www.w3.org/2000/svg" viewBox="0 0 504 624" width="504" height="624">
	<defs>
		<linearGradient id="grd1" gradientUnits="userSpaceOnUse"  x1="252.832" y1="456.339" x2="252.832" y2="367.296">
			<stop offset="0" stop-color="#e4b3ab" stop-opacity="0.8" />
			<stop offset="0.7" stop-color="#c5796d"  />
		</linearGradient>
		<linearGradient id="grd2" gradientUnits="userSpaceOnUse"  x1="252.883" y1="379.151" x2="252.883" y2="371.501">
			<stop offset="0.1" stop-color="#ebc3bd"  />
			<stop offset="1" stop-color="#e4b3ab"  />
		</linearGradient>
		<radialGradient id="grd3" gradientUnits="userSpaceOnUse"  cx="185.165" cy="240.091" r="38.546">
			<stop offset="0" stop-color="#ffffff"  />
			<stop offset="0.316" stop-color="#fcfdfd"  />
			<stop offset="0.505" stop-color="#f4f7f8"  />
			<stop offset="0.661" stop-color="#e5ecef"  />
			<stop offset="0.76" stop-color="#d8e2e7"  />
		</radialGradient>
		<radialGradient id="grd4" gradientUnits="userSpaceOnUse"  cx="197.324" cy="235.067" r="40.808">
			<stop offset="0" stop-color="#e4b3ab"  />
			<stop offset="0.7" stop-color="#e4b3ab" stop-opacity="0.3" />
			<stop offset="1" stop-color="#f3d4cf" stop-opacity="0" />
		</radialGradient>
		<radialGradient id="grd5" gradientUnits="userSpaceOnUse"  cx="175.79" cy="307.42" r="77.818">
			<stop offset="0.95" stop-color="#000000" stop-opacity="0" />
			<stop offset="1" stop-color="#000000" stop-opacity="0.3" />
		</radialGradient>
		<radialGradient id="grd6" gradientUnits="userSpaceOnUse"  cx="320.601" cy="240.09" r="38.546">
			<stop offset="0" stop-color="#ffffff"  />
			<stop offset="0.316" stop-color="#fcfdfd"  />
			<stop offset="0.505" stop-color="#f4f7f8"  />
			<stop offset="0.661" stop-color="#e5ecef"  />
			<stop offset="0.76" stop-color="#d8e2e7"  />
		</radialGradient>
		<radialGradient id="grd7" gradientUnits="userSpaceOnUse"  cx="308.443" cy="235.067" r="40.808">
			<stop offset="0" stop-color="#e4b3ab"  />
			<stop offset="0.7" stop-color="#e4b3ab" stop-opacity="0.3" />
			<stop offset="1" stop-color="#f3d4cf" stop-opacity="0" />
		</radialGradient>
		<radialGradient id="grd8" gradientUnits="userSpaceOnUse"  cx="329.976" cy="307.42" r="77.818">
			<stop offset="0.95" stop-color="#000000" stop-opacity="0" />
			<stop offset="1" stop-color="#000000" stop-opacity="0.3" />
		</radialGradient>
		<radialGradient id="grd9" gradientUnits="userSpaceOnUse"  cx="252.883" cy="307.751" r="102">
			<stop offset="0" stop-color="#fff4f3" stop-opacity="0.5" />
			<stop offset="0.9" stop-color="#f3d4cf" stop-opacity="0" />
		</radialGradient>
		<radialGradient id="grd10" gradientUnits="userSpaceOnUse"  cx="252.883" cy="164.951" r="91.8">
			<stop offset="0" stop-color="#fff4f3" stop-opacity="0.5" />
			<stop offset="0.9" stop-color="#f3d4cf" stop-opacity="0" />
		</radialGradient>
	</defs>
	<style>
		tspan { white-space:pre }
		.shp0 { fill: #b78383 } 
		.shp1 { fill: #f3d4cf } 
		.shp2 { fill: #fff4f3 } 
		.shp3 { fill: #e4b3ab } 
		.shp4 { fill: none;stroke: #c5796d;stroke-width: 3.825 } 
		.shp5 { fill: url(#grd1) } 
		.shp6 { fill: #39557e } 
		.shp7 { fill: #27446f } 
		.shp8 { fill: #4e688d } 
		.shp9 { fill: #0c2850 } 
		.shp10 { fill: #ebc3bd } 
		.shp11 { fill: url(#grd2) } 
		.shp12 { fill: #f771a9;stroke: #e85391;stroke-width: 1.912 } 
		.shp13 { fill: #c92066 } 
		.shp14 { fill: #ff8ebd } 
		.shp15 { fill: #ffa8cc } 
		.shp16 { fill: url(#grd3) } 
		.shp17 { fill: #7d889f;stroke: #374a71;stroke-width: 1.275 } 
		.shp18 { fill: #9aa1ae } 
		.shp19 { fill: #7d889f;stroke: #637190;stroke-width: 1.275 } 
		.shp20 { fill: #7d889f;stroke: #4b5c80;stroke-width: 1.275 } 
		.shp21 { opacity: 0.902;fill: #000000 } 
		.shp22 { opacity: 0.702;fill: #ffffff } 
		.shp23 { opacity: 0.902;fill: #ffffff } 
		.shp24 { fill: url(#grd4) } 
		.shp25 { fill: url(#grd5) } 
		.shp26 { fill: #c5796d } 
		.shp27 { fill: #131111 } 
		.shp28 { fill: url(#grd6) } 
		.shp29 { fill: url(#grd7) } 
		.shp30 { fill: url(#grd8) } 
		.shp31 { fill: url(#grd9) } 
		.shp32 { fill: url(#grd10) } 
		.shp33 { fill: #2a232b } 
		.shp34 { opacity: 0.2;fill: #ffffff } 
		.shp35 { opacity: 0.102;fill: #d6c4c4 } 
		.shp36 { fill: #d6c4c4 } 
		.shp37 { fill: #c7a2a2 } 
		.shp38 { fill: #ded6d6 } 
		.shp39 { fill: #a86868 } 
		.shp40 { fill: #107aa8 } 
	</style>
	<g id="svga-group-wrapper">
		<g id="svga-group-subwrapper">
			<g id="svga-group-hair-back">
				<path id="SvgjsPath4449" class="shp0" d="M407.23 297.29C405.12 379.22 393.78 559.82 258.13 558.89C53.16 557.48 102.66 381.66 100.63 297.29C97.69 175.73 169.26 77.12 253.93 77.12C338.59 77.12 410.35 175.73 407.23 297.29Z" />
			</g>
			<g id="svga-group-humanbody-single">
				<path id="SvgjsPath2761" class="shp1" d="M484.57 529.26C469.25 503.36 450.21 498.73 434.52 493.72C418.4 488.58 385.19 485.62 367.07 481.99C349.58 478.49 308.03 467.23 307.56 447.6C307.07 427.03 318.5 345.37 318.5 345.37L186.6 345.37C186.6 345.37 198.04 427.03 197.55 447.6C197.08 467.23 155.52 478.49 138.03 481.99C119.91 485.62 86.71 488.58 70.58 493.72C54.89 498.73 35.84 503.35 20.52 529.26C11.23 544.97 5.2 570.4 5.2 598.45L499.9 598.45C499.9 570.4 493.88 544.97 484.57 529.26Z" />
				<path id="SvgjsPath2762" class="shp2" d="M307.56 447.6C313.92 475.47 353.88 482.53 374.61 486.68C430.48 497.85 460.73 499.77 482.46 536.5C489.87 549.04 496.39 576.96 497.67 598.09C502.35 598.84 499.02 553.64 484.57 529.26C459.73 487.26 410.39 490.66 367.07 481.99C349.58 478.49 308.03 467.23 307.56 447.6L307.56 447.6ZM198.21 447.6C197.73 467.23 156.18 478.49 138.69 481.99C95.37 490.66 46.04 487.26 21.2 529.26C6.74 553.64 3.42 598.84 8.1 598.09C9.38 576.96 15.9 549.04 23.3 536.5C45.04 499.77 75.29 497.85 131.16 486.68C151.89 482.53 191.84 475.47 198.21 447.6L198.21 447.6Z" />
				<path id="SvgjsPath2763" fill-rule="evenodd" class="shp3" d="M128.46 502.86C128.46 502.86 201.49 503.62 213.81 507.67C219.72 509.6 235.16 522.03 235.16 522.03C235.16 522.03 218.45 513.95 213.09 512.45C200.63 508.97 128.46 502.86 128.46 502.86ZM237.52 522.26C237.52 522.26 249.95 525.64 253.75 525.42C258.26 525.16 272.47 519.91 272.47 519.91C272.47 519.91 257.6 529.49 252.36 529.6C248.07 529.68 237.52 522.26 237.52 522.26ZM275.12 520.45C275.12 520.45 288.66 509.21 294.41 507.29C311.54 501.58 372.21 502.89 372.21 502.89C372.21 502.89 313.47 506.5 296.25 511.13C290.59 512.65 275.12 520.45 275.12 520.45Z" />
				<path id="SvgjsPath2764" class="shp4" d="M484.57 529.26C459.73 487.26 410.31 490.65 367.07 481.99C349.58 478.49 308.03 467.23 307.56 447.6C307.07 427.03 318.5 345.37 318.5 345.37L186.6 345.37C186.6 345.37 198.04 427.03 197.55 447.6C197.08 467.23 155.52 478.49 138.03 481.99C119.91 485.62 86.71 488.58 70.58 493.72C54.89 498.73 35.84 503.36 20.52 529.26C11.23 544.97 5.2 570.4 5.2 598.45L499.9 598.45C499.9 570.4 493.88 544.97 484.57 529.26Z" />
			</g>
			<g id="svga-group-chinshadow-single">
				<path id="SvgjsPath2966" class="shp5" d="M228.58 452.51C239.99 456.71 265.79 456.71 277.2 452.51C286.15 449.22 296.27 442.26 306.5 433.43C308.5 406.6 314.86 359.64 316.49 347.8C313.65 347.53 310.74 347.27 307.75 347.03L198.34 347.03C195.01 347.29 191.76 347.58 188.62 347.9C190.26 359.79 196.51 405.95 198.56 432.8C209.03 441.94 219.41 449.14 228.58 452.51Z" />
			</g>
			<g id="svga-group-clothes-single">
				<path id="SvgjsPath4488" class="shp6" d="M1.64 598.91C-4.69 546.17 19.07 508.8 76.58 492.47C93.46 487.68 112.85 485.22 115.4 485.06C115.32 484.61 115.3 484.63 115.3 483.71L115.22 483.71C115.41 466.27 134.83 469.7 140.39 468.53C162.38 463.85 169.84 440.79 194.95 446.86C195.57 452.15 195.11 458.26 191.98 480.87C215.66 531.79 241.34 527.4 250.47 555.91C258.74 530.41 288.14 526.36 309.78 480.86C308.36 468.07 305.27 456.9 306.57 446.26L306.7 446.17C323.51 440.56 330.86 448.07 337.56 454.53C357.97 474.24 368.82 461.75 379.03 470.74C383.09 474.32 384.55 479.4 384.55 484.87C431.08 491.62 509.63 494.25 499.02 597.54L499.23 597.77C452.14 597.76 134.66 609.55 1.64 598.91Z" />
				<path id="SvgjsPath4489" fill-rule="evenodd" class="shp7" d="M251.36 553.47C260.56 530.37 288.18 524.96 309.04 482.37C309.24 482.14 309.78 481.08 310.46 479.68C310.11 475.7 309.66 471.55 307.82 467.18C306.69 459.91 305.79 453.1 306.55 446.49C310.84 447.74 314.9 449.23 317.68 452.27C321.76 456.72 318.66 464.45 314.75 471.88C307.4 503.89 289 527 251.36 553.47ZM441.81 598.85C437.85 598.95 436.28 599.05 432.02 599.15C437.13 576.3 432.87 552.5 426.5 529.98C439.25 548.68 443.58 574.86 441.81 598.85ZM375.5 497.51C337.89 554.57 310.79 541.5 250.55 579.96C190.31 541.5 163.38 557.69 125.77 500.64C137.72 513.39 157.29 531.5 170.04 536.6C197.86 552.83 226.11 556.59 251.4 578.1C276.68 556.53 304.66 550.28 332.48 534.05C345.23 528.95 363.55 510.27 375.5 497.51ZM188.05 471.88C184.14 464.45 181.04 456.73 185.12 452.27C187.9 449.23 190.19 448.39 194.47 447.14C195.24 453.75 194.75 459.69 193.62 466.97C191.78 471.33 192.69 475.7 192.34 479.68C193.02 481.08 193.56 482.14 193.76 482.37C214.62 524.97 241.16 533.08 250.36 556.18C212.72 529.72 195.4 503.89 188.05 471.88ZM70.78 599.15C66.52 599.05 64.95 598.95 60.99 598.85C59.22 574.86 59.3 547.83 68.65 527.43C66.95 550.38 65.67 576.3 70.78 599.15ZM151.42 486.74C175.52 520.18 216.84 545.07 251.36 557.56C284.82 543.69 327.05 521.08 355.47 482.78C324 530.43 286.14 549.93 250.55 560.59C214.96 549.93 179.65 532.95 151.42 486.74Z" />
				<path id="SvgjsPath4490" fill-rule="evenodd" class="shp8" d="M499.23 597.76C498.98 597.76 498.67 597.76 498.41 597.76C497.5 578.36 495.68 558.52 485.47 541.02C465.07 502.77 421.72 501.82 380.94 493.25C375.84 493.25 373.2 479.12 369.45 475.36C366.26 472.17 341.71 472.17 333.93 451.12C335.19 452.23 336.39 453.4 337.56 454.53C357.98 474.23 368.82 461.75 379.03 470.73C383.09 474.31 384.56 479.4 384.56 484.86C431.08 491.62 509.64 494.25 499.03 597.53L499.23 597.76ZM1.23 600.08C-4.12 505.32 69.19 491.68 115.72 484.92C115.72 479.46 116.79 473.28 123.77 470.73C129.42 468.67 144.82 474.23 165.24 454.53C166.41 453.4 171.83 452.25 173.09 451.14C148.55 476.96 130.82 477.02 127.64 480.21C123.88 483.97 127.83 489.39 120.33 492.23C79.55 500.8 35.44 509.39 15.04 547.64C4.83 565.14 2.75 580.91 1.84 600.31C1.58 600.31 1.27 600.31 1.03 600.31L1.23 600.08Z" />
				<path id="SvgjsPath4491" fill-rule="evenodd" class="shp9" d="M499.23 598.01C497.92 598.01 466.75 598.52 448.38 598.99C52.71 608.67 27.25 599.16 1.42 599.16C-4.98 546.74 18.32 508.74 76.51 492.22C93.17 487.5 112.55 484.99 115.1 484.82C115.04 484.54 115.04 484.26 115.04 483.96C115.04 483.96 115.02 483.96 115.04 483.93C114.89 479.26 117.08 473.53 121.45 471.41C131.95 466.28 135.42 471.43 147.66 465.7C167.84 456.03 172.87 441.55 195.19 446.65C195.81 451.92 195.48 457.36 192.23 480.9C215.62 530.9 241.88 528.21 250.48 555.08C258.33 530.86 288.1 525.8 309.56 480.75C307.48 464.99 305.11 456.12 306.34 446.01C335.61 437.47 334.97 461.14 355.41 465.52C364.67 467.49 384.81 463.24 384.81 484.64C424.4 490.78 479.99 491.7 496.09 548.93C501.99 570 499.68 595.47 499.23 598.01ZM498.51 597.56C500.92 506.36 446.01 496.33 384.75 485.79C384.7 485.79 384.63 485.79 384.57 485.77C382.99 488.32 368.18 508.42 352.8 520.98C319.42 548.26 293.33 547.86 257.02 573.62C256.11 574.26 253.76 576.7 252.61 576.7C299.04 541.22 329.05 540.58 362.59 507.22C372.17 497.71 382.31 485.76 383.66 483.76C382.57 470.18 372.87 469.24 365.48 469.2C342.35 469.2 341.21 460.31 327.02 448.18C323.62 444.79 311.33 445.5 306.8 447.01C306.41 456.77 309.86 466.09 310.85 477.94C314.02 471.21 316.82 464.33 319.5 457.34C293.35 538.15 261.8 526.76 251.06 556.23C251.01 556.35 250.95 556.48 250.93 556.61C251.03 556.89 251.11 557.17 251.16 557.45C251.21 557.48 251.26 557.5 251.31 557.5C312.44 529.53 318.57 520.39 358.24 480.06C360.26 477.51 333.19 512.9 309.45 529.22C286.4 545.06 256.1 555.61 251.49 557.86C251.42 557.86 251.37 557.88 251.31 557.93C251.14 557.98 250.96 558.06 250.8 558.14C250.76 558.06 250.63 557.66 250.6 557.58C250.6 557.55 250.57 557.5 250.57 557.47C249.16 556.85 247.76 556.24 246.37 555.64C248.62 556.52 250.04 557 250.45 557.12C238.37 524.13 211.36 542.13 184.27 462.64C186.42 467.76 188.56 472.89 190.83 477.89C191.91 468.91 195.16 456.24 194.65 447.82C188.18 446.83 180.09 447.01 174.66 450.63C163.26 459.47 151.41 471.54 136 471.41C131.92 471.38 127.74 470.95 123.84 472.48C118.33 474.68 115.67 480.32 116.16 485.41C160.31 546.27 206.22 541.44 250.04 577.85C201.7 541.62 153.89 551.05 114.84 486.28C45.72 497.18 -1.15 529 1.77 598.6C137.57 603.14 223.94 595.84 498.51 597.56ZM239.61 552.85C211.03 541.31 185.38 533.28 147.61 482.17C148.71 483.65 163.16 499.56 170.45 506.78C195.05 531.23 224.15 546.12 239.61 552.85ZM246.37 555.64C244.59 554.96 242.31 554.03 239.61 552.85C241.84 553.76 244.09 554.68 246.37 555.64Z" />
			</g>
			<g id="svga-group-head">
				<g id="svga-group-faceshape-wrap">
					<g id="svga-group-faceshape-single">
						<path id="SvgjsPath2963" class="shp1" d="M365.09 338.48C347.57 365.86 306.26 415.05 277.2 425.74C265.79 429.94 239.99 429.94 228.58 425.74C199.52 415.05 158.21 365.86 140.69 338.48C123.47 311.58 102.82 216.59 102.79 216.45C99.47 203.93 97.7 190.78 97.68 177.23C97.54 91.87 166.92 22.58 252.65 22.45C338.38 22.31 407.97 91.38 408.1 176.74C408.12 190.29 406.4 203.44 403.12 215.98C403.08 216.11 382.37 311.47 365.09 338.48Z" />
						<path id="SvgjsPath2964" class="shp10" d="M278.77 24.62C347.61 40.53 398.87 101.98 398.75 175.35C398.73 188.91 396.96 202.06 393.64 214.58C393.61 214.71 374.83 309.71 357.61 336.61C340.09 363.99 300.65 411.31 271.59 422C267.83 423.38 258.77 424.78 252.89 424.78C247.01 424.78 237.95 423.38 234.19 422C205.13 411.31 165.69 363.99 148.17 336.61C130.95 309.71 112.16 214.71 112.14 214.58C108.82 202.06 107.05 188.91 107.03 175.35C106.91 101.98 158.17 40.53 227.01 24.62C153.51 36.91 97.56 100.57 97.68 177.22C97.7 190.78 99.47 203.92 102.79 216.45C102.82 216.58 123.47 311.58 140.69 338.48C158.21 365.86 199.52 415.04 228.58 425.74C234.29 427.84 243.59 428.89 252.9 428.88C262.19 428.88 271.49 427.84 277.2 425.74C306.26 415.05 347.57 365.86 365.09 338.48C382.31 311.58 402.96 216.58 402.99 216.45C406.3 203.92 408.08 190.78 408.1 177.22C408.22 100.57 352.27 36.91 278.77 24.62Z" />
						<path id="SvgjsPath2965" class="shp4" d="M365.09 338.48C347.57 365.86 306.26 415.05 277.2 425.74C265.79 429.94 239.99 429.94 228.58 425.74C199.52 415.05 158.21 365.86 140.69 338.48C123.47 311.58 102.82 216.59 102.79 216.45C99.47 203.93 97.7 190.78 97.68 177.23C97.54 91.87 166.92 22.58 252.65 22.45C338.38 22.31 407.97 91.38 408.1 176.74C408.12 190.29 406.4 203.44 403.12 215.98C403.08 216.11 382.37 311.47 365.09 338.48Z" />
					</g>
				</g>
				<g id="svga-group-mouth-single">
					<path id="SvgjsPath2978" class="shp11" d="M252.89 379.78C242.29 379.78 239.8 371.1 239.8 371.1C253.82 376.51 265.98 370.73 265.98 370.73C265.98 370.73 262.21 379.78 252.89 379.78Z" />
					<path id="SvgjsPath2982" class="shp12" d="M219.23 356.05C226.26 353.62 237.01 349.18 242.6 348.94C245.49 348.8 248.6 351.15 251.72 351.91C253.89 352.43 260.04 348.96 262.25 348.94C268.04 348.87 280.25 353.62 286.48 356.05C286.82 356.19 286.48 356.05 286.48 356.05C286.48 356.05 271.72 373.78 252.86 373.78C231.51 373.78 219.23 356.05 219.23 356.05C219.23 356.05 218.88 356.17 219.23 356.05Z" />
					<path id="SvgjsPath2983" class="shp13" d="M287.41 355.53C287.29 355.11 286.18 354.59 285.75 354.61C284.95 354.66 284.03 355.62 282.4 355.66C280.51 355.7 270.47 357.21 267.77 357.03C262.34 356.67 258.02 358.73 252.86 358.73C247.7 358.73 243 356.48 237.57 356.85C234.88 357.03 225.21 355.71 223.31 355.66C221.67 355.62 221.04 354.61 220.34 354.47C219.85 354.38 218.65 354.9 218.41 355.34C218.2 355.72 218.64 357.04 218.94 357.36C219.67 358.12 221.84 357.98 223.27 358.01C225.25 358.06 234.94 359.39 237.68 359.2C242.99 358.84 247.72 361.3 252.86 361.3C258 361.3 262.36 359.03 267.66 359.39C270.39 359.57 280.45 358.05 282.44 358.01C283.87 357.98 285.92 357.86 286.65 357.27C287 356.99 287.54 355.96 287.41 355.53Z" />
					<path id="SvgjsPath2984" fill-rule="evenodd" class="shp14" d="M252.86 369.85C244.26 369.85 235.91 366.91 229.29 361.42C232.62 361.24 236.05 360.71 239.39 360.86C243.5 361.04 247.41 362.66 251.52 362.93C255.96 363.23 260.08 361.69 264.43 361.16C268.06 360.73 273.78 359.44 277.41 359.58C270.91 364.56 261.16 369.85 252.86 369.85ZM252.25 356.82C248.2 356.69 244.37 355.11 240.38 354.6C237.11 354.18 233.74 354.55 230.47 354.63C234.04 352.95 238.22 350.47 242.28 350.42C246.03 350.55 248.93 354.22 252.79 353.71C256.21 353.26 259.71 350.56 263.19 351.24C267.24 352.02 272.98 352.49 276.56 354.42C273.22 354.18 267.87 355.44 264.52 355.54C260.38 355.64 256.38 356.96 252.25 356.82Z" />
					<path id="SvgjsPath2985" class="shp15" d="M252.73 367.42C247.56 367.42 242.52 365.63 238.18 362.32C239.15 362.22 240.13 362.14 241.07 362.14C241.37 362.14 241.67 362.15 241.96 362.17C243.52 362.25 245.05 362.7 246.67 363.17C248.25 363.63 249.87 364.1 251.58 364.25C251.91 364.27 252.25 364.28 252.58 364.28C254.67 364.28 256.65 363.76 258.57 363.26C259.79 362.95 260.94 362.64 262.12 362.47C262.76 362.36 263.46 362.32 264.25 362.32C264.94 362.32 265.64 362.35 266.34 362.41C262.73 365.09 258.06 367.42 252.73 367.42Z" />
				</g>
				<g id="svga-group-eyes-left">
					<g id="svga-group-eyesback-left">
						<path id="SvgjsPath4167" class="shp16" d="M155.86 235.13C154.57 229.31 169.1 225 188.27 227.35C207.44 229.71 220.76 241.44 219.01 247.36C218.04 250.64 191.88 255.63 182.66 254.62C173.32 253.58 158.98 249.2 155.86 235.13Z" />
					</g>
					<g id="svga-group-eyesiriswrapper-left">
						<g id="svga-group-eyesiriscontrol-left">
							<g id="svga-group-eyesiris-left">
								<path id="SvgjsPath4460" class="shp17" d="M208.9 240.18C208.9 252.15 199.19 261.85 187.22 261.85C175.25 261.85 165.55 252.15 165.55 240.18C165.55 228.2 175.25 218.5 187.22 218.5C199.19 218.5 208.9 228.2 208.9 240.18Z" />
								<path id="SvgjsPath4461" class="shp18" d="M174.62 250.31C177.78 250.05 174.98 249.2 174.98 249.2C173.42 248.36 170.47 247.06 170.47 245.87C170.47 242.15 175.58 241.18 170.35 239.71C164.92 234.73 174.57 234.83 174.49 234.66C170.97 226.08 175.57 230.79 177.51 228.26C184.69 218.87 179.51 229.22 183.41 228.26C184.82 227.91 180.59 222.73 183.53 223.45C185.48 223.93 185.92 225.55 185.92 225.55C187.34 225.27 189.56 223.08 189.56 223.08C192.27 223.9 194.17 227.74 193.33 227.02C194.66 226.86 196.53 226.22 197.98 225.79C197.98 225.79 198.23 224.93 198.48 225.67C201.79 235.28 210.34 234.6 200.5 237.37C200.5 237.37 199.86 237.37 201.88 238.97C211.67 246.79 194.29 244.37 203.51 247.97C203.88 247.59 197.98 251.45 197.98 252.52C197.98 254.33 194.22 259.09 190.95 257.22C189.13 256.18 188.85 259.38 187.78 257.9C185.68 255 181.49 257.78 183.04 255.11C185.33 253.23 180.68 255.85 179.78 255.85C176.79 255.85 183.69 245.8 193.84 253.26C196.81 255.44 190.72 248.09 196.1 248.09C196.64 248.26 196.48 246.2 196.48 245.63C193.68 245.08 201.5 245.61 201.5 241.07C201.99 241.17 203.34 239.8 195.6 241.07C195.6 241.07 195.35 238.36 195.47 237.86C195.87 236.28 199.86 236.79 198.74 235.15C198.73 235.15 195.85 229.36 195.85 229.36C186.56 227.86 191.87 226.93 186.06 228.13C185.78 229.49 173.61 235.3 174 237.99C174.36 240.52 181.64 241.37 174.75 245.87C185.07 265.65 167.12 245.43 174.62 250.31Z" />
								<path id="SvgjsPath4462" class="shp19" d="M187.22 221.21L187.84 237.08L194.48 222.65L188.98 237.55L200.63 226.76L189.85 238.42L204.75 232.92L190.33 239.56L206.19 240.17L190.33 240.79L204.75 247.43L189.85 241.93L200.63 253.58L188.98 242.8L194.48 257.69L187.84 243.27L187.22 259.14L186.6 243.27L179.96 257.69L185.46 242.8L173.81 253.59L184.59 241.93L169.69 247.43L184.11 240.79L168.25 240.18L184.11 239.56L169.69 232.92L184.59 238.42L173.81 226.77L185.46 237.55L179.96 222.66L186.6 237.08L187.22 221.21Z" />
								<path id="SvgjsPath4463" class="shp20" d="M190.1 225.97L188.15 237.94L195.31 228.15L188.93 238.47L199.3 232.16L189.46 239.25L201.45 237.39L189.64 240.18L201.43 243.04L189.45 241.1L199.25 248.26L188.92 241.89L195.23 252.25L188.14 242.41L190 254.4L187.21 242.59L184.34 254.38L186.29 242.4L179.12 252.2L185.51 241.87L175.14 248.19L184.99 241.09L173 242.95L184.81 240.17L173.01 237.3L184.99 239.24L175.19 232.08L185.52 238.45L179.21 228.09L186.3 237.93L184.44 225.94L187.23 237.76L190.1 225.97Z" />
								<path id="SvgjsPath4464" class="shp21" d="M195.35 240.18C195.35 244.67 191.71 248.3 187.22 248.3C182.73 248.3 179.09 244.66 179.09 240.18C179.09 235.69 182.74 232.05 187.22 232.05C191.71 232.05 195.35 235.69 195.35 240.18Z" />
								<path id="SvgjsPath4465" class="shp22" d="M178.69 255.75C177.49 256.95 175.13 256.53 173.41 254.81C171.69 253.09 171.27 250.73 172.47 249.53C173.66 248.34 176.03 248.76 177.74 250.48C179.46 252.19 179.88 254.55 178.69 255.75Z" />
								<path id="SvgjsPath4466" class="shp23" d="M204.58 235.91C202.79 237.7 198.45 236.27 194.89 232.71C191.33 229.15 189.9 224.81 191.69 223.02C193.49 221.22 197.82 222.65 201.38 226.22C204.94 229.78 206.37 234.12 204.58 235.91Z" />
							</g>
						</g>
					</g>
					<g id="svga-group-eyesfront-left">
						<path id="SvgjsPath4189" fill-rule="evenodd" class="shp1" d="M185.31 180.25C210.66 180.25 231.21 208.79 231.21 244C231.21 279.21 210.66 307.75 185.31 307.75C159.96 307.75 139.41 279.21 139.41 244C139.41 208.79 159.96 180.25 185.31 180.25ZM182.66 254.62C191.88 255.63 218.04 250.64 219.01 247.36C220.76 241.44 207.44 229.71 188.27 227.35C169.1 225 154.57 229.31 155.86 235.13C158.98 249.2 173.32 253.58 182.66 254.62Z" />
						<path id="SvgjsPath4190" class="shp24" d="M182.66 254.62C191.88 255.63 218.04 250.64 219.01 247.36C220.76 241.44 207.44 229.71 188.27 227.35C171.8 225.33 158.79 228.23 156.26 232.78C158.55 216.46 175.89 203.72 197.02 203.62C219.75 203.53 238.2 218.1 238.26 236.17C238.32 254.25 219.94 268.97 197.22 269.07C174.49 269.17 156.04 254.6 155.98 236.53C155.98 236.26 156.02 236 156.03 235.73C159.42 249.31 173.46 253.6 182.66 254.62Z" />
						<path id="SvgjsPath4195" class="shp25" d="M155.86 235.13C154.57 229.31 169.1 225 188.27 227.35C207.44 229.71 220.76 241.44 219.01 247.36C218.04 250.64 191.88 255.63 182.66 254.62C173.32 253.58 158.98 249.2 155.86 235.13Z" />
						<path id="SvgjsPath4199" class="shp26" d="M156.87 222.11C167.6 217.07 180.72 216.61 192.16 219.55C198.29 220.98 204.82 222.83 210.17 226.28C215.13 229.17 219.16 232.65 222.93 236.96C219.5 232.63 215.85 229.01 211.14 226.07C205.33 222.46 198.98 220.22 192.36 218.64C180.66 215.77 167.57 216.42 156.87 222.11Z" />
						<path id="SvgjsPath4200" class="shp27" d="M144.04 226.08C144.04 226.08 149.98 228.33 153.21 227.66C152.22 226.49 150.42 223.57 150.42 223.57C150.42 223.57 155.14 224.98 158.45 223.65C160.7 222.75 168.82 221.1 172.36 220.93C176.67 220.72 185.3 221.25 189.54 222.01C198.14 223.57 212.45 228.72 219.32 240.33C219.97 241.79 222.91 242.68 222.91 242.68C222.91 242.68 220.3 242.13 219.98 242.79C219.26 244.22 223.29 247.93 223.79 248.39C223.38 248.02 220.5 245.5 219.4 245.93C219.24 245.98 219.05 246.92 219 247.16C219.77 240.97 206.67 229.95 188.27 227.76C169.1 225.49 154.57 229.66 155.86 235.31C158.97 248.95 173.32 253.19 182.66 254.19C189.1 254.88 203.82 252.72 212.43 250.27L215.01 249.46C209.91 252.04 195.82 255.06 190.1 255.59C188.21 255.77 184.39 255.86 182.49 255.81C167.32 255.4 156.58 247.7 152.58 237.29C152.26 236.46 151.32 235.72 150.44 235.52C146.35 234.6 137.45 230.9 137.45 230.9C143.36 231.82 146.33 232.62 150.98 231.05C146.44 229.35 144.04 226.08 144.04 226.08Z" />
					</g>
				</g>
				<g id="svga-group-eyes-right">
					<g id="svga-group-eyesback-right">
						<path id="SvgjsPath4174" class="shp28" d="M349.91 235.13C351.2 229.31 336.67 225 317.49 227.35C298.32 229.71 285.01 241.44 286.76 247.36C287.73 250.64 313.89 255.63 323.11 254.62C332.45 253.58 346.79 249.2 349.91 235.13Z" />
					</g>
					<g id="svga-group-eyesiriswrapper-right">
						<g id="svga-group-eyesiriscontrol-right">
							<g id="svga-group-eyesiris-right">
								<path id="SvgjsPath4467" class="shp17" d="M340.22 240.18C340.22 252.14 330.52 261.85 318.55 261.85C306.58 261.85 296.87 252.14 296.87 240.18C296.87 228.2 306.58 218.5 318.55 218.5C330.52 218.5 340.22 228.2 340.22 240.18Z" />
								<path id="SvgjsPath4468" class="shp18" d="M305.95 250.31C309.11 250.05 306.31 249.2 306.31 249.2C304.75 248.36 301.8 247.07 301.8 245.88C301.8 242.15 306.91 241.18 301.68 239.71C296.24 234.73 305.89 234.83 305.82 234.66C302.3 226.08 306.9 230.79 308.84 228.26C316.02 218.87 310.84 229.22 314.74 228.26C316.15 227.91 311.92 222.73 314.86 223.45C316.8 223.93 317.25 225.55 317.25 225.55C318.67 225.27 320.89 223.08 320.89 223.08C323.6 223.9 325.5 227.74 324.66 227.03C325.99 226.86 327.85 226.23 329.3 225.79C329.3 225.79 329.56 224.93 329.8 225.68C333.12 235.29 341.67 234.6 331.82 237.38C331.82 237.38 331.19 237.38 333.2 238.98C343 246.79 325.61 244.38 334.83 247.97C335.21 247.6 329.3 251.46 329.3 252.53C329.3 254.34 325.54 259.09 322.27 257.22C320.45 256.18 320.18 259.39 319.1 257.91C317.01 255.01 312.81 257.78 314.36 255.12C316.65 253.24 312 255.85 311.1 255.85C308.11 255.85 315.01 245.8 325.17 253.27C328.14 255.45 322.04 248.09 327.42 248.09C327.97 248.27 327.8 246.21 327.8 245.63C325 245.08 332.83 245.62 332.83 241.07C333.32 241.17 334.66 239.81 326.92 241.07C326.92 241.07 326.67 238.36 326.8 237.87C327.2 236.29 331.19 236.79 330.06 235.16C330.06 235.15 327.17 229.37 327.17 229.37C317.88 227.87 323.19 226.94 317.38 228.13C317.11 229.5 304.93 235.3 305.32 237.99C305.68 240.53 312.96 241.38 306.07 245.88C316.4 265.65 298.45 245.43 305.95 250.31Z" />
								<path id="SvgjsPath4469" class="shp19" d="M318.55 221.21L319.16 237.08L325.8 222.65L320.3 237.54L331.96 226.76L321.17 238.42L336.07 232.92L321.65 239.56L337.52 240.17L321.65 240.79L336.07 247.43L321.17 241.93L331.96 253.58L320.3 242.8L325.8 257.69L319.16 243.27L318.55 259.14L317.93 243.27L311.29 257.7L316.79 242.8L305.13 253.59L315.92 241.93L301.02 247.43L315.44 240.79L299.58 240.18L315.44 239.56L301.02 232.92L315.92 238.42L305.13 226.77L316.79 237.55L311.29 222.65L317.93 237.08L318.55 221.21Z" />
								<path id="SvgjsPath4470" class="shp20" d="M321.42 225.97L319.47 237.94L326.63 228.15L320.26 238.47L330.62 232.16L320.78 239.25L332.77 237.39L320.96 240.18L332.75 243.05L320.77 241.1L330.57 248.26L320.24 241.89L326.56 252.25L319.46 242.41L321.32 254.4L318.54 242.59L315.67 254.38L317.62 242.4L310.44 252.2L316.83 241.88L306.47 248.19L316.31 241.09L304.32 242.96L316.13 240.17L304.34 237.3L316.31 239.24L306.51 232.08L316.84 238.46L310.53 228.1L317.62 237.94L315.76 225.95L318.55 237.76L321.42 225.97Z" />
								<path id="SvgjsPath4471" class="shp21" d="M326.68 240.18C326.68 244.67 323.03 248.3 318.55 248.3C314.06 248.3 310.42 244.67 310.42 240.18C310.42 235.69 314.06 232.05 318.55 232.05C323.03 232.05 326.68 235.69 326.68 240.18Z" />
								<path id="SvgjsPath4472" class="shp22" d="M310.01 255.75C308.81 256.95 306.45 256.53 304.73 254.81C303.02 253.09 302.59 250.73 303.79 249.53C304.99 248.33 307.35 248.76 309.07 250.47C310.78 252.19 311.21 254.56 310.01 255.75Z" />
								<path id="SvgjsPath4473" class="shp23" d="M335.91 235.91C334.12 237.7 329.78 236.27 326.22 232.71C322.66 229.15 321.23 224.81 323.02 223.02C324.81 221.23 329.15 222.66 332.71 226.22C336.27 229.78 337.7 234.12 335.91 235.91Z" />
							</g>
						</g>
					</g>
					<g id="svga-group-eyesfront-right">
						<path id="SvgjsPath4209" fill-rule="evenodd" class="shp1" d="M366.36 244C366.36 279.21 345.81 307.75 320.46 307.75C295.11 307.75 274.56 279.21 274.56 244C274.56 208.79 295.11 180.25 320.46 180.25C345.81 180.25 366.36 208.79 366.36 244ZM349.91 235.13C351.2 229.31 336.67 225 317.49 227.35C298.32 229.71 285.01 241.44 286.76 247.36C287.73 250.64 313.89 255.63 323.11 254.62C332.45 253.58 346.79 249.2 349.91 235.13Z" />
						<path id="SvgjsPath4210" class="shp29" d="M323.11 254.62C313.89 255.63 287.73 250.64 286.76 247.36C285.01 241.44 298.32 229.71 317.49 227.35C333.97 225.33 346.98 228.23 349.51 232.78C347.22 216.46 329.88 203.72 308.74 203.62C286.02 203.53 267.57 218.1 267.51 236.17C267.45 254.25 285.83 268.97 308.55 269.07C331.28 269.17 349.73 254.6 349.79 236.53C349.79 236.26 349.75 236 349.74 235.73C346.35 249.31 332.31 253.6 323.11 254.62Z" />
						<path id="SvgjsPath4215" class="shp30" d="M349.91 235.13C351.2 229.31 336.67 225 317.49 227.35C298.32 229.71 285.01 241.44 286.76 247.36C287.73 250.64 313.89 255.63 323.11 254.62C332.45 253.58 346.79 249.2 349.91 235.13Z" />
						<path id="SvgjsPath4219" class="shp26" d="M348.89 222.11C338.16 217.07 325.05 216.61 313.61 219.55C307.48 220.98 300.95 222.83 295.6 226.28C290.64 229.17 286.61 232.65 282.84 236.96C286.26 232.63 289.91 229.01 294.63 226.07C300.43 222.46 306.79 220.22 313.41 218.64C325.1 215.77 338.2 216.42 348.89 222.11Z" />
						<path id="SvgjsPath4220" class="shp27" d="M361.72 226.08C361.72 226.08 355.79 228.33 352.56 227.66C353.55 226.49 355.35 223.57 355.35 223.57C355.35 223.57 350.62 224.98 347.31 223.65C345.07 222.75 336.95 221.1 333.4 220.93C329.1 220.72 320.47 221.25 316.23 222.01C307.62 223.57 293.32 228.72 286.45 240.33C285.8 241.79 282.86 242.68 282.86 242.68C282.86 242.68 285.46 242.13 285.79 242.79C286.51 244.22 282.48 247.93 281.98 248.39C282.39 248.02 285.26 245.5 286.37 245.93C286.52 245.98 286.72 246.92 286.76 247.16C286 240.97 299.1 229.95 317.5 227.76C336.67 225.49 351.2 229.66 349.91 235.31C346.79 248.95 332.45 253.19 323.11 254.19C316.67 254.88 301.95 252.72 293.34 250.27L290.76 249.46C295.86 252.04 309.94 255.06 315.66 255.59C317.56 255.77 321.38 255.86 323.28 255.81C338.45 255.4 349.19 247.7 353.19 237.29C353.51 236.46 354.45 235.72 355.32 235.52C359.41 234.6 368.32 230.9 368.32 230.9C362.4 231.82 359.44 232.62 354.79 231.05C359.33 229.35 361.72 226.08 361.72 226.08Z" />
					</g>
				</g>
				<g id="svga-group-facehighlight-single">
					<path id="SvgjsPath2753" class="shp31" d="M355.4 307.77C355.49 364.57 309.52 410.7 252.71 410.78C195.91 410.87 149.79 364.9 149.7 308.08C149.61 251.29 195.58 205.16 252.39 205.08C309.19 204.99 355.32 250.96 355.4 307.77Z" />
					<path id="SvgjsPath2757" class="shp32" d="M342.13 162.4C342.13 211.69 302.17 251.65 252.88 251.65C203.59 251.65 163.63 211.69 163.63 162.4C163.63 113.11 203.59 73.15 252.88 73.15C302.17 73.15 342.13 113.11 342.13 162.4Z" />
				</g>
				<g id="svga-group-eyebrows-left">
					<path id="SvgjsPath4311" class="shp33" d="M188.62 195.72C177.34 194.51 134.43 205.19 134.43 205.19C134.43 205.19 177.24 188.01 195.01 190.74C208.24 192.78 231.72 203.69 227.41 209.46C223.94 214.1 213.12 198.36 188.62 195.72Z" />
				</g>
				<g id="svga-group-eyebrows-right">
					<path id="SvgjsPath4312" class="shp33" d="M277.7 208.78C273.33 202.93 297.06 192.69 312.24 191.43C330.39 189.92 370.67 201.84 370.67 201.84C370.67 201.84 330.13 195.14 318.71 196.47C293.68 199.39 281.21 213.48 277.7 208.78Z" />
				</g>
				<g id="svga-group-nose-single">
					<path id="SvgjsPath2986" class="shp3" d="M233.2 316C231.3 321.26 246.02 326.94 251.61 327.29C257.66 327.66 274.62 319.89 271.74 314.56C268.72 308.96 257.38 313.83 252.5 313.83C247.63 313.83 235.74 308.97 233.2 316Z" />
					<path id="SvgjsPath2987" fill-rule="evenodd" class="shp26" d="M258.51 318.51C257.89 317.18 261.56 315.12 262.97 314.71C264.95 314.13 269.36 315.31 269.19 316.83C269.03 318.15 265.1 316.4 263.82 316.77C262.49 317.15 259.09 319.77 258.51 318.51ZM235.79 318.3C235.24 317.33 239.21 315.02 240.32 314.89C241.66 314.72 246.22 316.22 245.64 317.44C245.15 318.46 242.48 317.29 240.68 317.29C238.31 317.29 236.3 319.2 235.79 318.3Z" />
					<path id="SvgjsPath2988" class="shp34" d="M252.52 308.97C254.22 308.97 257.13 307.35 257.56 304.13C259.49 289.91 256.23 252.5 252.52 252.5C249.04 252.5 246.12 290.81 247.02 304.13C247.25 307.39 250.59 308.97 252.52 308.97Z" />
				</g>
				<g id="svga-group-hair-front">
					<path id="SvgjsPath4451" class="shp35" d="M349.61 381.01C391.72 238.35 342.36 159.72 336.65 135.01C335.47 129.92 329.41 115.43 329.41 115.43C306.82 102.98 293.94 100.24 267.33 100.24C249.43 100.24 239.83 100.65 222.43 106.32C204.17 124.5 151.2 189.63 129.63 238.35C140.3 278.81 147.04 412.08 141.95 423.78C102.66 425.05 116.55 94.57 116.55 94.57C130.22 94.57 379.71 83.96 393.78 83.96C393.78 83.97 408.8 376.22 349.61 381.01Z" />
					<path id="SvgjsPath4452" class="shp36" d="M325.91 621.92C345.19 581.45 340.03 554.36 335.05 528.15C331.32 508.55 327.45 488.28 334.02 462.59C331.87 428.33 340.73 399.7 350.11 369.4C368 311.56 388.28 246.02 334.71 123.42L334.65 123.26L334.49 123.17C311.91 110.72 285.9 104.14 259.3 104.14C241.4 104.14 223.5 107.01 206.1 112.68C187.83 130.87 144.74 187.59 123.17 236.31C123.8 246.44 125.37 257.21 128.09 270.43C139.16 324.8 139.56 369.14 139.96 412.03C140.54 476.25 141.1 536.95 179.46 618.65C174.73 614.51 170.14 610.54 165.7 606.69C118.19 565.59 86.8 538.44 78.09 476.52L77.08 476.57C77.08 476.57 76.24 500.15 75.88 510.08C49.79 381.92 46.69 278.55 61.87 174.88C74.6 87.93 155.9 4.45 221.05 4.45C234.72 4.45 247.9 6.88 260.23 11.67L260.42 11.74L260.6 11.66C276.12 5.54 291.12 2.43 305.2 2.43C346.32 2.43 381.45 21.7 406.81 72.61C436.43 132.08 452.19 224.67 448.97 320.28C445.84 413.45 425.58 493.93 394.67 536.35C396.35 527.52 396.88 523.6 397.89 513.64L396.9 513.41C377.85 564.63 352.93 592.12 328.82 618.7C327.85 619.78 326.87 620.86 325.91 621.92Z" />
					<path id="SvgjsPath4453" fill-rule="evenodd" class="shp37" d="M125.44 239C126.19 248.07 127.7 257.8 130.09 269.43C141.16 323.8 141.56 368.14 141.96 411.03C142.54 475.25 143.1 535.95 181.46 617.65C176.73 613.51 172.14 609.54 167.7 605.7C143.29 584.58 123.16 567.14 108.15 546.79C84.48 500.95 76.6 467.41 76.6 392.07C88.07 453.7 91.05 484.71 137.14 546.77C91.47 457.84 74.01 325.68 125.44 239ZM396.67 535.35C398.35 526.52 398.88 522.6 399.89 512.64L398.9 512.41C379.85 563.63 354.93 591.12 330.82 617.7C329.84 618.78 328.87 619.85 327.9 620.92C347.19 580.45 342.03 553.36 337.04 527.15C333.31 507.54 329.45 487.27 336.02 461.59C333.87 427.33 342.72 398.7 352.1 368.39C365.38 325.47 379.94 278.27 364.68 206.66C408.1 304.52 364.8 403.33 354.88 496.44C358.67 460.94 380.9 453.28 393.78 405.68C393.78 455.83 385.06 489.4 375.28 529.6C402.44 484.71 416.08 414.85 426.28 356.2C426.65 401.28 428.03 415.04 421.18 460.75C432.95 430.17 440.49 361.56 445.41 330.3C441.11 418.76 426.36 494.61 396.67 535.35ZM354.88 496.45C354.88 496.45 354.88 496.44 354.88 496.44C354.88 496.44 354.88 496.45 354.88 496.45ZM92.92 204.29C86.69 218.12 76.31 363.07 84.55 394.4C84.67 394.83 84.4 393.96 83.86 392.07C71.37 351.69 85.72 217.49 92.92 204.29ZM68.65 295.5C68.01 305.2 72.26 406.52 72.58 407.76C72.64 408.29 72.21 405.63 71.82 401.23C68.87 369.94 66.56 302.98 68.65 295.5ZM68.77 294.76C69.03 294.7 68.95 294.8 69.03 294.82C68.89 294.86 68.76 295.09 68.65 295.5C68.68 295.04 68.72 294.79 68.77 294.76ZM405.85 203.24C423.51 273.35 419.96 336.72 405.33 407.97C397.01 450 406.77 402.15 410.51 359.55C418.06 265.93 413.19 238.3 405.85 203.24Z" />
					<path id="SvgjsPath4454" class="shp38" d="M321.73 93.55C364.8 109.88 403.33 284.8 388.03 386.8C413.93 274.6 407.33 179.58 359.98 83.35C403.25 154.51 421.5 182.57 427.23 293.56C435.7 243.59 434.49 182.97 426.29 115.33C421.17 99.37 415.33 84.69 408.81 71.61C383.46 20.7 348.32 1.43 307.2 1.43C293.12 1.43 278.13 4.54 262.61 10.66L262.43 10.74L262.24 10.67C249.91 5.88 236.73 3.45 223.06 3.45C190.97 3.45 153.94 24.55 123.6 55.92C80.55 120.93 67.04 201.01 69.28 277.15C71.83 215.95 102.43 154.75 140.68 108.85C112.63 175.15 92.23 244 89.68 315.4C104.98 215.95 180.13 90.33 237.58 70.6C255.18 64.56 277.02 67.32 282.5 86.97C285.53 91.68 287.08 97.49 286.03 103.75C289.62 100.88 293.15 98.74 296.65 97.28C305.17 90.55 314.36 90.76 321.73 93.55Z" />
					<path id="SvgjsPath4455" class="shp0" d="M286.03 103.75C288.58 88.45 273.28 74.17 260.53 74.17C239.83 74.17 219.36 94.01 206.52 113.29C207.06 112.72 207.59 112.18 208.1 111.68C225.49 106.01 243.39 103.13 261.29 103.13C287.9 103.13 313.9 109.72 336.49 122.17L336.64 122.25L336.71 122.41C336.85 122.73 336.97 123.02 337.1 123.33C336.41 114.43 326.5 103.75 321.64 100.26C308.89 92.61 298.48 92.04 286.03 103.75Z" />
					<path id="SvgjsPath4456" fill-rule="evenodd" class="shp36" d="M313.08 59.26C349.03 66.32 366.28 104.3 376.49 139.69C371.37 122.97 351.62 68.36 313.08 59.26ZM376.49 139.69C377.69 143.6 378.09 145.44 377.74 144.13C377.34 142.66 376.92 141.17 376.49 139.69ZM425.77 174.41C425.7 173.78 425.62 173.15 425.54 172.52C425.84 174.55 425.89 175.28 425.77 174.41ZM425.54 172.52C423.31 157.65 407.58 73 348.03 35.75C395.77 62.79 418.57 118.02 425.54 172.52ZM132.23 170.58C139.73 155.46 154.77 125.5 171.44 105.23C199.47 70 235.94 65.8 231.05 66.89C187.85 77.06 152.74 129.83 132.23 170.58ZM130.28 174.49C130.92 173.2 131.57 171.89 132.23 170.58C131.51 172.02 130.86 173.34 130.28 174.49ZM111.35 115.55C125.16 79.04 150.52 49.49 191.18 36.39C202.68 32.82 138.63 51.08 111.35 115.55ZM327.83 27.06L327.72 27.3C311.59 20.64 292.86 21.68 282.65 34.68C285.72 41.57 287.85 49.46 289.01 58.27C290.39 68.02 290.53 101.89 289.49 79.63C288.55 62.89 285.49 48.24 279.89 36.38C267.62 23.8 234.58 34.13 232.09 35.89C229.56 36.74 261.15 14.78 278.56 33.73C270.31 15.49 249.72 1.75 218.69 3.86C250.35 -0.12 271.35 10.93 281.95 33.15C288.73 18.89 311.92 19.03 327.83 27.06Z" />
					<path id="SvgjsPath4457" fill-rule="evenodd" class="shp39" d="M286.6 105.14C286.6 105.14 286.66 103.16 286.39 102.09C277.44 65.44 251.34 72.7 229.81 91.69C249.37 84.04 274.92 84.17 282.67 104.55C269.75 85.14 246.61 87.1 225.7 95.38C225.09 95.95 211.59 108.84 211.34 109.08L208.26 112.16C189.59 130.83 146.91 187.46 125.64 235.51C126.4 246.88 128.29 258.15 130.58 269.32C158.71 407.5 118.05 483.17 182.96 619.64C126.12 569.81 89.23 544.2 79.58 475.59C79.58 475.59 78.3 511.67 78.23 513.35C53.51 393.57 44.23 285.25 63.36 173.8C85.28 46.13 193.9 -21.87 262.42 10.19C474.4 -75.42 494.83 406.21 395.76 537.45C397.72 527.28 398.28 523.48 399.38 512.59C378.85 567.79 350.88 596.17 325.86 623.95C362.39 550.88 319.95 522.4 335.53 461.46C329.16 361.34 417.48 308.56 336.24 122.62L334.68 119.25C321.82 92.66 302.25 90.86 288.69 102.17C287.73 102.97 286.6 105.14 286.6 105.14ZM441.99 212.58C438.26 244.13 432.66 260.27 432.66 260.27C445.07 196.21 425.45 117.96 418.38 101.12C387.19 26.94 339.57 -19.72 262.32 11.77C203.28 -13.2 93.6 36.49 69.97 183.69C49.11 313.66 61.64 386.26 76.35 485.92C79.09 434.44 76.1 471.35 76.7 407.63C80.11 506.87 90.09 531.4 177.94 613.11C109.4 475.71 149.73 411.32 126.79 264.32C125.49 256.01 124.49 247.59 124.03 239.15C116.81 255.85 110.97 273.28 105.09 302.32C108.19 281.93 111.43 258.65 123.75 228.77C123.75 228.75 123.78 228.72 123.78 228.7C140.84 187.38 175.6 140.66 198.26 115.76C213.99 98.49 267.33 38.32 288.69 99.92C311.46 84.34 330.16 100.49 342.57 126.42C345.88 133.59 367.97 187.04 372.28 220.74C375.73 247.66 388.64 280.95 374.93 328.84C376.43 322.96 380.15 302.51 374.69 258.18C367.49 407.81 316.98 406.36 353.86 535.26C356.07 504.26 369.49 474.75 374.08 468.42C362 490.64 356.79 521.56 355.54 546.73C346.75 520.34 338.27 493.11 335.81 465.01C324.81 524.57 366.06 540.23 331.55 616.3C380.23 559.64 405.67 498.49 419.83 428.7C419.38 431.25 416.55 460.01 404.46 497.8C403.79 509.21 402.02 518.94 399.3 530.44C437.85 460.32 443.36 352.18 444.33 320.66C445.42 285.12 445.57 247.33 441.99 212.58ZM374.39 330.7C374.58 330.08 374.76 329.46 374.93 328.84C374.61 330.11 374.39 330.7 374.39 330.7Z" />
				</g>
				<g id="svga-group-glasses-single">
					<path id="SvgjsPath4458" class="shp40" d="M252.88 65.83L252.88 65.83L252.88 65.83L252.88 65.83Z" />
				</g>
			</g>
		</g>
	</g>
</svg>