<?xml version="1.0" encoding="UTF-8" standalone="no"?>
<!-- Created with Inkscape (http://www.inkscape.org/) -->

<svg
   xmlns:dc="http://purl.org/dc/elements/1.1/"
   xmlns:cc="http://creativecommons.org/ns#"
   xmlns:rdf="http://www.w3.org/1999/02/22-rdf-syntax-ns#"
   xmlns:svg="http://www.w3.org/2000/svg"
   xmlns="http://www.w3.org/2000/svg"
   xmlns:sodipodi="http://sodipodi.sourceforge.net/DTD/sodipodi-0.dtd"
   xmlns:inkscape="http://www.inkscape.org/namespaces/inkscape"
   width="60mm"
   height="60mm"
   viewBox="0 0 60 60"
   version="1.1"
   id="svg8"
   inkscape:version="0.92.4 (unknown)"
   sodipodi:docname="jfLogosvg.svg">
  <defs
     id="defs2" />
  <sodipodi:namedview
     id="base"
     pagecolor="#ffffff"
     bordercolor="#666666"
     borderopacity="1.0"
     inkscape:pageopacity="0.0"
     inkscape:pageshadow="2"
     inkscape:zoom="0.98994949"
     inkscape:cx="461.25092"
     inkscape:cy="390.59421"
     inkscape:document-units="mm"
     inkscape:current-layer="layer1"
     showgrid="false"
     inkscape:window-width="1853"
     inkscape:window-height="1025"
     inkscape:window-x="67"
     inkscape:window-y="27"
     inkscape:window-maximized="1" />
  <metadata
     id="metadata5">
    <rdf:RDF>
      <cc:Work
         rdf:about="">
        <dc:format>image/svg+xml</dc:format>
        <dc:type
           rdf:resource="http://purl.org/dc/dcmitype/StillImage" />
        <dc:title></dc:title>
      </cc:Work>
    </rdf:RDF>
  </metadata>
  <g
     inkscape:label="Layer 1"
     inkscape:groupmode="layer"
     id="layer1"
     transform="translate(0,-237)">
    <path
       style="opacity:1;fill:#ffffff;fill-opacity:1;fill-rule:nonzero;stroke:#000000;stroke-width:1.36500001;stroke-linejoin:miter;stroke-miterlimit:4;stroke-dasharray:none;stroke-opacity:0"
       id="path910"
       d="m 20.533366,256.69708 c 0.280823,0.82761 0.627531,1.63037 0.924491,2.45179 0.220713,0.76063 0.46047,1.51476 0.696016,2.27076 0.24743,0.96597 0.487939,1.93399 0.714742,2.90506 0.148752,0.88181 0.300821,1.7621 0.475147,2.63936 0.203062,0.97073 0.465997,1.92673 0.73415,2.8811 0.258008,0.72419 0.474355,1.46011 0.652817,2.20762 0.189442,0.93861 0.343673,1.8833 0.508241,2.82646 0.173064,0.84838 0.183742,1.71904 0.312526,2.57223 0.125976,0.65179 0.182287,1.3128 0.29337,1.96693 0.143602,0.72009 0.18973,1.45202 0.212418,2.1842 0.01405,0.77656 0.02188,1.55321 0.02635,2.32988 -0.06113,0.87913 -0.31387,1.73139 -0.472339,2.59688 -0.217631,1.44217 -0.40394,2.88786 -0.51947,4.34188 -0.07331,0.618 -0.10174,1.28723 -0.482571,1.80533 -0.573442,-0.91716 -2.457767,2.26844 -3.913918,2.04759 -0.257053,-0.039 -0.512561,-0.12125 -0.772011,-0.16154 -0.815274,-0.23527 -1.667799,-0.25943 -2.497027,-0.4133 -0.759854,-0.1163 -1.512853,-0.26639 -2.271747,-0.38879 -0.726889,-0.18081 -1.463261,-0.31091 -2.170426,-0.56225 -0.584317,-0.1834 -1.13283,-0.45476 -1.650338,-0.7796 -0.654001,-0.43885 -1.073664,-1.09681 -1.4317909,-1.78071 -0.538814,-0.9679 -0.740019,-2.03753 -0.859755,-3.12415 -0.160659,-1.20046 0.0569,-2.35787 0.483672,-3.4767 0.5062049,-1.2499 1.3884199,-2.26889 2.2436079,-3.28913 0.683464,-0.80189 1.329739,-1.63276 2.057309,-2.39553 0.903348,-0.9052 1.805125,-1.81265 2.734074,-2.69166 0.914019,-0.91504 1.895306,-1.75571 2.882715,-2.58922 1.089713,-0.99111 2.219918,-1.92941 3.395985,-2.81602 1.256843,-0.96566 2.514656,-1.9288 3.795604,-2.86247 1.747668,-1.2541 3.675923,-2.23209 5.522291,-3.32413 0.92393,-0.54645 -1.857272,1.07702 -2.794106,1.60104 -0.196326,0.10981 0.381334,-0.23873 0.572003,-0.3581 2.698819,-1.61688 5.450054,-3.14401 8.182049,-4.70356 -0.790154,0.45421 -1.579311,0.91016 -2.370463,1.36262 -0.306496,0.17529 0.611322,-0.35347 0.916474,-0.53108 1.22088,-0.7106 2.443644,-1.41788 3.659093,-2.13775 1.662559,-0.95928 3.193605,-2.11307 4.6478,-3.36037 0.81357,-0.69119 1.48499,-1.47147 1.797452,-2.49935 0.187542,-0.85766 0.162851,-1.73633 0.08328,-2.60437 -0.10437,-1.13507 -0.712038,-2.0797 -1.327991,-3.00229 -0.60379,-0.99061 -1.391328,-1.83267 -2.278524,-2.5715 -0.795125,-0.57642 -1.601086,-1.13779 -2.38085,-1.73505 -0.623234,-0.51647 -1.326176,-0.85986 -2.061154,-1.17578 -0.513744,-0.22064 -1.064885,-0.28043 -1.616933,-0.30992 -0.07507,-0.0945 -0.790651,0.31213 -0.738917,0.28284 5.506987,-3.11825 3.69969,-2.372 2.691122,-1.39012 -0.50782,0.65785 -0.885071,1.41019 -1.278398,2.14022 -0.526561,0.96033 -0.921271,1.98507 -1.290796,3.01375 -0.290883,0.88943 -0.59154,1.77432 -0.753896,2.69744 -0.134842,1.00594 -0.131006,2.02374 -0.136647,3.0367 -0.0024,1.10819 0.0057,2.21637 0.0029,3.32456 0.0024,1.39185 -0.02513,2.78375 0.0087,4.17524 0.04041,2.20556 0.277138,4.39775 0.568521,6.58196 0.198194,1.63607 0.463846,3.26295 0.717116,4.89109 0.180842,1.25317 0.268954,2.51654 0.431366,3.7721 0.150307,1.2381 0.342696,2.46879 0.600024,3.68909 0.173937,0.77526 0.37069,1.54461 0.553858,2.31777 0.181621,0.66007 0.203221,1.35111 0.403331,2.00502 0.133998,0.38146 0.06845,0.19051 0.196678,0.57283 0,0 -3.465277,1.90674 -3.465277,1.90674 v 0 c -0.12259,-0.38017 -0.05774,-0.18768 -0.195041,-0.57732 -0.220165,-0.66194 -0.235209,-1.35864 -0.411546,-2.03282 -0.193085,-0.77786 -0.360817,-1.56432 -0.528865,-2.34771 -0.242879,-1.23372 -0.447643,-2.47246 -0.591799,-3.72206 -0.181348,-1.25206 -0.275733,-2.51172 -0.428897,-3.76697 -0.243856,-1.64096 -0.467456,-3.28507 -0.654873,-4.93359 -0.274717,-2.19091 -0.522327,-4.38539 -0.623689,-6.59253 -0.07117,-1.38744 -0.04783,-2.7762 -0.05933,-4.16514 -0.0062,-1.10841 -0.0055,-2.21685 -0.0063,-3.32527 0.0024,-1.02647 -0.01246,-2.05644 0.08831,-3.07913 0.133408,-0.95706 0.451135,-1.85671 0.745066,-2.77429 0.367692,-1.03945 0.744162,-2.08191 1.256668,-3.06047 0.388895,-0.74622 0.784736,-1.49002 1.214358,-2.21335 1.139105,-1.49743 3.024407,-2.66365 4.908542,-2.72952 0.580578,0.0593 1.150805,0.17325 1.682776,0.42406 0.752465,0.33089 1.438037,0.76162 2.085404,1.27013 0.795263,0.58715 1.597443,1.16485 2.388674,1.75735 0.89912,0.77683 1.691751,1.65902 2.317427,2.67418 0.652934,0.97043 1.302348,1.96582 1.446734,3.15596 0.09749,0.9075 0.13644,1.81799 -0.01116,2.72431 -0.260446,1.16372 -0.875308,1.9576 -1.767573,2.74332 -1.462712,1.26695 -2.989128,2.45957 -4.663432,3.43898 -2.895166,1.72512 -5.832655,3.37841 -8.740161,5.08243 -0.302398,0.17201 -0.604795,0.34401 -0.907193,0.51602 -0.299111,0.169 -0.598583,0.33736 -0.897334,0.507 -0.285232,0.16196 -1.137735,0.65338 -0.854612,0.48777 4.926406,-2.88167 2.173409,-1.25117 1.071602,-0.61875 -2.093286,1.34858 -7.948644,4.6327 -1.640192,1.00022 0.184587,-0.10629 -0.36766,0.21525 -0.549217,0.32664 -0.520462,0.31931 -0.614833,0.39098 -1.126424,0.73571 -1.295757,0.92594 -2.564701,1.88671 -3.820972,2.86535 -1.169572,0.86865 -2.303883,1.77785 -3.36464,2.77815 -0.98612,0.83887 -1.998784,1.64924 -2.903955,2.57832 -0.932818,0.85374 -1.809002,1.76651 -2.705939,2.65756 -0.743212,0.75965 -1.420193,1.5718 -2.103911,2.38505 -0.835546,0.99915 -1.740841,1.96586 -2.274966,3.17195 -0.461816,1.04751 -0.707294,2.15204 -0.566234,3.30209 0.105542,1.03705 0.280163,2.0639 0.806904,2.98211 0.336246,0.62245 0.726466,1.21272 1.350681,1.58162 0.504508,0.29303 1.027541,0.54768 1.588966,0.71466 0.698976,0.21604 1.415582,0.36302 2.130367,0.51626 0.756348,0.13378 1.513575,0.25776 2.270038,0.39042 0.836128,0.1287 1.677545,0.22304 2.506307,0.39798 0.235861,0.0348 0.48963,0.10327 0.729187,0.061 0.230457,-0.0406 0.334983,-0.13745 0.291846,-0.11217 -1.08712,0.63718 -2.176312,1.27082 -3.264466,1.90623 0.607295,-0.17847 0.570489,-1.02622 0.687178,-1.53061 0.142581,-1.46207 0.34159,-2.91666 0.521031,-4.37439 0.120504,-0.84448 0.291483,-1.67474 0.443632,-2.51203 0.0051,-0.7747 0.01323,-1.54966 -0.0087,-2.3242 -0.02479,-0.71397 -0.0609,-1.42903 -0.193114,-2.13279 -0.115264,-0.65541 -0.187291,-1.31461 -0.305091,-1.96961 -0.131374,-0.85454 -0.09464,-1.73185 -0.274961,-2.58222 -0.164309,-0.93281 -0.327866,-1.8652 -0.519708,-2.7927 -0.179333,-0.74332 -0.381924,-1.48106 -0.631207,-2.20443 -0.260678,-0.96572 -0.532685,-1.92814 -0.746379,-2.90579 -0.178048,-0.87373 -0.355698,-1.74626 -0.47426,-2.63054 -0.205052,-0.9649 -0.455771,-1.91921 -0.700633,-2.87455 -0.238564,-0.75032 -0.504266,-1.49153 -0.697714,-2.25589 -0.275328,-0.81803 -0.606988,-1.61659 -0.93632,-2.41402 0,0 3.457175,-1.94165 3.457175,-1.94165 z"
       inkscape:connector-curvature="0" />
    <path
       style="opacity:1;fill:#ffffff;fill-opacity:1;fill-rule:nonzero;stroke:#000000;stroke-width:1.36500001;stroke-linejoin:miter;stroke-miterlimit:4;stroke-dasharray:none;stroke-opacity:0"
       d="m 15.986324,246.23016 c 0.340085,0.68715 0.71266,1.35736 1.059635,2.04091 0.256074,0.53231 0.607788,1.0081 1.047525,1.40132 0.296638,0.28558 0.424032,0.64851 0.491027,1.0436 0.01053,0.0479 0.02106,0.0958 0.03159,0.14378 0,0 -3.495945,1.89834 -3.495945,1.89834 v 0 c -0.0191,-0.0624 -0.0382,-0.12491 -0.0573,-0.18736 -0.03087,-0.31665 -0.102756,-0.59343 -0.348112,-0.81728 -0.443476,-0.44995 -0.82262,-0.95932 -1.095086,-1.53172 -0.337656,-0.68753 -0.697639,-1.36559 -1.083595,-2.02707 0,0 3.450258,-1.96452 3.450258,-1.96452 z"
       inkscape:connector-curvature="0"
       id="path912" />
  </g>
</svg>
