<svg xmlns="http://www.w3.org/2000/svg" version="1.1" width="600px" height="600px" xlink="http://www.w3.org/1999/xlink" style="overflow:hidden!important;"><g id="svga-group-wrapper" transform="scale(3 3)"><g id="svga-group-backs-single"></g><g id="svga-group-subwrapper" transform="matrix(0.89999969 0 0 0.89999969 10.005154154309466 11.46687438387032)"><g id="svga-group-hair-back" ><path id="SvgjsPath4214" d="M160.527 108.896c-0.826 32.13-5.272 102.953-58.469 102.589 -80.381-0.551-60.969-69.5-61.767-102.589 -1.15-47.67 26.917-86.339 60.118-86.339C133.611 22.558 161.753 61.229 160.527 108.896z" fill="#b78383" stroke-width="none" opacity="1" stroke="none"></path></g><g id="svga-group-humanbody-single"><path id="SvgjsPath2761" d="M190.858 199.866c-6.008-10.158-13.474-11.973-19.628-13.936 -6.323-2.016-19.346-3.178-26.449-4.6 -6.86-1.373-23.153-5.789-23.339-13.488 -0.192-8.066 4.291-40.09 4.291-40.09H74.005c0 0 4.487 32.023 4.294 40.09 -0.184 7.699-16.48 12.115-23.341 13.488 -7.104 1.422-20.125 2.584-26.448 4.6 -6.156 1.963-13.624 3.777-19.632 13.936 -3.644 6.16-6.008 16.133-6.008 27.133h194C196.869 215.999 194.509 206.026 190.858 199.866z" fill="#f3d4cf" stroke-width="none" opacity="1" stroke="none"></path><path id="SvgjsPath2762" d="M121.442 167.843c2.495 10.929 18.165 13.698 26.293 15.325 21.909 4.379 33.772 5.134 42.297 19.539 2.903 4.916 5.459 15.864 5.962 24.153 1.835 0.291 0.531-17.432-5.136-26.994 -9.742-16.472-29.089-15.135-46.077-18.535C137.921 179.958 121.628 175.542 121.442 167.843L121.442 167.843zM78.558 167.843c-0.186 7.699-16.479 12.115-23.339 13.488 -16.988 3.4-36.335 2.063-46.077 18.535 -5.667 9.563-6.971 27.285-5.136 26.994 0.503-8.289 3.059-19.237 5.962-24.153 8.524-14.405 20.388-15.16 42.297-19.539C60.393 181.541 76.063 178.771 78.558 167.843L78.558 167.843z" fill="#fff4f3" stroke-width="none" opacity="1" stroke="none"></path><path id="SvgjsPath2763" d="M51.206 189.513c0 0 28.641 0.299 33.473 1.885 2.314 0.758 8.372 5.633 8.372 5.633s-6.556-3.17-8.658-3.758C79.51 191.909 51.206 189.513 51.206 189.513zM99.795 199.999c2.053-0.041 7.887-3.799 7.887-3.799s-5.574 2.059-7.342 2.16c-1.491 0.086-6.366-1.238-6.366-1.238S98.112 200.032 99.795 199.999zM117.008 192.757c6.75-1.818 29.786-3.23 29.786-3.23s-23.791-0.516-30.51 1.725c-2.252 0.752-7.562 5.16-7.562 5.16S114.786 193.354 117.008 192.757z" fill="#e4b3ab" stroke-width="none" opacity="1" stroke="none"></path><path id="SvgjsPath2764" d="M190.858 199.866c-9.741-16.471-29.122-15.142-46.077-18.535 -6.86-1.373-23.153-5.789-23.339-13.488 -0.192-8.066 4.291-40.09 4.291-40.09H74.005c0 0 4.487 32.023 4.294 40.09 -0.184 7.699-16.48 12.115-23.341 13.488 -7.104 1.422-20.125 2.584-26.448 4.6 -6.156 1.963-13.624 3.777-19.632 13.936 -3.644 6.16-6.008 16.133-6.008 27.133h194C196.869 215.999 194.509 206.026 190.858 199.866z" fill="none" stroke="#c5796d" stroke-width="1.5" opacity="1"></path></g><g id="svga-group-chinshadow-single"><path id="SvgjsPath4105" d="M86.802 168.302c5.312 2.491 21.035 2.373 26.401 0 2.491-1.102 5.112-2.879 7.755-5.086 0.699-10.328 3.327-29.728 3.986-34.51 -1.113-0.109-2.256-0.21-3.428-0.303H78.609c-1.305 0.103-2.578 0.216-3.811 0.339 0.66 4.783 3.223 23.705 3.958 34.093C81.507 165.186 84.231 167.097 86.802 168.302z" fill="url(#SvgjsLinearGradient4106)" opacity="1"></path></g><g id="svga-group-clothes-single" ><path id="SvgjsPath4090" d="M3.229 223.031c-0.622-0.007-0.456-0.006-0.92-0.006 0.025-17.784 6.689-31.059 17.837-35.518 1.466 0.314 3.037 0.725 4.514 1.033C11.551 194.886 4.531 208.814 3.229 223.031zM181.643 188.404c-1.855 0.251-3.683 0.491-5.504 0.729 13.353 5.75 17.424 20.534 19.434 33.854 0.344-0.001 0.655-0.002 0.931-0.002C195.421 206.217 195.152 195.351 181.643 188.404z" fill="#1fbad4" stroke-width="none" opacity="1" stroke="none"></path><path id="SvgjsPath4091" d="M181.509 192.193c0.734-0.111 2.033-0.324 2.761-0.438 -1.678-1.271-2.67-1.958-3.67-2.549 -5.851 1.009-59.284 7.112-88.51 7.112 -38.337 0-66.622-6.76-71.951-8.293 -1.09 0.62-2.15 1.301-3.15 2.061 1 0.257 2.201 0.598 3.218 0.841 -10.338 7.09-15.825 19.518-16.978 32.104 30.39 0.341 61.447 0.514 92.321 0.514 0.005 0 0.01 0 0.015 0 40.676 0 71.674-0.298 88.328-0.458 5.388-0.052 9.327-0.09 11.679-0.1C193.85 211.572 190.635 199.159 181.509 192.193z" fill="#09aac5" stroke-width="none" opacity="1" stroke="none"></path><path id="SvgjsPath4092" d="M23.439 189.002c-1.117 0.595-2.181 1.252-3.204 1.955 49.803 12.038 110.22 9.005 161.174 1.236 -1.131-0.854-2.354-1.625-3.673-2.303C129.006 198.106 71.062 201.817 23.439 189.002z" fill="#009cb6" stroke-width="none" opacity="1" stroke="none"></path><path id="SvgjsPath4093" d="M181.629 188.306c-89.42 12.081-124.385 7.031-161.52-0.891 -13.279 5.312-17.9 21.352-17.9 35.71 0.17 0 0.33 0 0.49 0 105.661 1.193 182.323-0.04 193.91-0.04C195.509 206.252 195.316 195.321 181.629 188.306zM20.239 188.125c49.132 14.134 109.964 10.021 160.36 1.28 1 0.591 1.992 1.079 3.67 2.35 -52.607 8.26-115.869 11.615-167.18-1.569C18.089 189.426 19.149 188.745 20.239 188.125zM2.769 222.605c1.961-14.393 4.62-24.719 13.97-32.15 50.694 14.553 116.182 11.469 168.26 1.86 8.309 6.651 7.884 13.707 11.01 30.32C140.967 222.022 68.396 221.847 2.769 222.605z" fill="#008197" stroke-width="none" opacity="1" stroke="none"></path></g><g id="svga-group-head" ><g id="svga-group-ears-left" style="display:none;"><path id="SvgjsPath2774" d="M47.001 83.974c-1.376-2.313-5.638-7.997-9.98-6.603 -2.749 0.882-3.293 3.765-3.735 6.311 -0.588 3.386 0.471 10.083 1.389 12.503 0.881 2.325 3.533 6.816 5.264 8.527 2.13 2.1 4.775 8.793 5.194 9.487 0.66 1.097 1.536 2.745 4.122 2.538 2.853-0.229 4.584-1.742 5.856-1.999C58.253 114.109 50.582 89.995 47.001 83.974z" fill="#f3d4cf" stroke="#c5796d" stroke-width="1.5" opacity="1"></path><path id="SvgjsPath2775" d="M44.197 97.997c-0.132-0.548 0.007-1.47 0.142-2.362 0.124-0.812 0.24-1.579 0.169-2.121 -0.267-2.032-1.773-5.893-2.757-7.985 -1.132-2.407-2.963-5.439-5.262-6.221 -0.95-0.324-1.575 0.063-1.938 0.456 -0.266 0.289-0.325 0.627-0.238 0.667 0.086 0.04 0.285-0.24 0.572-0.504 0.235-0.216 0.579-0.402 1.051-0.363 -0.19 1.011-1.167 6.49-0.744 10.225 0.333 2.938 1.593 5.131 1.79 5.46 0.029 0.346 0.077 0.685 0.148 1.014 0.929 4.287 4.971 9.163 6.378 10.758 0.259 0.295 0.531 0.47 0.598 0.398 0.066-0.072-0.094-0.364-0.353-0.66 -1.388-1.585-5.391-6.442-6.289-10.579 -0.952-4.389 2.318-10.896 3.048-12.272 0.371 0.646 0.687 1.267 0.93 1.785 0.19 0.406 0.402 0.881 0.619 1.395 -0.429 0.718-3.434 5.958-2.338 10.153 0.406 1.546 2.235 3.54 3.447 4.086 0.667 0.301 0.919 0.75 1.209 1.271 0.336 0.604 0.718 1.288 1.828 1.784 0.225 0.102 0.429 0.142 0.61 0.142 0.313 0 0.551-0.126 0.725-0.276 0.018 0.266 0.017 0.604 0.009 0.917 -0.012 0.404 0.042 0.737 0.137 0.745 0.094 0.008 0.196-0.313 0.207-0.717 0.016-0.496 0.013-1.11-0.072-1.403 -0.248-0.865-1.008-1.841-1.813-2.875C45.221 99.896 44.403 98.844 44.197 97.997zM36.95 94.196c-2.177-6.731 0.656-12.54 1.144-13.464 0.85 0.775 1.6 1.811 2.21 2.824C39.86 84.365 37.041 89.669 36.95 94.196zM46.341 104.042c-1.004-0.447-1.339-1.051-1.666-1.633 -0.293-0.527-0.598-1.072-1.369-1.42 -0.168-0.075-0.352-0.191-0.542-0.323 -2.486-5.906 0.272-8.488 0.963-9.017 0.211 0.722 0.369 1.384 0.439 1.915 0.063 0.488-0.052 1.263-0.167 2.012 -0.142 0.929-0.286 1.89-0.137 2.512 0.226 0.926 1.069 2.009 1.884 3.057 0.723 0.929 1.466 1.888 1.721 2.67C47.359 103.972 47.017 104.345 46.341 104.042z" fill="#c5796d" stroke-width="none" opacity="1" stroke="none"></path></g><g id="svga-group-ears-right" style="display:none;"><path id="SvgjsPath2776" d="M152.736 83.974c1.377-2.313 5.639-7.997 9.98-6.603 2.75 0.882 3.293 3.765 3.736 6.311 0.588 3.386-0.471 10.083-1.389 12.503 -0.881 2.325-3.533 6.816-5.266 8.527 -2.129 2.1-4.775 8.793-5.193 9.487 -0.658 1.097-1.535 2.745-4.121 2.538 -2.854-0.229-4.584-1.742-5.857-1.999C141.484 114.109 149.156 89.995 152.736 83.974z" fill="#f3d4cf" stroke="#c5796d" stroke-width="1.5" opacity="1"></path><path id="SvgjsPath2777" d="M153.727 100.913c-0.805 1.033-1.564 2.009-1.813 2.875 -0.086 0.293-0.088 0.907-0.072 1.403 0.012 0.404 0.113 0.725 0.207 0.717s0.148-0.341 0.137-0.745c-0.008-0.313-0.008-0.651 0.01-0.917 0.174 0.15 0.412 0.276 0.725 0.276 0.182 0 0.385-0.04 0.609-0.142 1.109-0.496 1.492-1.18 1.828-1.784 0.289-0.52 0.543-0.969 1.209-1.271 1.213-0.546 3.041-2.54 3.447-4.086 1.096-4.194-1.908-9.435-2.338-10.153 0.217-0.513 0.43-0.988 0.619-1.395 0.244-0.518 0.559-1.139 0.93-1.785 0.73 1.377 4 7.883 3.049 12.272 -0.896 4.137-4.9 8.994-6.289 10.579 -0.258 0.296-0.418 0.588-0.352 0.66 0.066 0.071 0.338-0.104 0.598-0.398 1.406-1.596 5.449-6.471 6.379-10.758 0.07-0.329 0.117-0.668 0.146-1.014 0.197-0.329 1.459-2.523 1.791-5.46 0.422-3.735-0.555-9.214-0.744-10.225 0.473-0.039 0.814 0.146 1.051 0.363 0.287 0.264 0.486 0.544 0.572 0.504s0.027-0.378-0.238-0.667c-0.363-0.393-0.988-0.779-1.938-0.456 -2.299 0.782-4.131 3.814-5.262 6.221 -0.984 2.093-2.49 5.953-2.758 7.985 -0.072 0.542 0.045 1.309 0.17 2.121 0.135 0.892 0.273 1.814 0.141 2.362C155.336 98.844 154.518 99.896 153.727 100.913zM159.434 83.555c0.611-1.013 1.361-2.049 2.211-2.824 0.488 0.925 3.32 6.733 1.145 13.464C162.697 89.669 159.879 84.365 159.434 83.555zM152.27 103.816c0.254-0.782 0.998-1.741 1.721-2.67 0.816-1.048 1.658-2.131 1.885-3.057 0.148-0.622 0.004-1.583-0.137-2.512 -0.115-0.749-0.23-1.524-0.166-2.012 0.068-0.531 0.227-1.193 0.438-1.915 0.691 0.529 3.449 3.111 0.965 9.017 -0.191 0.132-0.375 0.248-0.543 0.323 -0.771 0.348-1.074 0.893-1.369 1.42 -0.326 0.582-0.662 1.186-1.666 1.633C152.721 104.345 152.379 103.972 152.27 103.816z" fill="#c5796d" stroke-width="none" opacity="1" stroke="none"></path></g><g id="svga-group-faceshape-wrap" ><g id="svga-group-faceshape-single" ><path id="SvgjsPath4102" d="M144.004 125.052c-5.003 10.066-20.047 27.996-30.801 32.751 -5.366 2.374-21.089 2.491-26.401 0 -10.646-4.989-25.765-22.701-30.801-32.751 -5.613-11.199-14.852-47.803-14.863-47.856 -1.3-4.912-1.996-10.066-2.004-15.382C39.082 28.339 66.289 1.168 99.907 1.116c33.621-0.052 60.913 27.032 60.963 60.506 0.009 5.316-0.669 10.473-1.952 15.389C158.901 77.063 149.6 113.79 144.004 125.052z" fill="#f3d4cf" stroke-width="none" opacity="1"></path><path id="SvgjsPath4103" d="M110.152 1.969c26.994 6.24 47.097 30.337 47.052 59.111 -0.009 5.315-0.704 10.471-2.004 15.382 -0.012 0.053-8.61 36.669-14.13 47.856 -4.859 9.849-19.7 27.043-30.067 32.019 -2.163 1.037-8.694 1.529-11.001 1.529 -2.307 0-8.837-0.492-11-1.529 -10.367-4.976-25.209-22.17-30.067-32.019 -5.521-11.188-14.119-47.803-14.13-47.856 -1.3-4.911-1.996-10.066-2.004-15.382C42.756 32.307 62.857 8.209 89.853 1.969 61.03 6.788 39.087 31.751 39.134 61.813c0.008 5.315 0.704 10.47 2.004 15.382 0.012 0.053 9.232 36.665 14.863 47.856 5.052 10.041 20.207 27.65 30.801 32.751 2.658 1.28 9.305 1.827 12.954 1.824 3.646 0.003 10.791-0.544 13.447-1.824 10.594-5.102 25.748-22.71 30.801-32.751 5.631-11.191 14.852-47.803 14.862-47.856 1.3-4.912 1.996-10.066 2.004-15.382C160.918 31.751 138.975 6.788 110.152 1.969z" fill="#ebc3bd" stroke-width="none" opacity="1"></path><path id="SvgjsPath4104" d="M144.004 125.052c-5.003 10.066-20.047 27.996-30.801 32.751 -5.366 2.374-21.089 2.491-26.401 0 -10.646-4.989-25.765-22.701-30.801-32.751 -5.613-11.199-14.852-47.803-14.863-47.856 -1.3-4.912-1.996-10.066-2.004-15.382C39.082 28.339 66.289 1.168 99.907 1.116c33.621-0.052 60.913 27.032 60.963 60.506 0.009 5.316-0.669 10.473-1.952 15.389C158.901 77.063 149.6 113.79 144.004 125.052z" fill="none" stroke="#c5796d" stroke-width="1.5" opacity="1"></path></g></g><g id="svga-group-mouth-single" transform="matrix(1.00000011 0 0 1.00000011 -0.000010989203687472582 -0.000014826129671519084)"><path id="SvgjsPath4195" d="M99.867 142.685c-4.159 0-7.651-3.162-7.651-3.162 7.261 1.131 16.154-0.671 16.154-0.671S105.119 142.685 99.867 142.685z" fill="#e4b3ab" stroke-width="none" opacity="1"></path><path id="SvgjsPath4196" d="M99.869 138.507c-2.691 0.025-8.86-1.635-11.18-2.938 -1.374-0.769-3.749-3.433-5.4-4.788 -0.635-0.521-0.371-1.528 0.466-1.569 2.036-0.099 4.65 0.979 5.876 1.169 2.565 0.389 5.805 1.835 10.195 1.835 3.262 0 6.828-1.15 9.101-1.574 1.367-0.254 4.529-1.376 6.755-1.501 0.838-0.05 1.18 0.777 0.56 1.316 -1.739 1.526-4.526 4.328-6.028 5.112C107.783 136.837 102.294 138.485 99.869 138.507z" fill="#000000" stroke-width="none" opacity="0.5"></path><path id="SvgjsPath4197" d="M86.859 129.328c0 0 0.286 2.427 0.722 3.12 0.6 0.954 4.257 2.914 5.717 3.188 0.993 0.184 2.814 0.476 3.816 0.613 1.085 0.148 1.695 0.015 2.791-0.021 1.179-0.038 2.186 0.132 3.336-0.135 0.819-0.19 3.215-0.834 3.997-1.145 0.604-0.242 1.814-0.643 2.364-0.992 0.456-0.288 1.866-1.333 2.146-1.795 0.366-0.605 0.709-2.752 0.709-2.752L86.859 129.328z" fill="#ffffff" stroke-width="none" opacity="1"></path><path id="SvgjsPath4198" d="M92.17 129.748c0 0-0.522 5.283-0.568 5.375 -0.047 0.092-0.179-5.375-0.179-5.375H92.17zM94.364 130.335l0.464 5.601 0.298-5.601H94.364zM99.485 131.161l0.579 5.088 0.375-5.176L99.485 131.161zM103.978 130.093c0.973 0.088 1.298 5.446 1.298 5.446l0.134-5.446H103.978zM107.705 129.438c0 0 0.386 5.114 0.44 5.018 0.053-0.097 0.153-5.018 0.153-5.018H107.705zM88.876 129.436l0.283 4.181 0.283-4.181H88.876zM110.375 129.011l0.086 4.38 0.432-4.413L110.375 129.011z" fill="#000000" stroke-width="none" opacity="0.1"></path><path id="SvgjsPath4199" d="M116.764 129.126c-1.218-0.406-3.771-0.125-5.061-0.294 -1.83-0.239-5.542-0.409-7.392-0.356 -1.161 0.034-3.449 0.457-4.608 0.484 -1.191 0.027-3.562-0.461-4.751-0.471 -1.888-0.012-5.689 0.214-7.54 0.534 -1.279 0.222-3.89-0.113-4.914 0.475 -0.237 0.137-0.095 0.75 0 0.981 0.862 2.089 4.188 5.489 7.067 7.497 3.698 2.579 7.586 3.38 10.643 3.381 4.035 0.003 8.785-2.247 12.762-5.639 1.758-1.5 3.982-4.091 4.353-5.537C117.512 129.451 117.079 129.231 116.764 129.126zM99.816 136.352c-2.488 0.019-8.26-1.229-10.697-2.494 -1.461-0.759-3.7-2.577-5.226-3.708 -0.588-0.435-0.454-0.789 0.321-0.822 1.882-0.084 5.042 0.944 6.177 1.1 2.371 0.324 5.366 1.531 9.425 1.531 3.013 0 6.312-0.959 8.414-1.311 1.264-0.213 4.833-1.278 6.89-1.384 0.775-0.04 0.926 0.276 0.354 0.727 -1.61 1.271-4.326 3.216-6.055 4.066C107.224 135.139 102.057 136.328 99.816 136.352z" fill="#f771a9" stroke="#e85391" stroke-width="0.75" opacity="1"></path><path id="SvgjsPath4200" d="M86.869 134.124c2.588 0.523 8.417 3.611 13.315 3.444 5.105-0.175 12.685-4.745 13.685-4.244 0.373 1.199-9.853 6.985-13.685 7.077C96.747 140.482 85.786 135.485 86.869 134.124zM99.485 131.161c3.109-0.042 6.909-0.442 9.469-1.672 -2.918-1.013-6.938 0.115-9.251 0.168 -3 0.07-5.51-0.934-8.289 0.058C94.069 130.622 96.798 131.198 99.485 131.161z" fill="#ff8ebd" stroke-width="none" opacity="1"></path><path id="SvgjsPath4201" d="M97.732 139.024c-1.881-0.424-1.945-0.596-0.162-0.42 1.09 0.106 2.18 0.132 3.238 0.03 0.141-0.015 0.281-0.029 0.419-0.049 1.195-0.157 2.479-0.546 3.768-1.051 2.015-0.792 2.051-0.6 0.053 0.446 -1.467 0.767-2.831 1.324-3.798 1.44l-0.062 0.007C100.364 139.509 99.123 139.34 97.732 139.024z" fill="#ffa8cc" stroke-width="none" opacity="1"></path><path id="SvgjsPath4202" d="M79.599 130.722c0 0-0.561-1.256-0.482-1.724 0.11-0.657 1.521-1.958 1.521-1.958s-0.854 1.498-0.986 1.971C79.523 129.468 79.599 130.722 79.599 130.722zM120.163 130.881c0 0 0.609-1.364 0.523-1.873 -0.119-0.714-1.652-2.127-1.652-2.127s0.929 1.628 1.072 2.142C120.245 129.519 120.163 130.881 120.163 130.881z" fill="#c5796d" stroke-width="none" opacity="1"></path></g><g id="svga-group-eyes-left" ><g id="svga-group-eyesback-left"><path id="SvgjsPath3899" d="M61.952 84.523c-0.506-2.285 5.191-3.973 12.711-3.051 7.518 0.923 12.738 5.524 12.052 7.844 -0.38 1.286-10.639 3.245-14.253 2.847C68.798 91.758 63.174 90.04 61.952 84.523z" fill="url(#SvgjsRadialGradient3900)" opacity="1"></path></g><g id="svga-group-eyesiriswrapper-left" transform="translate(-0.75 -0.5)"><g id="svga-group-eyesiriscontrol-left" ><g id="svga-group-eyesiris-left" ><path id="SvgjsPath3953" d="M83.5 87.001c0 4.693-3.806 8.498-8.5 8.498s-8.5-3.805-8.5-8.498c0-4.697 3.806-8.502 8.5-8.502S83.5 82.304 83.5 87.001z" fill="#7085b3" stroke="#2b4785" stroke-width="0.5" opacity="1"></path><path id="SvgjsPath3954" d="M70.058 90.974c1.241-0.103 0.142-0.434 0.142-0.434 -0.613-0.331-1.768-0.839-1.768-1.306 0-1.461 2.002-1.839-0.048-2.416 -2.13-1.955 1.653-1.914 1.625-1.98 -1.381-3.366 0.423-1.518 1.183-2.512 2.816-3.682 0.785 0.378 2.314 0 0.554-0.136-1.105-2.169 0.048-1.884 0.763 0.187 0.937 0.821 0.937 0.821 0.557-0.109 1.428-0.966 1.428-0.966 1.061 0.32 1.806 1.827 1.478 1.545 0.522-0.063 1.252-0.313 1.822-0.483 0 0 0.1-0.338 0.196-0.047 1.3 3.77 4.652 3.5 0.792 4.589 0 0-0.249 0 0.542 0.627 3.839 3.066-2.978 2.117 0.638 3.527 0.147-0.146-2.167 1.368-2.167 1.787 0 0.71-1.477 2.576-2.757 1.841 -0.714-0.408-0.823 0.85-1.243 0.269 -0.823-1.138-2.467-0.049-1.859-1.095 0.898-0.737-0.926 0.289-1.28 0.289 -1.172 0 1.534-3.942 5.516-1.013 1.165 0.853-1.224-2.03 0.886-2.03 0.211 0.069 0.148-0.739 0.148-0.966 -1.098-0.215 1.969-0.005 1.969-1.788 0.193 0.039 0.721-0.495-2.316 0 0 0-0.097-1.063-0.048-1.256 0.156-0.62 1.72-0.422 1.28-1.063 -0.001-0.001-1.132-2.272-1.132-2.272 -3.645-0.586-1.562-0.952-3.841-0.483 -0.108 0.535-4.881 2.811-4.729 3.866 0.142 0.995 2.997 1.328 0.295 3.091C74.157 96.989 67.118 89.06 70.058 90.974z" fill="#8d9ec2" stroke-width="none" opacity="1"></path><path id="SvgjsPath3955" d="M75,79.562l0.243,6.223l2.603-5.656l-2.158,5.84l4.572-4.229l-4.229,4.57l5.842-2.157l-5.655,2.604l6.222,0.242l-6.222,0.242l5.655,2.604l-5.842-2.157l4.229,4.57l-4.572-4.229l2.158,5.84l-2.603-5.656L75,94.437l-0.243-6.223l-2.604,5.656l2.156-5.84l-4.57,4.229l4.229-4.57l-5.842,2.157l5.655-2.604l-6.219-0.242l6.219-0.242l-5.655-2.604l5.842,2.157l-4.229-4.57l4.57,4.229l-2.156-5.84l2.604,5.656L75,79.562z" fill="#7085b3" stroke="#566ea4" stroke-width="0.5" opacity="1"></path><path id="SvgjsPath3956" d="M76.128,81.428l-0.764,4.697l2.808-3.841l-2.501,4.047l4.065-2.476l-3.859,2.783l4.702-0.73l-4.632,1.092l4.626,1.125l-4.699-0.762l3.842,2.808l-4.05-2.5l2.476,4.064l-2.783-3.86l0.73,4.702l-1.092-4.632l-1.126,4.625l0.764-4.697l-2.811,3.841l2.504-4.048l-4.064,2.476l3.86-2.783l-4.702,0.73l4.631-1.093l-4.625-1.125l4.697,0.761l-3.842-2.808l4.05,2.5l-2.475-4.064l2.782,3.86l-0.73-4.701l1.095,4.632L76.128,81.428z" fill="#7085b3" stroke="#3f5a94" stroke-width="0.5" opacity="1"></path><path id="SvgjsPath3957" d="M78.188 87c0 1.761-1.428 3.187-3.188 3.187S71.813 88.76 71.813 87c0-1.76 1.428-3.188 3.188-3.188S78.188 85.239 78.188 87z" fill="#000000" stroke-width="none" opacity="0.9"></path><path id="SvgjsPath3958" d="M71.653 93.108c-0.469 0.469-1.396 0.304-2.069-0.37 -0.674-0.673-0.84-1.6-0.37-2.069 0.469-0.469 1.396-0.304 2.069 0.37S72.123 92.638 71.653 93.108z" fill="#ffffff" stroke-width="none" opacity="0.7"></path><path id="SvgjsPath3959" d="M81.809 85.326c-0.702 0.703-2.404 0.142-3.8-1.255 -1.396-1.396-1.958-3.097-1.255-3.8 0.703-0.703 2.404-0.142 3.8 1.255C81.95 82.922 82.511 84.624 81.809 85.326z" fill="#ffffff" stroke-width="none" opacity="0.9"></path></g></g></g><g id="svga-group-eyesfront-left"><path id="SvgjsPath3921" d="M55.5 88c0 13.807 8.06 24.999 18 24.999s18-11.192 18-24.999c0-13.808-8.06-25-18-25S55.5 74.192 55.5 88zM61.952 84.523c-0.506-2.285 5.191-3.973 12.711-3.051 7.518 0.923 12.738 5.524 12.052 7.844 -0.38 1.286-10.639 3.245-14.253 2.847C68.798 91.758 63.174 90.04 61.952 84.523z" fill="#f3d4cf" stroke-width="none" opacity="1"></path><path id="SvgjsPath3922" d="M72.462 92.163c3.614 0.398 13.873-1.561 14.253-2.847 0.687-2.32-4.534-6.921-12.052-7.844 -6.46-0.792-11.563 0.345-12.556 2.128 0.898-6.4 7.7-11.397 15.987-11.434 8.911-0.037 16.148 5.676 16.172 12.765 0.021 7.088-7.185 12.862-16.095 12.902 -8.913 0.037-16.149-5.676-16.173-12.764 0-0.105 0.016-0.208 0.019-0.313C63.348 90.083 68.852 91.764 72.462 92.163z" fill="url(#SvgjsRadialGradient3923)" opacity="1"></path><path id="SvgjsPath3927" d="M61.952 84.523c-0.506-2.285 5.191-3.973 12.711-3.051 7.518 0.923 12.738 5.524 12.052 7.844 -0.38 1.286-10.639 3.245-14.253 2.847C68.798 91.758 63.174 90.04 61.952 84.523z" fill="url(#SvgjsRadialGradient3928)" opacity="1"></path><path id="SvgjsPath3931" d="M62.349 79.417c4.208-1.978 9.35-2.16 13.838-1.005 2.404 0.561 4.965 1.285 7.063 2.638 1.945 1.135 3.525 2.5 5.002 4.19 -1.342-1.701-2.773-3.118-4.623-4.27 -2.276-1.416-4.769-2.294-7.364-2.916C71.678 76.928 66.542 77.184 62.349 79.417z" fill="#c5796d" stroke-width="none" opacity="1"></path><path id="SvgjsPath3932" d="M57.318 80.972c0 0 2.328 0.881 3.595 0.62 -0.39-0.459-1.096-1.604-1.096-1.604s1.853 0.551 3.151 0.032c0.88-0.352 4.065-1 5.456-1.066 1.687-0.082 5.073 0.125 6.735 0.424 3.374 0.608 8.985 2.63 11.678 7.184 0.255 0.572 1.407 0.921 1.407 0.921s-1.02-0.215-1.149 0.042c-0.282 0.561 1.298 2.016 1.496 2.197 -0.161-0.145-1.289-1.135-1.722-0.967 -0.061 0.022-0.137 0.388-0.155 0.482 0.3-2.426-4.838-6.746-12.052-7.604 -7.52-0.894-13.217 0.743-12.711 2.958 1.222 5.348 6.846 7.013 10.51 7.405 2.526 0.271 8.298-0.577 11.675-1.537l1.011-0.317c-1.999 1.009-7.524 2.195-9.767 2.403 -0.744 0.07-2.24 0.104-2.986 0.085 -5.949-0.158-10.16-3.179-11.729-7.26 -0.125-0.328-0.494-0.619-0.838-0.696 -1.604-0.361-5.096-1.811-5.096-1.811 2.32 0.361 3.483 0.674 5.305 0.059C58.257 82.256 57.318 80.972 57.318 80.972z" fill="#000000" stroke-width="none" opacity="1"></path></g></g><g id="svga-group-eyes-right" ><g id="svga-group-eyesback-right"><path id="SvgjsPath3906" d="M138.048 84.523c0.506-2.285-5.191-3.973-12.711-3.051 -7.518 0.923-12.738 5.524-12.052 7.844 0.38 1.286 10.639 3.245 14.253 2.847C131.202 91.758 136.826 90.04 138.048 84.523z" fill="url(#SvgjsRadialGradient3907)" opacity="1"></path></g><g id="svga-group-eyesiriswrapper-right" transform="translate(0.75 -0.5)"><g id="svga-group-eyesiriscontrol-right" ><g id="svga-group-eyesiris-right" ><path id="SvgjsPath3960" d="M133.5 87.001c0 4.692-3.806 8.498-8.5 8.498s-8.5-3.806-8.5-8.498c0-4.697 3.806-8.502 8.5-8.502S133.5 82.304 133.5 87.001z" fill="#7085b3" stroke="#2b4785" stroke-width="0.5" opacity="1"></path><path id="SvgjsPath3961" d="M120.059 90.974c1.24-0.103 0.142-0.434 0.142-0.434 -0.613-0.33-1.768-0.838-1.768-1.305 0-1.461 2.002-1.84-0.048-2.416 -2.131-1.956 1.652-1.915 1.625-1.981 -1.382-3.366 0.423-1.518 1.182-2.512 2.816-3.682 0.785 0.378 2.314 0 0.555-0.136-1.104-2.169 0.048-1.884 0.763 0.186 0.938 0.821 0.938 0.821 0.557-0.109 1.428-0.966 1.428-0.966 1.061 0.32 1.806 1.828 1.478 1.546 0.521-0.063 1.252-0.313 1.821-0.483 0 0 0.1-0.338 0.196-0.046 1.3 3.77 4.652 3.499 0.791 4.589 0 0-0.249 0 0.542 0.627 3.84 3.065-2.978 2.117 0.638 3.527 0.148-0.147-2.167 1.367-2.167 1.786 0 0.711-1.477 2.576-2.757 1.842 -0.714-0.409-0.822 0.85-1.243 0.269 -0.823-1.138-2.468-0.049-1.859-1.095 0.898-0.737-0.926 0.288-1.28 0.288 -1.172 0 1.534-3.942 5.516-1.013 1.165 0.854-1.225-2.029 0.886-2.029 0.212 0.069 0.148-0.739 0.148-0.967 -1.097-0.214 1.97-0.004 1.97-1.787 0.193 0.038 0.721-0.496-2.316 0 0 0-0.097-1.064-0.048-1.256 0.156-0.619 1.721-0.422 1.28-1.063 -0.001-0.001-1.133-2.271-1.133-2.271 -3.645-0.587-1.562-0.953-3.84-0.483 -0.108 0.535-4.881 2.811-4.729 3.866 0.142 0.994 2.996 1.328 0.295 3.092C124.157 96.989 117.118 89.06 120.059 90.974z" fill="#8d9ec2" stroke-width="none" opacity="1"></path><path id="SvgjsPath3962" d="M125,79.562l0.242,6.222l2.604-5.656l-2.158,5.84l4.571-4.228l-4.229,4.57l5.842-2.157l-5.655,2.604l6.222,0.242l-6.222,0.242l5.655,2.604l-5.842-2.157l4.229,4.57l-4.571-4.228l2.158,5.84l-2.604-5.656L125,94.437l-0.242-6.222l-2.605,5.656l2.157-5.84l-4.57,4.228l4.229-4.57l-5.842,2.157l5.654-2.604l-6.219-0.242l6.219-0.242l-5.654-2.604l5.842,2.157l-4.229-4.57l4.57,4.228l-2.157-5.84l2.605,5.656L125,79.562z" fill="#7085b3" stroke="#566ea4" stroke-width="0.5" opacity="1"></path><path id="SvgjsPath3963" d="M126.128,81.428l-0.764,4.697l2.808-3.841l-2.501,4.047l4.064-2.475l-3.859,2.782l4.702-0.73l-4.632,1.093l4.626,1.125l-4.699-0.762l3.843,2.808l-4.05-2.5l2.476,4.063l-2.783-3.86l0.73,4.702l-1.092-4.632l-1.126,4.625l0.764-4.697l-2.812,3.841l2.505-4.047l-4.065,2.475l3.86-2.782l-4.702,0.73l4.631-1.094l-4.624-1.124l4.696,0.761l-3.842-2.808l4.05,2.501l-2.476-4.063l2.782,3.86l-0.73-4.702l1.095,4.632L126.128,81.428z" fill="#7085b3" stroke="#3f5a94" stroke-width="0.5" opacity="1"></path><path id="SvgjsPath3964" d="M128.188 87c0 1.761-1.428 3.187-3.188 3.187s-3.188-1.426-3.188-3.187c0-1.76 1.428-3.188 3.188-3.188S128.188 85.239 128.188 87z" fill="#000000" stroke-width="none" opacity="0.9"></path><path id="SvgjsPath3965" d="M121.653 93.108c-0.47 0.469-1.396 0.304-2.069-0.369 -0.674-0.673-0.84-1.601-0.369-2.07 0.469-0.47 1.395-0.304 2.068 0.369C121.956 91.712 122.122 92.639 121.653 93.108z" fill="#ffffff" stroke-width="none" opacity="0.7"></path><path id="SvgjsPath3966" d="M131.809 85.326c-0.702 0.703-2.403 0.142-3.8-1.254 -1.396-1.396-1.957-3.098-1.256-3.8 0.703-0.703 2.405-0.142 3.8 1.254C131.949 82.922 132.512 84.624 131.809 85.326z" fill="#ffffff" stroke-width="none" opacity="0.9"></path></g></g></g><g id="svga-group-eyesfront-right"><path id="SvgjsPath3941" d="M126.5 63c-9.94 0-18 11.192-18 25 0 13.807 8.06 24.999 18 24.999s18-11.192 18-24.999C144.5 74.192 136.44 63 126.5 63zM127.538 92.163c-3.614 0.398-13.873-1.561-14.253-2.847 -0.687-2.32 4.534-6.921 12.052-7.844 7.52-0.922 13.217 0.767 12.711 3.051C136.826 90.04 131.202 91.758 127.538 92.163z" fill="#f3d4cf" stroke-width="none" opacity="1"></path><path id="SvgjsPath3942" d="M127.538 92.163c-3.614 0.398-13.873-1.561-14.253-2.847 -0.687-2.32 4.534-6.921 12.052-7.844 6.46-0.792 11.563 0.345 12.556 2.128 -0.898-6.4-7.7-11.397-15.987-11.434 -8.911-0.037-16.148 5.676-16.172 12.765 -0.021 7.088 7.185 12.862 16.095 12.902 8.913 0.037 16.149-5.676 16.173-12.764 0-0.105-0.016-0.208-0.019-0.313C136.652 90.083 131.148 91.764 127.538 92.163z" fill="url(#SvgjsRadialGradient3943)" opacity="1"></path><path id="SvgjsPath3947" d="M138.048 84.523c0.506-2.285-5.191-3.973-12.711-3.051 -7.518 0.923-12.738 5.524-12.052 7.844 0.38 1.286 10.639 3.245 14.253 2.847C131.202 91.758 136.826 90.04 138.048 84.523z" fill="url(#SvgjsRadialGradient3948)" opacity="1"></path><path id="SvgjsPath3951" d="M137.651 79.417c-4.208-1.978-9.35-2.16-13.838-1.005 -2.404 0.561-4.965 1.285-7.063 2.638 -1.945 1.135-3.525 2.5-5.002 4.19 1.342-1.701 2.773-3.118 4.623-4.27 2.276-1.416 4.769-2.294 7.364-2.916C128.322 76.928 133.458 77.184 137.651 79.417z" fill="#c5796d" stroke-width="none" opacity="1"></path><path id="SvgjsPath3952" d="M142.682 80.972c0 0-2.328 0.881-3.595 0.62 0.39-0.459 1.096-1.604 1.096-1.604s-1.853 0.551-3.151 0.032c-0.88-0.352-4.065-1-5.456-1.066 -1.687-0.082-5.073 0.125-6.735 0.424 -3.374 0.608-8.985 2.63-11.678 7.184 -0.255 0.572-1.407 0.921-1.407 0.921s1.02-0.215 1.149 0.042c0.282 0.561-1.298 2.016-1.496 2.197 0.161-0.145 1.289-1.135 1.722-0.967 0.061 0.022 0.137 0.388 0.155 0.482 -0.3-2.426 4.838-6.746 12.052-7.604 7.52-0.894 13.217 0.743 12.711 2.958 -1.222 5.348-6.846 7.013-10.51 7.405 -2.526 0.271-8.298-0.577-11.675-1.537l-1.011-0.317c1.999 1.009 7.524 2.195 9.767 2.403 0.744 0.07 2.24 0.104 2.986 0.085 5.949-0.158 10.16-3.179 11.729-7.26 0.125-0.328 0.494-0.619 0.838-0.696 1.604-0.361 5.096-1.811 5.096-1.811 -2.32 0.361-3.483 0.674-5.305 0.059C141.743 82.256 142.682 80.972 142.682 80.972z" fill="#000000" stroke-width="none" opacity="1"></path></g></g><g id="svga-group-facehighlight-single" ><path id="SvgjsPath2753" d="M140.204 113.007c0.035 22.275-17.995 40.365-40.273 40.396 -22.274 0.036-40.361-17.993-40.396-40.272C59.501 90.857 77.53 72.77 99.808 72.735 122.083 72.701 140.171 90.73 140.204 113.007z" fill="url(#SvgjsRadialGradient2754)" opacity="1"></path><path id="SvgjsPath2757" d="M135,55.999c0,19.329-15.671,35-35,35c-19.329,0-35-15.671-35-35s15.671-35,35-35C119.329,20.999,135,36.67,135,55.999z" fill="url(#SvgjsRadialGradient2758)" opacity="1"></path></g><g id="svga-group-eyebrows-left" ><path id="SvgjsPath3967" d="M74.799 69.068c-4.425-0.475-21.252 3.714-21.252 3.714s16.789-6.74 23.757-5.667c5.188 0.798 14.397 5.077 12.706 7.339C88.649 76.275 84.408 70.1 74.799 69.068z" fill="#2a232b" stroke-width="none" opacity="1"></path></g><g id="svga-group-eyebrows-right" ><path id="SvgjsPath3968" d="M109.731 74.187c-1.713-2.292 7.592-6.31 13.546-6.804 7.117-0.59 22.914 4.085 22.914 4.085s-15.9-2.628-20.377-2.106C115.998 70.506 111.11 76.031 109.731 74.187z" fill="#2a232b" stroke-width="none" opacity="1"></path></g><g id="svga-group-nose-single" ><path id="SvgjsPath2890" d="M92.281 116.235c-0.745 2.063 5.028 4.289 7.218 4.426 2.374 0.147 9.024-2.899 7.896-4.991 -1.185-2.197-5.63-0.286-7.547-0.286C97.94 115.384 93.276 113.479 92.281 116.235z" fill="#e4b3ab" stroke-width="none" opacity="1" stroke="none"></path><path id="SvgjsPath2891" d="M102.207 117.221c-0.243-0.522 1.194-1.333 1.748-1.493 0.777-0.226 2.505 0.238 2.438 0.831 -0.06 0.521-1.603-0.169-2.105-0.022C103.767 116.687 102.435 117.712 102.207 117.221zM95.214 116.742c0.706 0 1.753 0.457 1.945 0.057 0.229-0.479-1.56-1.065-2.086-1 -0.434 0.052-1.991 0.958-1.777 1.338C93.496 117.49 94.284 116.742 95.214 116.742z" fill="#c5796d" stroke-width="none" opacity="1" stroke="none"></path><path id="SvgjsPath2892" d="M99.857 113.479c0.669 0 1.807-0.637 1.978-1.9 0.754-5.575-0.521-20.246-1.978-20.246 -1.365 0-2.508 15.024-2.155 20.246C97.789 112.86 99.099 113.479 99.857 113.479" fill="#ffffff" stroke-width="none" opacity="0.2" stroke="none"></path></g><g id="svga-group-hair-front" ><path id="SvgjsPath4216" d="M137.933 141.731c16.512-55.946-2.844-86.784-5.085-96.474 -0.461-1.994-2.839-7.675-2.839-7.675 -8.857-4.884-13.91-5.96-24.344-5.96 -7.02 0-10.784 0.161-17.606 2.384 -7.164 7.132-27.936 32.674-36.394 51.778 4.185 15.866 6.826 68.128 4.833 72.716 -15.408 0.498-9.962-129.099-9.962-129.099 5.36 0 103.2-4.161 108.719-4.161C155.255 25.241 161.143 139.85 137.933 141.731z" fill="#d6c4c4" stroke-width="none" opacity="0.1" stroke="none"></path><path id="SvgjsPath4217" d="M129.421 235.813c7.562-15.873 5.54-26.495 3.584-36.774 -1.463-7.688-2.978-15.637-0.401-25.709 -0.845-13.438 2.629-24.662 6.307-36.547 7.017-22.68 14.97-48.384-6.036-96.463l-0.026-0.062 -0.061-0.033c-8.857-4.884-19.055-7.465-29.488-7.465 -7.02 0-14.039 1.127-20.861 3.351 -7.164 7.132-24.063 29.375-32.521 48.479 0.245 3.976 0.862 8.197 1.927 13.381 4.34 21.321 4.5 38.71 4.654 55.53 0.23 25.185 0.45 48.987 15.491 81.027 -1.855-1.622-3.654-3.18-5.397-4.688 -18.63-16.117-30.938-26.765-34.354-51.049l-0.398 0.021c0 0-0.33 9.248-0.47 13.14C21.141 141.693 19.924 101.158 25.877 60.5 30.869 26.402 62.752-6.334 88.302-6.334c5.36 0 10.53 0.952 15.365 2.83l0.073 0.028 0.072-0.029c6.084-2.401 11.969-3.619 17.488-3.619 16.125 0 29.904 7.554 39.849 27.521 11.614 23.322 17.796 59.631 16.534 97.126 -1.229 36.535-9.174 68.096-21.295 84.732 0.656-3.462 0.867-5.002 1.26-8.908l-0.388-0.089c-7.468 20.085-17.243 30.866-26.698 41.292C130.182 234.974 129.8 235.394 129.421 235.813z" fill="#d6c4c4" stroke-width="none" opacity="1" stroke="none"></path><path id="SvgjsPath4218" d="M50.023 86.038c0.295 3.558 0.885 7.374 1.822 11.934 4.341 21.321 4.5 38.712 4.654 55.53 0.231 25.185 0.45 48.987 15.491 81.027 -1.855-1.623-3.654-3.18-5.397-4.688 -9.569-8.279-17.466-15.118-23.351-23.1 -9.281-17.978-12.373-31.131-12.373-60.673 4.5 24.167 5.667 36.329 23.74 60.667C36.699 171.857 29.855 120.033 50.023 86.038zM175.502 121.842C173.57 134.101 170.613 161.006 166 173c2.684-17.925 2.144-23.32 2-41 -4 23-9.352 50.397-20 68 3.834-15.765 7.255-28.928 7.255-48.595C150.202 170.072 141.482 173.074 140 187c3.888-36.515 20.87-75.267 3.842-113.642 5.986 28.08 0.275 46.59-4.933 63.424 -3.679 11.885-7.15 23.11-6.308 36.547 -2.574 10.071-1.061 18.021 0.402 25.709 1.956 10.28 3.979 20.901-3.584 36.773 0.379-0.419 0.76-0.839 1.143-1.261 9.455-10.426 19.23-21.207 26.698-41.292l0.388 0.089c-0.393 3.906-0.604 5.446-1.26 8.908C168.029 186.278 173.814 156.535 175.502 121.842zM37.27 72.427c-2.445 5.423-6.514 62.265-3.284 74.552 0.046 0.17-0.056-0.172-0.268-0.912C28.817 130.232 34.444 77.602 37.27 72.427zM28.995 149.658c0.151 1.726 0.322 2.77 0.297 2.562 -0.132-0.51-1.95-44.056-1.492-44.315 0.1-0.021 0.069 0.018 0.102 0.025C26.832 108.215 27.775 136.716 28.995 149.658zM161.813 133.315c-1.464 16.704-5.294 35.469-2.028 18.988 5.737-27.943 7.126-52.795 0.201-80.288C162.865 85.764 164.776 96.6 161.813 133.315z" fill="#c7a2a2" stroke-width="none" opacity="1" stroke="none"></path><path id="SvgjsPath4219" d="M127 29c16.888 6.402 32 75 26 115 10.155-44 7.566-81.265-11-119 16.968 27.907 24.125 38.909 26.371 82.435 3.32-19.596 2.846-43.368-0.37-69.895 -2.007-6.258-4.298-12.015-6.852-17.143C151.206 0.43 137.427-7.124 121.302-7.124c-5.521 0-11.403 1.218-17.489 3.619l-0.071 0.029 -0.073-0.028c-4.835-1.878-10.005-2.83-15.365-2.83 -12.584 0-27.104 8.274-39.002 20.577C32.418 39.738 27.122 71.139 28 101c1-24 13-48 28-66 -11 26-19 53-20 81 6-39 35.469-88.265 58-96 6.9-2.369 15.467-1.286 17.615 6.42 1.188 1.846 1.794 4.125 1.385 6.58 1.407-1.126 2.791-1.964 4.165-2.536C120.504 27.823 124.108 27.904 127 29z" fill="#ded6d6" stroke-width="none" opacity="1" stroke="none"></path><path id="SvgjsPath4220" d="M113 33c1-6-5-11.6-10-11.6 -8.118 0-16.148 7.781-21.182 15.339 0.212-0.22 0.42-0.433 0.619-0.63 6.822-2.224 13.841-3.351 20.861-3.351 10.435 0 20.63 2.582 29.488 7.465l0.06 0.033 0.027 0.062c0.054 0.123 0.102 0.24 0.152 0.362 -0.271-3.492-4.157-7.681-6.063-9.05C121.964 28.63 117.881 28.408 113 33z" fill="#b78383" stroke-width="none" opacity="1" stroke="none"></path><path id="SvgjsPath4221" d="M123.605 15.551c14.693 2.885 21.418 18.935 25.36 33.284C149.686 51.544 142.26 19.955 123.605 15.551zM167.8 60.71c-2.621-21.61-11.549-43.651-30.488-54.378C163.85 22.934 168.197 63.544 167.8 60.71zM91.438 18.545c1.918-0.426-12.385 1.221-23.378 15.036 -7.164 8.71-13.558 21.986-16.138 27.16C59.841 44.582 73.947 22.662 91.438 18.545zM75.803 6.583C59.858 11.72 49.913 23.31 44.498 37.629 55.194 12.346 80.312 5.185 75.803 6.583zM111.399 5.315C107.242-3.4 99.008-7.734 86.591-6.171c12.168-0.83 20.242 4.56 23.477 11.712 -6.828-7.43-19.214 1.181-18.223 0.847 0.978-0.692 13.933-4.741 18.745 0.193 2.196 4.651 3.396 10.396 3.765 16.96 0.41 8.729 0.354-4.552-0.186-8.375 -0.458-3.457-1.292-6.551-2.495-9.251 4.005-5.099 11.348-5.508 17.675-2.897l0.041-0.091C123.153-0.222 114.057-0.279 111.399 5.315z" fill="#d6c4c4" stroke-width="none" opacity="1" stroke="none"></path><path id="SvgjsPath4222" d="M114.04 32.379c5.321-4.434 12.993-3.73 18.039 6.7l0.61 1.32c31.857 72.917-2.776 93.617-0.28 132.88 -6.107 23.896 10.536 35.066-3.79 63.72 9.811-10.893 20.781-22.021 28.83-43.67 -0.429 4.271-0.652 5.762-1.42 9.75 38.854-51.466 30.84-240.344-52.29-206.77 -26.87-12.574-69.464 14.093-78.06 64.16 -7.504 43.708-3.863 86.184 5.83 133.16 0.025-0.661 0.53-14.811 0.53-14.811 3.785 26.906 18.251 36.949 40.54 56.49 -25.454-53.516-9.508-83.19-20.54-137.379 -0.9-4.38-1.64-8.8-1.94-13.26 8.343-18.843 25.079-41.048 32.4-48.37l1.21-1.21c0.099-0.095 5.39-5.147 5.63-5.37 8.201-3.25 17.274-4.018 22.341 3.593 -3.037-7.992-13.058-8.04-20.73-5.043 8.445-7.445 18.682-10.292 22.191 4.081 0.103 0.419 0.082 1.196 0.082 1.196S113.665 32.692 114.04 32.379zM175.077 118.061c-0.38 12.364-2.541 54.771-17.658 82.27 1.066-4.51 1.76-8.328 2.021-12.801 4.745-14.82 5.854-26.1 6.028-27.1 -5.55 27.37-15.529 51.351-34.619 73.569 13.535-29.831-2.641-35.97 1.67-59.33 0.967 11.022 4.291 21.701 7.739 32.05 0.49-9.871 2.533-21.996 7.271-30.71 -1.799 2.479-7.063 14.054-7.93 26.21 -14.464-50.55 5.344-49.98 8.17-108.66 2.604 21.148-0.119 28.44-0.119 28.44 5.72-19.17 0.543-32.426-0.826-43.12 -1.693-13.216-10.355-34.177-11.654-36.99 -4.865-10.169-12.197-16.503-21.13-10.39 -8.374-24.158-29.294-0.563-35.459 6.21 -8.888 9.765-22.52 28.087-29.211 44.29 0 0.01-0.01 0.02-0.01 0.03 -4.833 11.717-6.102 20.844-7.32 28.84 2.306-11.387 4.596-18.222 7.43-24.77 0.18 3.31 0.57 6.61 1.08 9.87 8.997 57.645-6.818 82.899 20.06 136.78 -34.449-32.043-38.365-41.664-39.7-80.58 -0.238 24.988 0.937 10.513-0.14 30.7 -5.768-39.082-10.682-67.553-2.5-118.52 9.267-57.727 52.276-77.212 75.43-67.42 30.296-12.349 48.97 5.949 61.2 35.04 2.775 6.604 10.469 37.291 5.6 62.41 0 0 2.195-6.328 3.66-18.7C175.565 89.307 175.505 104.127 175.077 118.061z" fill="#a86868" stroke-width="none" opacity="1" stroke="none"></path></g><g id="svga-group-glasses-single" ><path id="SvgjsPath4203" d="M133.86 107.53c-3.25 0-6.62-0.36-9.49-1 -4.69-1.06-10.54-5.25-14.31-11.5 -4.14-6.86-5.05-11.74-3.74-16.6 1.68-6.27 12.41-8.5 21.88-8.5 9.74 0 21.02 2.32 23.75 6.75 4.6 7.46 1.42 20.89-1.26 25C147.24 106.96 137.77 107.53 133.86 107.53 133.86 107.53 133.86 107.53 133.86 107.53z" fill="url(#SvgjsLinearGradient4204)" opacity="1"></path><path id="SvgjsPath4207" d="M66.14 107.53c3.25 0 6.62-0.36 9.49-1 4.69-1.06 10.54-5.25 14.31-11.5 4.14-6.86 5.05-11.74 3.74-16.6 -1.68-6.27-12.41-8.5-21.88-8.5 -9.74 0-21.02 2.32-23.75 6.75 -4.6 7.46-1.42 20.89 1.26 25C52.76 106.96 62.23 107.53 66.14 107.53 66.14 107.53 66.14 107.53 66.14 107.53z" fill="url(#SvgjsLinearGradient4208)" opacity="1"></path><path id="SvgjsPath4211" d="M130.27 67.73c-12.71 0-20.02 2.96-30.27 2.96 -10.25 0-17.55-2.96-30.27-2.96 -15.11 0.33-25.35 3.2-27.73 5.02v7.02c2.63 1.38 0.92 5.3 3.36 16.52 2.21 10.16 9.44 11.53 14.62 12.41 7.33 1.23 15.92 0.53 21.87-2.99 7.65-4.52 12.17-12.77 13.93-20.23 0.98-4.16 3.75-3.89 4.23-3.89 0 0 0 0 0 0 0 0 0 0 0 0 0.48 0 3.25-0.27 4.23 3.89 1.75 7.46 6.27 15.71 13.93 20.23 5.95 3.51 14.53 4.22 21.87 2.99 5.17-0.87 12.41-2.24 14.62-12.41 2.44-11.22 0.73-15.14 3.36-16.52v-7.02C155.62 70.93 145.38 68.07 130.27 67.73zM75.52 106.04c-8.43 1.9-21.83 1.43-25.79-4.64 -2.59-3.97-5.7-17.25-1.25-24.47 4.73-7.67 41.58-10.06 44.72 1.62C95.67 87.74 86.35 103.59 75.52 106.04zM150.27 101.4c-3.96 6.07-17.35 6.54-25.79 4.64 -10.83-2.44-20.15-18.3-17.68-27.49 3.14-11.68 40-9.29 44.72-1.62C155.97 84.14 152.86 97.43 150.27 101.4z" fill="#26120b" stroke-width="none" opacity="1"></path><path id="SvgjsPath4212" d="M155.98 73.62c0.65 0.82 0.55 1.71 0.45 3.55 0.06-2.11-0.44-2.98-1.03-3.49 -0.84-0.98-5.4-2.84-7.9-3.45C150.78 70.82 154.87 72.28 155.98 73.62zM153.53 92.9c-1.13 5.08-1.54 7.88-4.33 10.42 -2.66 2.43-7.12 3.38-10.58 3.66 5.4-0.21 8.77-1.65 10.87-3.53C152.05 101.18 152.78 98.22 153.53 92.9zM44.02 73.62c-0.65 0.82-0.55 1.71-0.45 3.55 -0.06-2.11 0.44-2.98 1.03-3.49 0.84-0.98 5.4-2.84 7.9-3.45C49.22 70.82 45.13 72.28 44.02 73.62zM50.5 103.46c2.1 1.87 5.48 3.32 10.87 3.53 -3.47-0.28-7.92-1.23-10.58-3.66 -2.79-2.54-3.19-5.34-4.33-10.42C47.22 98.22 47.95 101.18 50.5 103.46z" fill="#351d15" stroke-width="none" opacity="1"></path><path id="SvgjsPath4213" d="M124.31 68.48c-7.88 0.59-19.23 2.91-24.31 2.91l0 0 0 0c-5.08 0-16.43-2.32-24.31-2.91 -8.84-0.66-17.82 0.41-22.68 1.58 0.34 0.04 0.64 0.06 1.02 0.11 7.18-1.43 12.83-1.59 19.45-1.37 7.02 0.23 21.24 2.97 26.51 2.87 5.27 0.1 19.5-2.64 26.51-2.87 6.62-0.22 12.28-0.06 19.45 1.37 0.38-0.05 0.68-0.07 1.02-0.11C142.13 68.9 133.15 67.83 124.31 68.48z" fill="#452b22" stroke-width="none" opacity="1"></path></g></g></g><rect id="SvgjsRect1033" width="200" height="15" x="0" y="185" fill="#ecf0f1" opacity="0.5" style="display:none;"></rect><text id="SvgjsText1034" font-family="&quot;Roboto&quot;, &quot;Helvetica Neue&quot;, Helvetica, Arial, sans-serif" style="font-size:0.84em;font-family:&quot;Roboto&quot;, &quot;Helvetica Neue&quot;, Helvetica, Arial, sans-serif;text-anchor:middle;font-weight:400;display:none;" font-size="0.84em" text-anchor="middle" font-weight="400" fill="#000000" x="100" y="185"><tspan id="SvgjsTspan1035" dy="1.2em" x="100" style="font-size:0.84em;font-family:&quot;Roboto&quot;, &quot;Helvetica Neue&quot;, Helvetica, Arial, sans-serif;text-anchor:middle;font-weight:400;">Created on AvatarMaker.com</tspan></text></g><defs id="SvgjsDefs1001"><radialGradient id="SvgjsRadialGradient2754" cx="100" cy="113" r="40" gradientUnits="userSpaceOnUse" class="svga-on-canvas-facehighlight-gradient-single-0"><stop id="SvgjsStop2755" stop-opacity="0.5" stop-color="#fff4f3" offset="0" ></stop><stop id="SvgjsStop2756" stop-opacity="0" stop-color="#f3d4cf" offset="0.9" ></stop></radialGradient><radialGradient id="SvgjsRadialGradient2758" cx="100" cy="57" r="36" gradientUnits="userSpaceOnUse" class="svga-on-canvas-facehighlight-gradient-single-1"><stop id="SvgjsStop2759" stop-opacity="0.5" stop-color="#fff4f3" offset="0" ></stop><stop id="SvgjsStop2760" stop-opacity="0" stop-color="#f3d4cf" offset="0.9" ></stop></radialGradient><radialGradient id="SvgjsRadialGradient3490" cx="-558.588" cy="-490.918" r="84.646" gradientTransform="matrix(0.096 -0.0248 0.0245 0.0961 140.5478 120.3577)" gradientUnits="userSpaceOnUse" class="svga-on-canvas-eyesiris-gradient-left-1"><stop id="SvgjsStop3491" stop-opacity="0.8" stop-color="#ffffff" offset="0" ></stop><stop id="SvgjsStop3492" stop-opacity="0" stop-color="#ffffff" offset="1" ></stop></radialGradient><radialGradient id="SvgjsRadialGradient3494" cx="-565.337" cy="-492.691" r="84.644" gradientTransform="matrix(0.0991 8.856325e-004 -0.0011 0.0991 130.3774 136.3533)" gradientUnits="userSpaceOnUse" class="svga-on-canvas-eyesiris-gradient-left-2"><stop id="SvgjsStop3495" stop-opacity="0.8" stop-color="#ffffff" offset="0" ></stop><stop id="SvgjsStop3496" stop-opacity="0" stop-color="#ffffff" offset="1" ></stop></radialGradient><linearGradient id="SvgjsLinearGradient3500" x1="122.283" y1="93.047" x2="123.61" y2="91.466" gradientTransform="matrix(1 0 0 1 -52 0)" gradientUnits="userSpaceOnUse" class="svga-on-canvas-eyesiris-gradient-left-5"><stop id="SvgjsStop3501" stop-opacity="1" stop-color="#ffffff" offset="0" ></stop><stop id="SvgjsStop3502" stop-opacity="0" stop-color="#ffffff" offset="1" ></stop></linearGradient><linearGradient id="SvgjsLinearGradient3504" x1="127" y1="85" x2="125" y2="87" gradientTransform="matrix(1 0 0 1 -50 0)" gradientUnits="userSpaceOnUse" class="svga-on-canvas-eyesiris-gradient-left-6"><stop id="SvgjsStop3505" stop-opacity="1" stop-color="#ffffff" offset="0" ></stop><stop id="SvgjsStop3506" stop-opacity="0" stop-color="#ffffff" offset="1" ></stop></linearGradient><linearGradient id="SvgjsLinearGradient3508" x1="130" y1="81" x2="126" y2="85" gradientTransform="matrix(1 0 0 1 -50 0)" gradientUnits="userSpaceOnUse" class="svga-on-canvas-eyesiris-gradient-left-7"><stop id="SvgjsStop3509" stop-opacity="1" stop-color="#ffffff" offset="0" ></stop><stop id="SvgjsStop3510" stop-opacity="0" stop-color="#ffffff" offset="1" ></stop></linearGradient><radialGradient id="SvgjsRadialGradient3513" cx="-578.76" cy="-490.73" r="84.646" gradientTransform="matrix(0.096 -0.0248 0.0245 0.0961 192.4794 119.8404)" gradientUnits="userSpaceOnUse" class="svga-on-canvas-eyesiris-gradient-right-1"><stop id="SvgjsStop3514" stop-opacity="0.8" stop-color="#ffffff" offset="0" ></stop><stop id="SvgjsStop3515" stop-opacity="0" stop-color="#ffffff" offset="1" ></stop></radialGradient><radialGradient id="SvgjsRadialGradient3517" cx="-584.778" cy="-487.329" r="84.644" gradientTransform="matrix(0.0991 8.856325e-004 -0.0011 0.0991 182.3104 135.839)" gradientUnits="userSpaceOnUse" class="svga-on-canvas-eyesiris-gradient-right-2"><stop id="SvgjsStop3518" stop-opacity="0.8" stop-color="#ffffff" offset="0" ></stop><stop id="SvgjsStop3519" stop-opacity="0" stop-color="#ffffff" offset="1" ></stop></radialGradient><linearGradient id="SvgjsLinearGradient3523" x1="120.284" y1="93.047" x2="121.611" y2="91.467" gradientUnits="userSpaceOnUse" class="svga-on-canvas-eyesiris-gradient-right-5"><stop id="SvgjsStop3524" stop-opacity="1" stop-color="#ffffff" offset="0" ></stop><stop id="SvgjsStop3525" stop-opacity="0" stop-color="#ffffff" offset="1" ></stop></linearGradient><linearGradient id="SvgjsLinearGradient3527" x1="127" y1="85" x2="125" y2="87" gradientUnits="userSpaceOnUse" class="svga-on-canvas-eyesiris-gradient-right-6"><stop id="SvgjsStop3528" stop-opacity="1" stop-color="#ffffff" offset="0" ></stop><stop id="SvgjsStop3529" stop-opacity="0" stop-color="#ffffff" offset="1" ></stop></linearGradient><linearGradient id="SvgjsLinearGradient3531" x1="130" y1="81" x2="126" y2="85" gradientUnits="userSpaceOnUse" class="svga-on-canvas-eyesiris-gradient-right-7"><stop id="SvgjsStop3532" stop-opacity="1" stop-color="#ffffff" offset="0" ></stop><stop id="SvgjsStop3533" stop-opacity="0" stop-color="#ffffff" offset="1" ></stop></linearGradient><radialGradient id="SvgjsRadialGradient3900" cx="129.05" cy="85.956" r="15.117" gradientTransform="matrix(-0.9945 0.1042 0.1042 0.9945 192.8274 -12.4637)" gradientUnits="userSpaceOnUse" class="svga-on-canvas-eyesback-gradient-left-0"><stop id="SvgjsStop3901" stop-opacity="1" stop-color="#ffffff" offset="0" ></stop><stop id="SvgjsStop3902" stop-opacity="1" stop-color="#fcfdfd" offset="0.316" ></stop><stop id="SvgjsStop3903" stop-opacity="1" stop-color="#f4f7f8" offset="0.505" ></stop><stop id="SvgjsStop3904" stop-opacity="1" stop-color="#e5ecef" offset="0.661" ></stop><stop id="SvgjsStop3905" stop-opacity="1" stop-color="#d8e2e7" offset="0.76" ></stop></radialGradient><radialGradient id="SvgjsRadialGradient3907" cx="129.049" cy="85.956" r="15.117" gradientTransform="matrix(0.9945 0.1042 -0.1042 0.9945 7.1735 -12.4637)" gradientUnits="userSpaceOnUse" class="svga-on-canvas-eyesback-gradient-right-0"><stop id="SvgjsStop3908" stop-opacity="1" stop-color="#ffffff" offset="0" ></stop><stop id="SvgjsStop3909" stop-opacity="1" stop-color="#fcfdfd" offset="0.316" ></stop><stop id="SvgjsStop3910" stop-opacity="1" stop-color="#f4f7f8" offset="0.505" ></stop><stop id="SvgjsStop3911" stop-opacity="1" stop-color="#e5ecef" offset="0.661" ></stop><stop id="SvgjsStop3912" stop-opacity="1" stop-color="#d8e2e7" offset="0.76" ></stop></radialGradient><radialGradient id="SvgjsRadialGradient3914" cx="129.05" cy="85.956" r="15.117" gradientTransform="matrix(-0.9945 0.1042 0.1042 0.9945 192.8274 -12.4637)" gradientUnits="userSpaceOnUse" class="svga-on-canvas-eyesfront-gradient-left-0"><stop id="SvgjsStop3915" stop-opacity="1" stop-color="#ffffff" offset="0" ></stop><stop id="SvgjsStop3916" stop-opacity="1" stop-color="#fcfdfd" offset="0.316" ></stop><stop id="SvgjsStop3917" stop-opacity="1" stop-color="#f4f7f8" offset="0.505" ></stop><stop id="SvgjsStop3918" stop-opacity="1" stop-color="#e5ecef" offset="0.661" ></stop><stop id="SvgjsStop3919" stop-opacity="1" stop-color="#d8e2e7" offset="0.76" ></stop></radialGradient><radialGradient id="SvgjsRadialGradient3923" cx="121.786" cy="84.496" fx="133.039" fy="84.527" r="16.003" gradientTransform="matrix(0.9998 0.0208 0.0166 -0.7998 -44.9524 149.5433)" gradientUnits="userSpaceOnUse" class="svga-on-canvas-eyesfront-gradient-left-3"><stop id="SvgjsStop3924" stop-opacity="1" stop-color="#e4b3ab" offset="0" ></stop><stop id="SvgjsStop3925" stop-opacity="0.3" stop-color="#e4b3ab" offset="0.7" ></stop><stop id="SvgjsStop3926" stop-opacity="0" stop-color="#f3d4cf" offset="1" ></stop></radialGradient><radialGradient id="SvgjsRadialGradient3928" cx="69.124" cy="107.529" r="29.525" gradientTransform="matrix(1.0336 0 0 1.0336 -1.6792 1.7282)" gradientUnits="userSpaceOnUse" class="svga-on-canvas-eyesfront-gradient-left-4"><stop id="SvgjsStop3929" stop-opacity="0" stop-color="#000000" offset="0.95" ></stop><stop id="SvgjsStop3930" stop-opacity="0.3" stop-color="#000000" offset="1" ></stop></radialGradient><radialGradient id="SvgjsRadialGradient3934" cx="129.049" cy="85.956" r="15.117" gradientTransform="matrix(0.9945 0.1042 -0.1042 0.9945 7.1735 -12.4637)" gradientUnits="userSpaceOnUse" class="svga-on-canvas-eyesfront-gradient-right-0"><stop id="SvgjsStop3935" stop-opacity="1" stop-color="#ffffff" offset="0" ></stop><stop id="SvgjsStop3936" stop-opacity="1" stop-color="#fcfdfd" offset="0.316" ></stop><stop id="SvgjsStop3937" stop-opacity="1" stop-color="#f4f7f8" offset="0.505" ></stop><stop id="SvgjsStop3938" stop-opacity="1" stop-color="#e5ecef" offset="0.661" ></stop><stop id="SvgjsStop3939" stop-opacity="1" stop-color="#d8e2e7" offset="0.76" ></stop></radialGradient><radialGradient id="SvgjsRadialGradient3943" cx="121.786" cy="84.496" fx="133.039" fy="84.527" r="16.003" gradientTransform="matrix(-0.9998 0.0208 -0.0166 -0.7998 244.9525 149.5433)" gradientUnits="userSpaceOnUse" class="svga-on-canvas-eyesfront-gradient-right-3"><stop id="SvgjsStop3944" stop-opacity="1" stop-color="#e4b3ab" offset="0" ></stop><stop id="SvgjsStop3945" stop-opacity="0.3" stop-color="#e4b3ab" offset="0.7" ></stop><stop id="SvgjsStop3946" stop-opacity="0" stop-color="#f3d4cf" offset="1" ></stop></radialGradient><radialGradient id="SvgjsRadialGradient3948" cx="69.124" cy="107.529" r="29.525" gradientTransform="matrix(-1.0336 0 0 1.0336 201.6792 1.7282)" gradientUnits="userSpaceOnUse" class="svga-on-canvas-eyesfront-gradient-right-4"><stop id="SvgjsStop3949" stop-opacity="0" stop-color="#000000" offset="0.95" ></stop><stop id="SvgjsStop3950" stop-opacity="0.3" stop-color="#000000" offset="1" ></stop></radialGradient><linearGradient id="SvgjsLinearGradient4037" x1="72" y1="106" x2="72" y2="69" gradientUnits="userSpaceOnUse" class="svga-on-canvas-glasses-gradient-single-2"><stop id="SvgjsStop4038" stop-opacity="0.95" stop-color="#26120b" offset="0" ></stop><stop id="SvgjsStop4039" stop-opacity="1" stop-color="#26120b" offset="1" ></stop></linearGradient><linearGradient id="SvgjsLinearGradient4106" x1="99.98" y1="171.27" x2="99.98" y2="136.351" gradientUnits="userSpaceOnUse" class="svga-on-canvas-chinshadow-gradient-single-0"><stop id="SvgjsStop4107" stop-opacity="0.8" stop-color="#e4b3ab" offset="0" ></stop><stop id="SvgjsStop4108" stop-opacity="1" stop-color="#c5796d" offset="0.7" ></stop></linearGradient><linearGradient id="SvgjsLinearGradient4187" x1="100" y1="141" x2="100" y2="137" gradientUnits="userSpaceOnUse" class="svga-on-canvas-mouth-gradient-single-0"><stop id="SvgjsStop4188" stop-opacity="1" stop-color="#ebc3bd" offset="0.1" ></stop><stop id="SvgjsStop4189" stop-opacity="1" stop-color="#e4b3ab" offset="1" ></stop></linearGradient><linearGradient id="SvgjsLinearGradient4204" x1="130" y1="69" x2="130" y2="109" gradientUnits="userSpaceOnUse" class="svga-on-canvas-glasses-gradient-single-0"><stop id="SvgjsStop4205" stop-opacity="1" stop-color="#000000" offset="0" ></stop><stop id="SvgjsStop4206" stop-opacity="0.8" stop-color="#000000" offset="1" ></stop></linearGradient><linearGradient id="SvgjsLinearGradient4208" x1="130" y1="69" x2="130" y2="109" gradientTransform="matrix(-1 0 0 1 200 0)" gradientUnits="userSpaceOnUse" class="svga-on-canvas-glasses-gradient-single-1"><stop id="SvgjsStop4209" stop-opacity="1" stop-color="#000000" offset="0" ></stop><stop id="SvgjsStop4210" stop-opacity="0.8" stop-color="#000000" offset="1" ></stop></linearGradient></defs></svg>