<?xml version="1.0" encoding="UTF-8" standalone="no"?>
<svg
   xmlns:dc="http://purl.org/dc/elements/1.1/"
   xmlns:cc="http://creativecommons.org/ns#"
   xmlns:rdf="http://www.w3.org/1999/02/22-rdf-syntax-ns#"
   xmlns:svg="http://www.w3.org/2000/svg"
   xmlns="http://www.w3.org/2000/svg"
   xmlns:sodipodi="http://sodipodi.sourceforge.net/DTD/sodipodi-0.dtd"
   xmlns:inkscape="http://www.inkscape.org/namespaces/inkscape"
   inkscape:version="1.0 (1.0+r73+1)"
   sodipodi:docname="spider_about.svg"
   id="svg363"
   preserveAspectRatio="xMidYMid meet"
   viewBox="0 0 1000.000000 1000.000000"
   height="1000.000000pt"
   width="1000.000000pt"
   version="1.0">
  <metadata
     id="metadata369">
    <rdf:RDF>
      <cc:Work
         rdf:about="">
        <dc:format>image/svg+xml</dc:format>
        <dc:type
           rdf:resource="http://purl.org/dc/dcmitype/StillImage" />
        <dc:title></dc:title>
      </cc:Work>
    </rdf:RDF>
  </metadata>
  <defs
     id="defs367" />
  <sodipodi:namedview
     inkscape:current-layer="svg363"
     inkscape:window-maximized="1"
     inkscape:window-y="27"
     inkscape:window-x="67"
     inkscape:cy="792.15686"
     inkscape:cx="666.66667"
     inkscape:zoom="0.6375"
     showgrid="false"
     id="namedview365"
     inkscape:window-height="1025"
     inkscape:window-width="1853"
     inkscape:pageshadow="2"
     inkscape:pageopacity="0"
     guidetolerance="10"
     gridtolerance="10"
     objecttolerance="10"
     borderopacity="1"
     bordercolor="#666666"
     pagecolor="#ffffff" />
  <path
     d="m 338.70522,165.26773 c -0.4,0.6 13.2,27.3 30.3,59.3 l 30.9,58.3 -2,29.7 -2.1,29.7 27.7,38.7 c 15.3,21.2 27.5,38.8 27.2,39.1 -0.3,0.3 -16.9,-6.5 -37,-15.2 l -36.5,-15.8 -26.3,-53 -26.3,-53 -36.3,-30.4 c -20,-16.7 -37,-30.3 -37.8,-30.3 -4,0 -3,1.3 67.8,89.3 l 13.5,16.8 6.3,24.2 c 3.5,13.3 6.6,24.9 7,25.7 0.5,0.8 17.2,13 37.3,27 20.1,14 36.4,25.6 36.2,25.8 -0.4,0.5 -33.4,11.4 -59,19.6 -11.5,3.8 -21.5,7.3 -22.2,7.9 -0.6,0.7 -13.1,21.3 -27.6,45.9 l -26.5,44.6 -5.7,42.1 c -3.1,23.1 -5.5,43 -5.3,44.3 1,7 3.8,0.4 24.9,-58.5 l 21.9,-60.8 15.1,-16.7 c 8.3,-9.2 19.9,-22 25.8,-28.4 l 10.6,-11.7 6.5,-0.1 c 7.1,-0.1 16.2,-0.7 25.3,-1.5 7,-0.6 7.2,0.1 2.1,9.2 -2.8,5 -11.3,14.3 -38,41.6 -18.9,19.3 -34.4,35.7 -34.4,36.6 0,0.8 9.4,25.9 21,55.8 l 21,54.4 36.2,43.9 c 24.7,30 36.8,44 38.1,44 1.4,0 1.8,-0.5 1.5,-1.8 -0.3,-0.9 -18.3,-31.1 -40.1,-66.9 l -39.5,-65.3 -6.6,-37.7 c -3.6,-20.7 -6.4,-37.8 -6.3,-37.8 4.7,-3.3 49.9,-29.7 50.2,-29.3 0.2,0.2 3.1,11.9 6.4,26.1 l 5.9,25.6 15.3,22 15.2,22 18.9,7 18.8,7.1 18.8,-7.1 18.8,-7 15.3,-22 15.3,-22.1 5.9,-25.6 c 3.3,-14.1 6.2,-25.8 6.4,-26 0.3,-0.4 45.5,26 50.2,29.3 0.1,0 -2.7,17.1 -6.3,37.8 l -6.5,37.6 -39.6,65.3 c -21.8,35.9 -39.8,66.1 -40.1,67 -0.3,1.3 0.1,1.8 1.5,1.8 1.3,0 13.4,-14 38.1,-44 l 36.2,-43.9 21,-54.4 c 11.6,-29.9 21,-55 21,-55.8 0,-0.8 -15.5,-17.3 -34.4,-36.7 -30.8,-31.4 -34.9,-36 -38.5,-42.9 -2.2,-4.2 -3.9,-7.8 -3.7,-8 0.4,-0.4 28.9,1.6 34.7,2.5 4.5,0.7 5.1,1.3 29.8,28.5 l 25.2,27.7 21.8,60.8 c 21.1,58.8 23.9,65.4 24.9,58.4 0.2,-1.3 -2.2,-21.2 -5.3,-44.3 l -5.7,-42.1 -20,-33.6 c -11,-18.6 -22.5,-38 -25.5,-43.2 -3.1,-5.2 -6.3,-10.5 -7.2,-11.8 -1.3,-1.9 -9.5,-4.9 -39.6,-14.8 -20.9,-6.9 -39.2,-13 -40.7,-13.7 -2.7,-1.2 -2,-1.8 33.8,-26.7 20.1,-14 36.9,-26.2 37.4,-27 0.4,-0.8 3.5,-12.4 7,-25.7 l 6.3,-24.1 41.3,-51.4 c 22.7,-28.2 41.3,-52.1 41.3,-53.1 0.1,-0.9 -0.5,-1.7 -1.3,-1.7 -0.8,0 -17.8,13.6 -37.8,30.3 l -36.3,30.3 -26.2,53 -26.3,53 -36.5,15.8 c -20.1,8.7 -36.8,15.6 -37.1,15.3 -0.3,-0.3 11.9,-17.9 27.2,-39.1 l 27.7,-38.7 -2.1,-29.7 -2,-29.7 31,-58.4 c 22.7,-42.8 30.7,-58.6 29.9,-59.4 -0.8,-0.8 -1.6,-0.8 -2.6,-0.2 -1.8,1.3 -62.5,79.3 -64.1,82.5 -0.8,1.4 -5.2,27.5 -9.9,58 l -8.6,55.5 -4.3,4 c -2.3,2.2 -8.4,7.5 -13.4,11.8 l -9.2,7.8 -2.7,-5.5 -2.7,-5.5 6.3,-19.6 c 3.4,-10.8 6.4,-20.2 6.7,-20.8 0.6,-1.8 -22.5,-25.9 -24.5,-25.5 -1.9,0.4 -1.9,0.2 1.9,21.1 l 3,15.8 -2.8,2.5 c -2.3,2.1 -3.4,2.4 -7.7,1.9 l -5,-0.5 -4.5,6.4 c -2.5,3.6 -4.7,6.5 -5,6.5 -0.3,0 -2.5,-2.9 -5,-6.5 l -4.5,-6.4 -5,0.5 c -4.3,0.5 -5.4,0.2 -7.7,-1.9 l -2.8,-2.5 3,-15.8 c 3.8,-20.9 3.8,-20.7 1.9,-21.1 -2,-0.4 -25.1,23.7 -24.5,25.5 0.3,0.6 3.3,10 6.7,20.8 l 6.3,19.6 -2.7,5.5 -2.7,5.5 -9.2,-7.8 c -5,-4.3 -11.1,-9.6 -13.4,-11.8 l -4.3,-4 -8.6,-55.5 c -4.8,-30.5 -9,-56.4 -9.5,-57.5 -1.3,-3.3 -63.9,-83 -65.4,-83.3 -0.8,-0.2 -1.7,0.2 -2,0.7 z m 40.9,54.6 22.6,29 -0.6,8.5 c -0.3,4.7 -0.6,10.2 -0.7,12.2 -0.1,2.1 -0.5,3.8 -0.8,3.8 -0.4,0 -10.1,-18 -39.3,-73.5 -3.2,-6 -5.4,-10.6 -4.9,-10 0.6,0.5 11.2,14 23.7,30 z m 238.2,-24.3 c -1.9,3.5 -11.9,22.3 -22.3,41.8 -10.3,19.5 -18.9,35.7 -19.1,35.9 -0.8,1 -1.1,-1.1 -1.7,-12.4 l -0.6,-12.1 23.2,-29.7 c 12.7,-16.3 23.3,-29.7 23.5,-29.7 0.2,0 -1.1,2.8 -3,6.2 z m -293,105.6 c 2.3,8.6 4,15.8 3.8,16 -0.2,0.3 -60.5,-74.6 -60.5,-75.3 0,-0.2 11.9,9.5 26.4,21.5 l 26.3,22 z m 353.2,-21.4 c -16.6,20.7 -30.3,37.5 -30.4,37.4 -0.2,-0.2 1.6,-7.4 3.9,-16.1 l 4.1,-15.9 26,-21.7 c 14.3,-12 26.1,-21.7 26.3,-21.5 0.2,0.1 -13.3,17.1 -29.9,37.8 z m -265.4,34.5 c 3.6,22.8 6.3,41.6 6.1,41.8 -0.2,0.3 -4.2,-2.8 -8.8,-6.8 -4.5,-4 -8.6,-7.5 -9,-7.8 -0.5,-0.5 3.6,-68.5 4.3,-71.1 0.3,-1.1 1.1,3.7 7.4,43.9 z m 161,-8.3 c 1.3,19.2 2.3,34.9 2.2,35 -0.1,0.1 -4.2,3.6 -9.1,7.8 -4.9,4.2 -9.1,7.4 -9.3,7.3 -0.2,-0.2 2.7,-19.6 6.4,-43 3.7,-23.5 6.8,-42.5 7,-42.3 0.2,0.2 1.5,16 2.8,35.2 z m -223,39.3 c 10.8,21.6 19.4,39.5 19.2,39.8 -0.6,0.5 -18.9,-7.6 -20.4,-9 -0.6,-0.7 -5,-16.3 -9.8,-34.7 -4.7,-18.4 -8.8,-34.2 -9.1,-35 -1.3,-3.7 1.7,2.1 20.1,38.9 z m 295,-38.7 c -0.2,0.7 -4.3,16.4 -9,34.8 -4.8,18.4 -9.2,34 -9.8,34.7 -1.5,1.4 -19.8,9.5 -20.4,9 -0.4,-0.4 38.8,-79.7 39.4,-79.7 0.1,0 0,0.6 -0.2,1.2 z m -183.8,22 c -1.2,6.5 -2.5,11.8 -2.9,11.8 -0.8,0 -9.6,-7.3 -9.7,-8 -0.1,-0.7 14.1,-16.2 14.4,-15.8 0.2,0.2 -0.7,5.6 -1.8,12 z m 65.2,3.8 c -0.1,0.7 -8.9,8 -9.7,8 -0.4,0 -1.5,-4.6 -2.5,-10.3 -1,-5.6 -2.1,-11.1 -2.3,-12.2 -0.3,-1.1 2.8,1.5 7.1,6 4.1,4.4 7.5,8.2 7.4,8.5 z m -61.3,20.1 c 0.5,0.8 -5.7,13.9 -6.6,13.9 -0.3,0 -2.2,-5.5 -4.4,-12.3 -2.1,-6.7 -4.1,-12.8 -4.4,-13.6 -0.4,-1.3 14.2,10.2 15.4,12 z m 56.1,0.7 c -2.3,7.2 -4.4,13.2 -4.7,13.2 -0.3,0 -2,-3 -3.8,-6.6 -2.8,-5.6 -3.1,-6.9 -2,-8 2.2,-2.2 14.3,-12.2 14.5,-12 0.1,0.1 -1.7,6.1 -4,13.4 z m -41.6,4.9 c 1.9,2.6 3.8,5.3 4.2,6 0.8,1.3 -6,12.3 -7.6,12.3 -0.4,0 -2.3,-1.2 -4.2,-2.7 -3.4,-2.7 -3.4,-2.9 -2.9,-8.3 1.1,-11.6 1.2,-12 4.3,-12 2.1,0 3.5,1 6.2,4.7 z m 25.3,-1.5 c 0.3,1.8 0.7,5.8 1,8.8 0.5,5.4 0.5,5.6 -2.9,8.3 -1.9,1.5 -3.8,2.7 -4.2,2.7 -1.6,0 -8.4,-11 -7.6,-12.3 4.3,-7 7.8,-10.7 10.4,-10.7 2.4,0 2.9,0.5 3.3,3.2 z m -73.2,17.5 c 14.1,12.2 18.9,17 23.9,24 3.4,4.9 7.8,10.9 9.6,13.5 l 3.4,4.7 -3.8,1 c -9.8,2.6 -6.5,5.6 -31.8,-29.6 -12.5,-17.5 -22,-31.1 -20.9,-30.3 1,0.8 9.8,8.4 19.6,16.7 z m 110.1,13.9 c -25.1,34.9 -21.8,31.9 -31.6,29.3 l -3.8,-1 3.4,-4.7 c 1.8,-2.6 6.2,-8.7 9.6,-13.5 5.1,-7.1 9.9,-11.9 25.4,-25.2 10.5,-9.1 19.2,-16.5 19.4,-16.5 0.1,0 -9.9,14.2 -22.4,31.6 z m -71.3,-10 c 3,2.4 5.8,4.4 6.2,4.4 0.4,0 2.9,-2.9 5.5,-6.5 2.7,-3.5 5,-6.4 5.3,-6.4 0.3,0 2.6,2.9 5.3,6.4 2.6,3.6 5.1,6.5 5.5,6.5 0.4,0 3.2,-2 6.2,-4.4 4.6,-3.6 5.6,-5 6,-8.2 0.5,-3.8 0.5,-3.7 5.6,7.2 l 5.1,11 -9.4,13.4 c -5.2,7.4 -9.7,13.5 -10.1,13.5 -0.4,0 -3.7,-0.6 -7.4,-1.4 -5.7,-1.1 -7.9,-1.1 -13.5,0 -3.8,0.8 -7.1,1.4 -7.5,1.4 -0.4,0 -4.9,-6.1 -10.1,-13.5 l -9.4,-13.4 5.1,-11 c 5.1,-10.9 5.1,-11 5.6,-7.2 0.4,3.2 1.4,4.6 6,8.2 z m -68,26.8 c 17.3,7.5 33.6,14.6 36.3,15.8 l 4.7,2.2 -3.2,1.4 c -6.5,2.7 -15.9,5.3 -17.1,4.6 -2.4,-1.5 -53.2,-36.8 -54.2,-37.7 -1.4,-1.4 -2.2,-1.7 33.5,13.7 z m 203.5,-13.6 c -1.2,1 -52.4,36.5 -54.3,37.6 -0.7,0.5 -5.5,-0.7 -10.9,-2.5 -8.5,-3 -9.3,-3.4 -7.2,-4.4 12.5,-5.7 71.6,-31.3 72.4,-31.4 0.6,-0.1 0.6,0.2 0,0.7 z m -100.6,29.3 c 9.1,2.3 17.1,4.7 17.7,5.3 1.6,1.7 12.6,36.6 12,38.1 -0.4,1.2 -13.1,11.9 -22.5,19 -1.4,1.1 -7.5,5.9 -13.4,10.7 -6,4.9 -11.2,8.8 -11.7,8.8 -0.4,0 -5.7,-3.9 -11.6,-8.7 -6,-4.9 -13.2,-10.6 -16,-12.8 -10.9,-8.5 -20.4,-16.8 -20.4,-17.8 0,-1.4 10.8,-34.8 11.9,-36.7 0.7,-1.3 30.6,-9.7 35.5,-9.9 1,-0.1 9.4,1.8 18.5,4 z m -64.8,24.3 -5.8,17.9 -13.4,3.8 c -7.4,2.1 -13.7,3.8 -14,3.9 -0.6,0 16.8,-35.1 18,-36.3 0.7,-0.7 20.4,-7.6 20.8,-7.3 0.1,0.1 -2.4,8.2 -5.6,18 z m 118.2,6.9 c 4.9,9.8 8.7,18 8.5,18.2 -0.2,0.2 -4.2,-0.7 -8.8,-2.1 -4.7,-1.4 -10.6,-2.9 -13.2,-3.5 l -4.7,-1 -5.7,-17.2 c -3.1,-9.5 -5.9,-17.8 -6.1,-18.4 -0.3,-0.8 3.8,0.2 10.3,2.5 l 10.8,3.7 z m -140.9,-13.1 c -1.5,5 -7.7,14.8 -9.2,14.9 -1,0 -3.5,0.2 -5.7,0.4 -12.7,1 -44.8,2.6 -45.2,2.2 -0.2,-0.3 5.8,-2.4 13.4,-4.8 7.6,-2.4 20.8,-6.7 29.3,-9.5 18.2,-6.1 18.4,-6.1 17.4,-3.2 z m 169.7,7.5 c 16.4,5.3 29.7,9.9 29.5,10.1 -0.4,0.4 -30.8,-1.2 -45.3,-2.4 l -7.2,-0.6 -4.1,-7.5 c -3.9,-7.2 -4.6,-9.3 -3.4,-9.3 0.3,0 14,4.4 30.5,9.7 z m -225.1,15.1 c 0,0.5 -4.2,5.3 -9.3,10.8 -5.1,5.4 -18.3,19.8 -29.2,31.8 -11,12.1 -21.3,23.3 -22.8,25 -1.6,1.7 -2.6,2.6 -2.4,2.1 0.5,-1.2 39.8,-67.8 40.4,-68.5 0.4,-0.4 9.3,-1.2 20.6,-1.8 1.5,-0.1 2.7,0.2 2.7,0.6 z m 265.1,0.2 h 7.7 l 18.8,31.7 c 10.3,17.5 19.6,33.4 20.7,35.3 l 2,3.5 -2.5,-2.5 c -1.4,-1.4 -9.8,-10.6 -18.8,-20.5 -9,-9.9 -19.1,-21 -22.4,-24.6 -11.4,-12.3 -20.6,-22.7 -20.6,-23.5 0,-0.3 1.7,-0.4 3.8,0 2,0.3 7.1,0.6 11.3,0.6 z m -180.3,14.6 c 6.4,5.2 12.1,10.1 12.5,10.7 0.6,0.8 -2.6,10.4 -8.3,25.2 -5.1,13.2 -9.5,24.5 -9.8,25.2 -0.7,1.1 -17.7,14.3 -18.6,14.3 -1.2,0 -17.9,-75.1 -16.9,-76 0.4,-0.4 5.3,-1.9 10.8,-3.3 7.9,-2 15.4,-4.3 18.3,-5.6 0.1,0 5.5,4.2 12,9.5 z m 109.6,-4.2 c 6.5,1.9 12.1,3.8 12.4,4.1 0.3,0.2 -0.7,5.5 -2.2,11.7 -1.4,6.2 -5.3,23 -8.6,37.2 -3.3,14.2 -6.1,26.1 -6.4,26.3 -0.5,0.6 -17.8,-12.4 -18.8,-14 -1.7,-3.2 -18.9,-49 -18.6,-49.8 0.2,-0.5 5.5,-5.2 11.8,-10.4 13.4,-11 11.7,-10.8 30.4,-5.1 z m -152.8,18.1 2.1,9.4 -12.1,7.3 c -6.7,4 -20,11.9 -29.6,17.6 l -17.4,10.3 4.9,-5.3 c 10.4,-11.4 48.9,-49.7 49.4,-49.2 0.3,0.3 1.5,4.8 2.7,9.9 z m 214.6,34.8 9.1,9.8 -17.4,-10.4 c -9.6,-5.6 -22.8,-13.6 -29.5,-17.5 l -12.1,-7.3 1.9,-8.7 c 1.1,-4.8 2.2,-9.4 2.4,-10.1 0.5,-1.5 27.5,24.7 45.6,44.2 z m -142.1,-25 c 5.3,4.3 10.3,7.7 11,7.7 0.8,-0.1 6.1,-3.9 11.9,-8.5 5.7,-4.7 10.7,-8.1 11.1,-7.7 0.9,1 17.9,45.4 17.9,46.8 0,1.2 -39.7,35.9 -41,35.9 -1.4,0 -41,-34.7 -41,-35.9 0,-0.9 7.5,-20.8 17.1,-45.5 0.7,-1.6 1.3,-2 2.2,-1.4 0.6,0.6 5.5,4.4 10.8,8.6 z m -181.9,69.9 c -8.6,24 -15.8,43.6 -15.9,43.4 -0.2,-0.1 1.6,-14.2 3.9,-31.2 l 4.1,-30.9 11.6,-12.6 c 6.4,-7 11.7,-12.6 11.8,-12.5 0.1,0.1 -6.8,19.8 -15.5,43.8 z m 383,-30.2 10.5,11.5 4.1,30.9 c 2.3,17 4.1,31.1 3.9,31.2 -0.2,0.2 -29.3,-79.9 -31.6,-87 -0.4,-1.3 -0.5,-1.4 13.1,13.4 z m -316.7,44.9 c 4.2,24.4 7.5,44.5 7.3,44.7 -0.6,0.5 -32,-81.5 -31.6,-82.6 0.1,-0.5 3.7,-3 7.8,-5.4 6.5,-3.8 7.6,-4.2 8.2,-2.8 0.4,1 4.1,21.7 8.3,46.1 z m 271.8,-41.9 c 3.1,1.7 5.7,3.7 5.7,4.3 0,1.6 -31.4,82.7 -31.8,82.2 -0.3,-0.2 14,-84.6 15.3,-90.3 0.5,-2.2 0.7,-2.3 2.8,-0.9 1.2,0.8 4.8,2.9 8,4.7 z m -176.7,10.7 c 6.8,5.9 12.4,11.4 12.4,12.3 0,0.8 -0.9,8.9 -2,18 -1.1,9.1 -2,16.8 -2,17.2 0,1 -10.4,-3.2 -12.2,-5 -2.4,-2.5 -28,-39.3 -27.6,-39.7 1.7,-1.7 17.5,-13.4 18.1,-13.4 0.5,-0.1 6.5,4.7 13.3,10.6 z m 84.7,-4.5 c 4.5,3.3 8.6,6.4 9,6.8 0.8,0.7 -24.9,38.6 -27.6,40.8 -0.7,0.6 -3.5,1.9 -6.4,3 l -5.1,1.9 -0.6,-4.1 c -1.4,-9.8 -3.7,-31.8 -3.4,-32.6 0.4,-1.3 24.1,-21.9 25.1,-22 0.5,0 4.5,2.8 9,6.2 z m -53.3,30.8 c 0.5,0 4.1,-2.7 7.9,-6.1 5.4,-4.6 7.1,-5.6 7.1,-4.2 0.1,1 0.9,8.8 2,17.3 1,8.5 1.7,15.7 1.4,16.1 -0.2,0.4 -4.4,2.1 -9.4,3.9 l -9,3.2 -9,-3.2 c -5,-1.8 -9.2,-3.6 -9.4,-3.9 -0.3,-0.4 0.4,-7.8 1.5,-16.6 1,-8.8 1.9,-16.6 1.9,-17.3 0,-0.8 3.2,1.4 7.1,4.7 3.8,3.4 7.4,6.1 7.9,6.1 z m -86,90.7 c 14.7,24.4 26.6,44.3 26.5,44.3 -0.2,0 -11.7,-13.7 -25.5,-30.5 l -25.1,-30.5 -2.8,-15.7 c -2.2,-12 -2.5,-15.3 -1.4,-13.8 0.8,1.1 13.6,21.9 28.3,46.2 z m 198.9,-32.2 -2.8,15.5 -25.1,30.5 c -13.8,16.8 -25.4,30.5 -25.7,30.5 -0.3,0 -0.1,-0.6 0.5,-1.3 0.5,-0.6 12.5,-20.3 26.7,-43.7 28,-46.3 28.4,-47 28.8,-47 0.2,0 -0.9,7 -2.4,15.5 z"
     id="path329"
     style="fill:#ecd9d9;stroke:none;stroke-width:0.1;fill-opacity:1;opacity:0.05" />
</svg>
