<?xml version="1.0" encoding="UTF-8" standalone="no"?>
<svg
   xmlns:dc="http://purl.org/dc/elements/1.1/"
   xmlns:cc="http://creativecommons.org/ns#"
   xmlns:rdf="http://www.w3.org/1999/02/22-rdf-syntax-ns#"
   xmlns:svg="http://www.w3.org/2000/svg"
   xmlns="http://www.w3.org/2000/svg"
   xmlns:sodipodi="http://sodipodi.sourceforge.net/DTD/sodipodi-0.dtd"
   xmlns:inkscape="http://www.inkscape.org/namespaces/inkscape"
   inkscape:version="1.0 (1.0+r73+1)"
   sodipodi:docname="swip.svg"
   id="svg146"
   preserveAspectRatio="xMidYMid meet"
   viewBox="0 0 600.000000 700.000000"
   height="700.000000pt"
   width="600.000000pt"
   version="1.0">
  <metadata
     id="metadata152">
    <rdf:RDF>
      <cc:Work
         rdf:about="">
        <dc:format>image/svg+xml</dc:format>
        <dc:type
           rdf:resource="http://purl.org/dc/dcmitype/StillImage" />
        <dc:title></dc:title>
      </cc:Work>
    </rdf:RDF>
  </metadata>
  <defs
     id="defs150" />
  <sodipodi:namedview
     inkscape:current-layer="g197"
     inkscape:window-maximized="1"
     inkscape:window-y="27"
     inkscape:window-x="67"
     inkscape:cy="448.87339"
     inkscape:cx="314.00491"
     inkscape:zoom="0.87214286"
     showgrid="false"
     id="namedview148"
     inkscape:window-height="1025"
     inkscape:window-width="1853"
     inkscape:pageshadow="2"
     inkscape:pageopacity="0"
     guidetolerance="10"
     gridtolerance="10"
     objecttolerance="10"
     borderopacity="1"
     bordercolor="#666666"
     pagecolor="#ffffff" />
  <g
     style="opacity:0.3"
     id="g197">
    <path
       style="fill:#d3c4c4;fill-opacity:1;stroke:none;stroke-width:0.1"
       id="path102"
       d="m 189.02916,98.485049 v 38.500001 h 7 7 v -17 c 0,-9.4 0.3,-17 0.8,-16.9 0.4,0 7.5,7.7 15.7,16.9 l 15,16.9 9.4,0.1 h 9.3 l -8.3,-9.1 c -20.8,-22.7 -26.8,-29.400001 -26.9,-30.000001 0,-0.6 6.1,-7.3 25.2,-28.2 l 9,-9.7 h -8.4 -8.5 l -15.4,17 c -8.5,9.3 -15.7,17 -16.1,17 -0.5,0 -0.8,-7.7 -0.8,-17 v -17 h -7 -7 z" />
    <path
       style="fill:#d3c4c4;fill-opacity:1;stroke:none;stroke-width:0.1"
       id="path104"
       d="m 261.02916,98.485049 v 38.500001 h 25 25 v -6 -6 h -18 -18 v -11 -11 h 18 18 v -6.000001 -6 h -18 -18 v -9.5 -9.5 h 18 18 v -6 -6 h -25 -25 z" />
    <path
       style="fill:#d3c4c4;fill-opacity:1;stroke:none;stroke-width:0.1"
       id="path106"
       d="m 323.02916,98.485049 v 38.500001 h 25 25 v -6 -6 h -18 -18 v -11 -11 h 18 18 v -6.000001 -6 h -18 -18 v -9.5 -9.5 h 18 18 v -6 -6 h -25 -25 z" />
    <path
       style="fill:#d3c4c4;fill-opacity:1;stroke:none;stroke-width:0.1"
       id="path108"
       d="m 385.02916,98.385049 v 38.600001 h 7 7 v -12.4 -12.3 l 9.8,-0.5 c 10.8,-0.6 15.1,-2 20.6,-6.8 5,-4.4 7.8,-10.200001 8.4,-17.500001 0.6,-7.7 -2.3,-14.9 -8,-20.1 -6.8,-6.1 -9.4,-6.8 -28,-7.2 l -16.8,-0.4 z m 31.8,-24.4 c 6.8,4.2 9.1,12.4 5.2,18.8 -3.2,5.3 -7.4,7.2 -15.7,7.2 h -7.3 v -14 -14 h 7.3 c 5.4,0 8,0.5 10.5,2 z" />
    <path
       style="fill:#d3c4c4;fill-opacity:1;stroke:none;stroke-width:0.1"
       id="path110"
       d="m 191.72916,179.98505 c -7.2,1.3 -17.1,6.3 -22.1,11.3 -18.8,18.9 -13.2,50.5 11,61.9 15.7,7.4 33.2,5.1 45.4,-6 l 4.5,-4 -4.9,-5.1 -5,-5 -3.4,3.6 c -5,5.1 -10.4,7.3 -18.2,7.3 -15,0 -26.2,-11 -26.2,-25.5 0,-14.5 11.2,-25.5 26.2,-25.5 7.7,0 13.1,2.2 18.3,7.4 l 3.6,3.5 4.5,-5 c 2.5,-2.8 4.3,-5.5 4,-6 -1.5,-2.5 -11,-9 -15.6,-10.7 -6.5,-2.4 -15.7,-3.3 -22.1,-2.2 z" />
    <path
       style="fill:#d3c4c4;fill-opacity:1;stroke:none;stroke-width:0.1"
       id="path112"
       d="m 251.32916,216.78505 c -9.5,20.2 -17.5,37.5 -17.9,38.5 -0.6,1.6 0,1.8 7,1.5 l 7.7,-0.3 3.4,-7.5 3.4,-7.5 19.1,-0.3 19.1,-0.2 3.6,8 3.6,8 h 7.7 7.8 l -18.1,-38.5 -18.2,-38.5 h -5.5 l -5.5,0.1 z m 35.7,11.9 c 0,0.1 -5.8,0.3 -13,0.3 -7.1,0 -13,-0.2 -13,-0.4 0,-0.2 2.9,-6.6 6.5,-14.2 l 6.6,-13.8 6.4,13.9 c 3.6,7.6 6.5,14 6.5,14.2 z" />
    <path
       style="fill:#d3c4c4;fill-opacity:1;stroke:none;stroke-width:0.1"
       id="path114"
       d="m 324.02916,218.48505 v 38.5 h 25.5 25.5 v -7 -7 h -18.5 -18.5 v -31.5 -31.5 h -7 -7 z" />
    <path
       style="fill:#d3c4c4;fill-opacity:1;stroke:none;stroke-width:0.1"
       id="path116"
       d="m 385.02916,218.48505 v 38.5 h 7 7 l 0.2,-26.1 0.3,-26.1 11.5,20.5 11.5,20.5 12,-20.2 12,-20.1 0.3,25.7 0.2,25.8 h 7 7 v -38.5 -38.5 h -7.8 -7.7 l -11,19 c -6.1,10.4 -11.3,18.9 -11.7,18.7 -0.5,-0.1 -5.4,-8.5 -11.1,-18.7 l -10.4,-18.5 -8.1,-0.3 -8.2,-0.3 z" />
    <path
       style="fill:#d3c4c4;fill-opacity:1;stroke:none;stroke-width:0.1"
       id="path118"
       d="m 333.02916,303.98505 v 18.2 l 9.3,-0.4 c 7,-0.3 10.1,-0.9 12.7,-2.4 10.6,-6.2 10.6,-24.6 0,-30.8 -2.6,-1.5 -5.7,-2.1 -12.7,-2.4 l -9.3,-0.4 z m 18,-10.5 c 5.5,2.8 7.6,10.5 4.6,16.4 -2.2,4.2 -5.8,6.1 -11.6,6.1 h -5 v -12 -12 h 4.5 c 2.6,0 5.9,0.7 7.5,1.5 z" />
    <path
       style="fill:#d3c4c4;fill-opacity:1;stroke:none;stroke-width:0.1"
       id="path120"
       d="m 263.62916,303.68505 c -4.4,9.2 -8.1,17.1 -8.3,17.5 -0.2,0.5 1.1,0.8 3,0.8 2.8,0 3.6,-0.5 5,-3.5 l 1.7,-3.5 h 8.8 8.8 l 1.7,3.5 c 1.4,2.9 2.2,3.5 4.7,3.5 1.6,0 3,-0.3 3,-0.8 0,-0.4 -3.6,-8.1 -7.9,-17.2 -10.6,-22.4 -10.1,-22.4 -20.5,-0.3 z m 13.8,-0.5 2.5,5.8 h -6 c -3.2,0 -5.9,-0.2 -5.9,-0.4 0,-1.8 5.5,-12.5 6.1,-11.9 0.4,0.4 1.9,3.4 3.3,6.5 z" />
    <path
       style="fill:#d3c4c4;fill-opacity:1;stroke:none;stroke-width:0.1"
       id="path122"
       d="m 297.02916,304.48505 v 17.5 h 3 2.9 l 0.3,-12.3 0.3,-12.2 8,12.2 c 7,10.8 8.3,12.3 10.8,12.3 h 2.7 v -17.5 -17.5 h -3 -3 v 11.7 11.7 l -7.6,-11.7 c -7.2,-11.2 -7.8,-11.7 -11,-11.7 h -3.4 z" />
    <path
       style="fill:#d3c4c4;fill-opacity:1;stroke:none;stroke-width:0.1"
       id="path124"
       d="m 174.32916,353.98505 c -5.5,1.2 -9.1,3.1 -13,7.2 -4.1,4.2 -5.3,7.6 -5.3,14.5 0,10.3 5.5,16.2 20.6,22.2 14,5.6 17.6,8.9 15.4,14.5 -1.6,4.3 -5.2,5.9 -12.3,5.4 -5.8,-0.4 -9.1,-1.5 -14.4,-4.9 -2.2,-1.3 -2.6,-1.1 -7,3.3 -4.6,4.6 -4.7,4.7 -2.8,6.8 4.8,5.3 20.9,9.8 30.4,8.4 9,-1.3 16.2,-5.9 19.8,-12.9 2,-3.8 2,-13.2 0,-17.1 -3.4,-6.6 -8.1,-9.8 -22.4,-15.3 -8.5,-3.3 -13.3,-7.4 -13.3,-11.3 0,-1.1 1.3,-3.3 2.9,-4.9 2.5,-2.5 3.7,-2.9 8.4,-2.9 3.8,0 6.7,0.7 9.9,2.4 l 4.6,2.4 4.7,-4.8 4.8,-4.9 -2.4,-2 c -5.7,-4.9 -19.9,-7.9 -28.6,-6.1 z" />
    <path
       style="fill:#d3c4c4;fill-opacity:1;stroke:none;stroke-width:0.1"
       id="path126"
       d="m 213.02916,354.18505 c 0,0.2 5.5,17.4 12.3,38.3 l 12.3,38 h 6.3 6.4 l 4.7,-16 c 2.6,-8.8 5.7,-19.3 7,-23.4 1.2,-4 2.5,-7 3,-6.5 0.6,0.7 7.9,24.5 13.2,43.1 0.9,3.3 1,3.3 7.1,3.3 h 6.2 l 11.9,-36.8 c 6.5,-20.2 12.1,-37.5 12.4,-38.5 0.4,-1.5 -0.4,-1.7 -7,-1.7 h -7.4 l -7.9,24.2 c -4.2,13.4 -8.1,24.6 -8.4,25.1 -0.4,0.4 -3.8,-10.4 -7.7,-24 l -6.9,-24.8 h -5.9 -5.9 l -6.7,23.5 c -3.6,12.9 -6.9,24.2 -7.2,25 -0.3,0.8 -4.2,-9.9 -8.7,-23.8 l -8.2,-25.2 h -7.5 c -4.1,0 -7.4,0.1 -7.4,0.2 z" />
    <path
       style="fill:#d3c4c4;fill-opacity:1;stroke:none;stroke-width:0.1"
       id="path128"
       d="m 325.02916,392.48505 v 38.5 h 7 7 v -38.5 -38.5 h -7 -7 z" />
    <path
       style="fill:#d3c4c4;fill-opacity:1;stroke:none;stroke-width:0.1"
       id="path130"
       d="m 354.02916,392.38505 v 38.6 h 7 7 v -12.4 -12.3 l 9.8,-0.5 c 10.8,-0.6 15.1,-2 20.6,-6.8 5,-4.4 7.8,-10.2 8.4,-17.5 0.6,-7.7 -2.3,-14.9 -8,-20.1 -6.8,-6.1 -9.4,-6.8 -28,-7.2 l -16.8,-0.4 z m 31.8,-24.4 c 6.8,4.2 9.1,12.4 5.2,18.8 -3.2,5.3 -7.4,7.2 -15.7,7.2 h -7.3 v -14 -14 h 7.3 c 5.4,0 8,0.5 10.5,2 z" />
    <path
       style="fill:#d3c4c4;fill-opacity:1;stroke:none;stroke-width:0.1"
       id="path132"
       d="m 417.02916,392.48505 v 38.5 h 25 25 v -6 -6 h -18 -18 v -11 -11 h 18 18 v -6 -6 h -18 -18 v -9.5 -9.5 h 18 18 v -6 -6 h -25 -25 z" />
    <path
       style="fill:#d3c4c4;fill-opacity:1;stroke:none;stroke-width:0.1"
       id="path134"
       d="m 287.72916,474.98505 c -2.6,0.5 -7.6,2.2 -11,3.8 -21,9.8 -28.6,34.8 -16.6,54.8 12.7,21.1 44,25.3 62.3,8.4 l 4.6,-4.3 v -12.3 -12.4 h -14.5 -14.5 v 6 6 h 7.6 7.5 l -0.3,4.2 c -0.3,4.1 -0.6,4.4 -5.7,7 -14.6,7.4 -33.1,-0.2 -37.6,-15.6 -1.9,-6.2 -1.9,-8 0.1,-14.5 3.1,-10.5 13.4,-18.1 24.8,-18.1 8.1,0 12.9,1.7 18.3,6.4 l 4.6,4 4.3,-4.9 4.4,-4.9 -2.8,-2.9 c -7.8,-8.3 -22.9,-12.8 -35.5,-10.7 z" />
    <path
       style="fill:#d3c4c4;fill-opacity:1;stroke:none;stroke-width:0.1"
       id="path136"
       d="m 161.02916,513.38505 v 38.6 h 7 7 v -15 -15 h 5.8 c 4.5,0 6.5,0.5 9.4,2.5 3.8,2.6 5,5.1 9.9,20.2 l 2.3,7.3 h 7.7 7.8 l -2.3,-5.8 c -1.3,-3.1 -3.5,-9.2 -5,-13.5 -2.7,-7.3 -6.2,-12.5 -9.6,-14 -1.2,-0.6 -1.2,-0.8 -0.2,-1.3 3.1,-1.4 8.5,-7 10.4,-10.8 4,-7.9 2,-19.3 -4.4,-25.3 -5.1,-4.8 -9.2,-5.7 -28,-6.1 l -17.8,-0.4 z m 32,-25.9 c 3.7,1.9 6,6.2 6,11.2 0,7.8 -5.1,11.3 -16.5,11.3 h -7.5 v -12 -12 h 7.5 c 4.8,0 8.7,0.6 10.5,1.5 z" />
    <path
       style="fill:#d3c4c4;fill-opacity:1;stroke:none;stroke-width:0.1"
       id="path138"
       d="m 228.02916,513.48505 v 38.5 h 7 7 v -38.5 -38.5 h -7 -7 z" />
    <path
       style="fill:#d3c4c4;fill-opacity:1;stroke:none;stroke-width:0.1"
       id="path140"
       d="m 339.02916,513.48505 v 38.5 h 7 7 v -17 -17 h 15.5 15.5 v 17 17 h 7 7 v -38.5 -38.5 h -7 -7 v 15.5 15.5 h -15.5 -15.5 v -15.5 -15.5 h -7 -7 z" />
    <path
       style="fill:#d3c4c4;fill-opacity:1;stroke:none;stroke-width:0.1"
       id="path142"
       d="m 408.02916,481.98505 v 7 h 10.5 10.5 v 31.5 31.5 h 7.5 7.5 v -31.5 -31.5 h 10.5 10.5 v -7 -7 h -28.5 -28.5 z" />
  </g>
</svg>
