<?xml version="1.0" encoding="UTF-8" standalone="no"?>
<svg
   xmlns:osb="http://www.openswatchbook.org/uri/2009/osb"
   xmlns:dc="http://purl.org/dc/elements/1.1/"
   xmlns:cc="http://creativecommons.org/ns#"
   xmlns:rdf="http://www.w3.org/1999/02/22-rdf-syntax-ns#"
   xmlns:svg="http://www.w3.org/2000/svg"
   xmlns="http://www.w3.org/2000/svg"
   xmlns:sodipodi="http://sodipodi.sourceforge.net/DTD/sodipodi-0.dtd"
   xmlns:inkscape="http://www.inkscape.org/namespaces/inkscape"
   inkscape:version="1.0 (1.0+r73+1)"
   sodipodi:docname="transp_witch.svg"
   id="svg10829"
   preserveAspectRatio="xMidYMid meet"
   viewBox="0 0 1024.000000 1024.000000"
   height="1024.000000pt"
   width="1024.000000pt"
   version="1.0">
  <metadata
     id="metadata10835">
    <rdf:RDF>
      <cc:Work
         rdf:about="">
        <dc:format>image/svg+xml</dc:format>
        <dc:type
           rdf:resource="http://purl.org/dc/dcmitype/StillImage" />
        <dc:title></dc:title>
      </cc:Work>
    </rdf:RDF>
  </metadata>
  <defs
     id="defs10833">
    <linearGradient
       osb:paint="solid"
       id="linearGradient11426">
      <stop
         id="stop11424"
         offset="0"
         style="stop-color:#5f1aaf;stop-opacity:1;" />
    </linearGradient>
  </defs>
  <sodipodi:namedview
     inkscape:current-layer="g10827"
     inkscape:window-maximized="1"
     inkscape:window-y="27"
     inkscape:window-x="67"
     inkscape:cy="501.62799"
     inkscape:cx="682.66667"
     inkscape:zoom="0.6628418"
     showgrid="false"
     id="namedview10831"
     inkscape:window-height="1025"
     inkscape:window-width="1853"
     inkscape:pageshadow="2"
     inkscape:pageopacity="0"
     guidetolerance="10"
     gridtolerance="10"
     objecttolerance="10"
     borderopacity="1"
     bordercolor="#666666"
     pagecolor="#ffffff" />
  <g
     id="g10827"
     stroke="none"
     fill="#000000"
     transform="matrix(0.1,0,0,-0.1,0,1024)">
    <path
       style="fill:#050914;fill-opacity:1"
       id="path10825"
       d="m 2921.3481,9026.7875 c -4,-20 -5,-39 -2,-44 3,-4 8,-39 10,-77 8,-96 15,-173 21,-214 3,-19 10,-71 16,-115 10,-80 16,-117 22,-145 2,-8 7,-31 11,-50 4,-19 13,-62 21,-95 8,-33 16,-71 19,-85 15,-86 81,-296 126,-400 18,-41 35,-97 39,-125 4,-27 10,-56 14,-63 5,-7 3,-37 -3,-67 -16,-77 -15,-122 6,-184 16,-50 16,-55 1,-66 -10,-7 -17,-26 -17,-44 0,-21 -14,-53 -40,-92 -22,-33 -40,-69 -40,-79 0,-12 15,-28 40,-42 43,-25 51,-41 36,-76 -7,-17 -6,-30 7,-52 9,-15 17,-35 17,-44 0,-9 9,-25 19,-35 30,-30 41,-56 41,-100 0,-23 7,-46 17,-56 21,-22 63,-37 81,-30 8,3 38,8 66,11 28,3 69,9 91,13 113,20 213,-15 302,-106 49,-50 103,-144 103,-179 0,-9 -86,-102 -191,-207 -171,-172 -279,-287 -388,-414 -81,-95 -169,-180 -217,-211 -64,-40 -141,-116 -258,-253 -97,-113 -102,-119 -156,-189 -19,-24 -39,-49 -45,-56 -5,-6 -19,-23 -30,-38 -11,-16 -25,-34 -32,-41 -13,-14 -132,-168 -233,-301 -137,-184 -148,-194 -202,-194 -24,1 -61,8 -83,16 -137,51 -164,54 -232,20 -47,-23 -98,-40 -157,-50 -15,-3 -40,-13 -54,-22 -26,-17 -93,-15 -172,6 -18.9999,5 -88.9999,21 -155,35 -66,15 -128.0001,29 -138.0001,31 -9,2 -27,6 -39,9 -12,2 -53,12 -92,20 -130.99994,30 -140.99994,31 -175.99994,24 -20,-4 -47,-21 -63,-40 -25,-28 -29,-38 -24,-76 7,-64 49,-106 118,-118 19,-3 70,-14 113.99994,-25 44,-10 91,-21 105,-24 14,-3 54,-12 90,-20 36.0001,-9 85.0001,-20 110.0001,-26 25,-5 56.0001,-12 70.0001,-15 14,-3 47,-10 73.9999,-15 137,-27 146,-36 102,-100 -40,-60 -41,-76 -7,-111 17,-17 31,-39 31,-50 0,-10 5,-19 11,-19 6,0 26,-16 44,-35 17,-20 43,-38 56,-41 61,-12 96,-11 129,6 34,18 172,137 211,181 17,19 26,21 81,16 35,-4 92,-14 128,-23 36,-8 74,-17 84,-20 11,-2 49,-10 85,-18 57,-13 105,-24 231,-52 14,-3 30,-7 35,-9 6,-1 29,-6 53,-10 51,-9 67,-29 106,-135 15,-41 34,-89 41,-105 8,-17 28,-69 45,-115 17,-47 38,-101 46,-120 8,-19 19,-44 23,-55 5,-11 22,-51 39,-90 17,-38 43,-101 57,-140 15,-38 33,-83 40,-100 47,-105 65,-146 65,-150 0,-2 18,-43 40,-90 22,-47 40,-89 40,-92 0,-3 14,-35 31,-72 161,-341 171,-363 262,-529 63,-114 153,-260 167,-272 3,-3 31,-39 63,-80 31,-41 64,-84 73,-95 9,-11 54,-70 100,-131 46,-62 103,-134 127,-160 23,-27 74,-87 112,-134 38,-47 104,-121 146,-165 150,-157.99996 187,-198.99996 229,-255.99996 51,-69 105,-119 135,-124 51,-9 91,24 111,90 9,32 13,71 10,88 -3,18 -9,51 -12,75 -16,111.99996 -103,298.99996 -176,374.99996 -22,23 -53,69 -68,102 -47,101 -70,154 -70,161 0,16 -57,145 -87,196 -65,111 -129,130 -279,81 -70,-23 -87,-25 -106,-14 -24,12 -73,113 -83,171 -6,34 -50,165 -100,295 -22,59 -106,310 -159,475 -34,105 -67,231 -64,240 4,12 39,-20 98,-91 24,-30 130,-139 236,-244 179,-178 240,-236 310,-294 16,-13 45,-38 65,-55 19,-17 52,-44 73,-61 21,-16 52,-42 69,-57 18,-15 35,-28 38,-28 4,0 24,-16 45,-35 22,-19 42,-35 46,-35 5,0 27,-17 104,-79 6,-5 65,-46 130,-90 149,-102 199,-139 307,-224 88,-69 175,-111 208,-98 29,10 69,50 70,68 3,49 -4,100 -21,147 -45,132 -161,296 -254,361 -67,46 -132,127 -186,230 -43,80 -94,151 -157,212 -65,66 -75,69 -167,63 -24,-1 -161,-66 -191,-90 -5,-4 -28,-13 -50,-19 -39,-11 -40,-10 -86,39 -45,49 -159,208 -159,224 0,4 -8,20 -18,34 -49,72 -140,316 -147,394 -9,92 -21,146 -58,255 -11,35 -18,65 -15,69 3,3 32,0 65,-6 32,-7 81,-16 108,-21 28,-6 62,-14 77,-20 l 26,-11 -5,-96 c -4,-77 -1,-109 14,-156 10,-33 23,-61 29,-63 6,-2 24,8 40,23 52,46 90,57 194,54 183,-5 206,-4 300,3 88,7 114,10 180,23 116,22 140,19 490,-60 63,-15 124,-28 135,-30 11,-2 54,-12 95,-21 41,-9 84,-18 95,-20 11,-2 38,-9 60,-14 61,-15 239,-55 249,-55 5,-1 14,-9 20,-18 8,-14 6,-26 -8,-53 -46,-86 -9,-180 80,-205 112,-32 256,-9 402,62 32,16 52,21 53,14 1,-6 1,-65 0,-132 -2,-276 80,-469 284,-668 133,-130 293,-220 453,-257 70,-16 207,-20 264,-8 63,14 81,17 93,18 23,2 -16,20 -80,36 -82,21 -130,45 -205,101 -63,48 -96,81 -87,90 3,3 34,-4 69,-16 188,-67 242,-84 381,-120 84,-22 168,-42 187,-44 20,-3 47,-7 60,-10 152,-35 502,-40 675,-11 17,3 46,8 65,11 80,13 285,78 375,118 17,8 64,28 105,46 41,18 92,44 112,56 21,13 40,24 44,24 9,0 128,84 132,93 2,4 9,7 15,7 7,0 24,11 37,23 103,95 242,161 382.9999,182 20,3 37,9 37,13 -1,16 -72.9999,83 -129.9999,122 -139,95 -345,128 -570,94 -58,-9 -194,-10 -246,-2 -45,8 -155,52 -196,80 -14,10 -30,18 -35,18 -15,0 -157,153 -196,213 -21,31 -65,110 -98,174 -91,179 -144,262 -242,378 -63,74 -169,170 -232,211 -16,10 -32,21 -35,25 -4,5 -142,77 -192,100 -78,37 -291,57 -396,38 -238,-44 -506,-230 -699,-488 -10,-14 -20,-12 -87,22 -77,39 -161,59 -208,50 -39,-7 -77,-53 -103,-124 l -23,-64 -43,1 c -24,1 -53,4 -64,7 -24,7 -140,33 -208,47 -27,5 -52,12 -55,14 -4,2 -27,7 -52,11 -25,4 -47,8 -51,10 -3,2 -21,7 -40,10 -57,9 -262,56 -286,66 -21,8 -33,39 -15,39 25,0 138,111 196,194 65,91 144,271 161,366 14,80 13,229 -1,301 -39,189 -109,323 -243,463 -70,74 -71,74 -201,187 -94,82 -242,228 -307,303 -89,103 -282,416 -314,508 -16,47 -8,55 33,36 138,-67 307,-99 483,-93 61,2 126,7 145,11 76,13 220,53 247,68 l 28,15 -35,1 c -45,2 -128,12 -191,25 -46,9 -99,35 -99,48 0,7 19,21 43,30 23,10 134,63 245,118 243,120 296,134 435,113 96,-14 159,-35 279,-94 l 80,-39 -6,35 c -8,38 -62,136 -95,171 -23,24 -31,67 -9,45 7,-7 18,-12 25,-12 15,0 105,-40 113,-50 3,-4 27,-19 53,-35 27,-15 72,-49 100,-76 73,-69 81,-50 24,64 -72,146 -182,239 -330,279 -83,23 -284,32 -362,17 -27,-5 -59,-11 -70,-13 -50,-10 -90,-21 -223,-63 -79,-25 -160,-46 -180,-47 -46,-3 -126,29 -172,67 -53,46 -55,53 -22,105 18,28 33,68 37,100 7,54 -1,65 -27,38 -34,-33 -116,-65 -174,-67 -82,-3 -154,28 -301,127 -54,36 -31,42 152,42 158,0 243,5 305,17 174,34 194,45 118,66 -167,46 -417,150 -501,208 -25,17 -49,31 -54,31 -4,0 -21,12 -38,26 -16,14 -50,42 -73,62 -48,41 -127,138 -152,187 -11,22 -13,35 -6,43 15,16 25,28 84,107 49,63 52,73 48,112 -2,23 -7,47 -10,52 -4,5 11,5 36,-1 41,-9 42,-8 97,44 30,29 146,145 258,258 164,166 205,214 219,253 20,53 37,59 66,22 l 19,-25 37,19 c 92,46 163,63 266,64 56,1 115,-1 131,-5 61,-14 71,-16 98,-27 89,-35 71,15 -50,133 -73,71 -117,104 -203,148 -93,48 -238,85 -241,61 -7,-67 -23,-74 -64,-30 -19,20 -42,37 -52,38 -10,0 -29,2 -43,4 -42,6 -292,7 -335,1 -22,-3 -76,-15 -120,-27 -44,-11 -91,-23 -105,-25 -37,-8 -228,-90 -278,-120 -43,-26 -44,-27 -38,-70 3,-24 8,-49 11,-54 9,-15 -26,0 -62,26 -39,30 -45,30 -122,-1 -88,-34 -91,-38 -91,-106 0,-32 -4,-60 -9,-64 -6,-3 -22,11 -38,31 -27,35 -152,104 -188,104 -8,0 -68,-27 -131,-61 l -116,-60 -46,18 c -46,17 -175,97 -210,130 -11,10 -42,36 -68,58 -74,60 -230,222 -299,309 -16,21 -42,53 -57,71 -27,31 -55,68 -100,132 -13,18 -26,33 -29,33 -4,0 -10,-16 -13,-35 z m 886,-3428 c 20,-176 124,-261 334,-272 73,-4 86,-10 114,-56 21,-35 156,-149 176,-149 4,0 22,-11 40,-25 18,-14 35,-25 37,-25 12,0 117,-76 158,-114 49,-47 92,-101 96,-126 15,-74 -10,-119 -76,-141 -67,-23 -189,-12 -253,21 -59,31 -118,70 -118,78 0,4 -9,13 -20,20 -16,10 -26,9 -55,-5 -27,-13 -43,-32 -67,-81 l -31,-63 -136,8 c -307,18 -718,8 -911,-21 -14,-2 -47,-7 -75,-11 -27,-4 -53,-9 -58,-12 -4,-2 -20,-6 -35,-9 -50,-8 -150,-64 -185,-103 -41,-45 -55,-114 -42,-210 15,-120 12,-128 -41,-110 -11,4 -34,10 -50,12 -39,7 -123,25 -154,33 -14,3 -43,10 -65,14 -88,19 -95,22 -95,42 0,28 85,114 165,165 59,38 130,89 170,121 6,4 46,34 90,67 44,33 103,78 130,100 28,22 66,51 85,65 35,26 88,68 106,85 6,5 38,32 70,59 102,86 238,231 264,282 41,82 98,154 215,269 137,136 177,168 200,161 6,-1 13,-33 17,-69 z" />
  </g>
</svg>
