<?xml version="1.0" encoding="UTF-8" standalone="no"?>
<svg
   xmlns:dc="http://purl.org/dc/elements/1.1/"
   xmlns:cc="http://creativecommons.org/ns#"
   xmlns:rdf="http://www.w3.org/1999/02/22-rdf-syntax-ns#"
   xmlns:svg="http://www.w3.org/2000/svg"
   xmlns="http://www.w3.org/2000/svg"
   xmlns:sodipodi="http://sodipodi.sourceforge.net/DTD/sodipodi-0.dtd"
   xmlns:inkscape="http://www.inkscape.org/namespaces/inkscape"
   inkscape:version="1.0 (1.0+r73+1)"
   sodipodi:docname="witch_g.svg"
   id="svg10083"
   preserveAspectRatio="xMidYMid meet"
   viewBox="0 0 130.000000 300.000000"
   height="300.000000pt"
   width="130.000000pt"
   version="1.0">
  <metadata
     id="metadata10089">
    <rdf:RDF>
      <cc:Work
         rdf:about="">
        <dc:format>image/svg+xml</dc:format>
        <dc:type
           rdf:resource="http://purl.org/dc/dcmitype/StillImage" />
        <dc:title></dc:title>
      </cc:Work>
    </rdf:RDF>
  </metadata>
  <defs
     id="defs10087" />
  <sodipodi:namedview
     inkscape:current-layer="svg10083"
     inkscape:window-maximized="1"
     inkscape:window-y="27"
     inkscape:window-x="67"
     inkscape:cy="200"
     inkscape:cx="86.666667"
     inkscape:zoom="2.125"
     showgrid="false"
     id="namedview10085"
     inkscape:window-height="1025"
     inkscape:window-width="1853"
     inkscape:pageshadow="2"
     inkscape:pageopacity="0"
     guidetolerance="10"
     gridtolerance="10"
     objecttolerance="10"
     borderopacity="1"
     bordercolor="#666666"
     pagecolor="#ffffff" />
  <g
     style="fill:#478983;fill-opacity:1"
     id="g10081"
     stroke="none"
     fill="#000000"
     transform="matrix(0.1,0,0,-0.1,-1.122135,300.46093)">
    <path
       style="fill:#478983;fill-opacity:1"
       id="path10079"
       d="m 513,2988 c -4,-7 -6,-21 -5,-30 2,-10 -1,-18 -7,-18 -11,0 -44,-107 -36,-119 2,-5 -2,-11 -10,-15 -8,-3 -15,-12 -15,-21 0,-8 -9,-24 -19,-34 -10,-10 -25,-31 -32,-46 -12,-24 -30,-32 -131,-61 -130,-37 -201,-69 -195,-87 8,-24 144,-118 193,-134 l 51,-16 11,-74 c 7,-40 19,-87 28,-104 14,-28 14,-33 -5,-73 -25,-51 -26,-82 -6,-161 17,-64 12,-79 -26,-73 -19,2 -24,8 -22,31 2,24 0,27 -13,17 -21,-18 -17,-38 12,-67 17,-17 33,-24 49,-21 21,4 23,2 15,-13 -18,-32 -41,-49 -70,-49 -16,0 -31,6 -33,13 -3,6 -6,-1 -6,-16 -1,-20 5,-30 22,-36 12,-5 25,-7 29,-4 5,2 8,2 8,-1 0,-3 -21,-19 -46,-36 -41,-29 -48,-31 -75,-20 -16,7 -29,20 -29,30 0,10 -7,23 -15,30 -8,7 -15,23 -15,36 0,15 -6,24 -15,24 -8,0 -15,-9 -15,-19 0,-29 -33,-82 -48,-76 -6,2 -12,0 -12,-5 0,-5 -7,-7 -16,-3 -14,5 -14,3 -5,-13 31,-55 37,-58 130,-62 l 90,-4 95,50 c 52,28 97,48 100,44 2,-4 -20,-21 -50,-36 -70,-37 -137,-112 -161,-179 -14,-40 -18,-79 -17,-167 1,-107 5,-128 54,-300 C 323,813 324,774 270,555 212,319 184,260 112,229 l -37,-16 35,-21 c 27,-17 51,-22 102,-22 64,0 69,-2 113,-40 53,-45 52,-45 160,-25 62,12 128,15 292,11 207,-4 212,-5 245,-29 18,-13 47,-32 65,-41 18,-9 37,-24 42,-33 9,-15 11,-13 17,14 3,18 11,30 16,27 6,-4 31,-6 57,-6 51,1 81,26 81,68 0,24 0,24 -20,4 -14,-14 -32,-20 -62,-19 l -43,1 35,7 c 48,10 60,18 60,45 0,33 -11,39 -27,16 -19,-27 -59,-25 -88,5 -35,34 -34,100 1,172 22,44 26,63 22,113 -5,73 -36,111 -110,138 -37,13 -49,22 -53,43 -3,15 -14,29 -23,31 -14,4 -24,58 -64,334 -25,181 -47,345 -47,364 -1,19 -8,58 -15,85 -8,28 -31,164 -52,304 -34,231 -36,259 -24,305 16,62 15,106 -2,117 -7,5 -35,6 -63,3 -50,-5 -50,-5 -22,11 27,16 35,39 17,50 -5,3 -10,0 -10,-8 0,-21 -26,-28 -40,-11 -8,9 -10,30 -5,61 12,85 28,109 92,142 105,52 200,139 218,199 l 6,22 H 852 c -128,0 -130,0 -136,24 -7,27 -73,102 -87,99 -5,-2 -9,10 -9,26 0,16 -7,36 -15,45 -21,21 -19,36 5,36 11,0 23,7 26,15 4,8 9,13 14,10 4,-2 20,9 35,25 l 29,30 h -36 c -19,0 -61,9 -93,20 -69,24 -62,23 -72,8 z M 755,1762 c 10,-73 16,-134 14,-137 -8,-8 -89,120 -89,140 0,30 43,146 51,138 3,-5 14,-68 24,-141 z m 25,-264 c 0,-15 7,-42 15,-60 8,-18 38,-192 66,-386 l 52,-353 -22,-15 c -27,-19 -27,-26 6,-65 18,-20 23,-34 16,-36 -25,-9 -64,-46 -80,-76 -20,-39 -21,-124 -2,-157 l 14,-25 4,40 c 3,39 4,39 17,-23 7,-35 24,-87 37,-116 23,-49 23,-53 6,-49 -54,15 -166,172 -200,283 -19,63 -19,68 -3,133 21,85 16,236 -9,284 -9,17 -40,58 -68,90 -102,116 -103,124 -24,278 l 58,113 -1,147 -2,146 59,-63 c 43,-45 60,-71 61,-90 z" />
  </g>
</svg>
